<svg width="120" height="80" viewBox="0 0 120 80" fill="none" xmlns="http://www.w3.org/2000/svg">
<path d="M99.6227 12.9446H109.235C109.404 12.9446 109.541 13.0689 109.541 13.2222V19.6138C109.541 19.885 109.299 20.1048 108.999 20.1048H105.291C105.248 20.1048 105.207 20.1208 105.178 20.1489L102.095 23.1069C101.996 23.2021 101.826 23.1347 101.826 23.0001V20.2558C101.826 20.1723 101.756 20.1046 101.669 20.1046H99.6227C99.3449 20.1046 99.1196 19.8883 99.1196 19.6217V13.4272C99.1196 13.1608 99.3449 12.9446 99.6227 12.9446Z" fill="#555555"/>
<path d="M104.537 18.9394C104.51 18.9394 104.483 18.9352 104.456 18.9269L104.247 18.8612C104.107 18.8171 103.991 18.7211 103.93 18.598L102.957 16.6316L100.789 15.5999C100.726 15.5702 100.682 15.5173 100.668 15.4543C100.654 15.3916 100.671 15.3271 100.715 15.2773C100.87 15.1042 101.075 14.978 101.31 14.913C101.599 14.8328 101.908 14.8513 102.182 14.9651L103.786 15.6314L105.571 15.1036C105.831 15.0269 106.114 15.0863 106.31 15.2594L106.468 15.3991C106.501 15.4275 106.516 15.4666 106.512 15.507C106.508 15.5472 106.485 15.5833 106.448 15.6058L105.347 16.2846L106.326 16.7316L107.219 16.4496C107.307 16.4223 107.403 16.4348 107.477 16.4837L107.626 16.581C107.683 16.6181 107.717 16.6756 107.722 16.7389C107.726 16.8022 107.699 16.8631 107.647 16.906L107.105 17.3409L107.49 17.6827C107.525 17.7139 107.536 17.7608 107.517 17.8021C107.499 17.8433 107.455 17.8702 107.406 17.8702H106.585C106.494 17.8702 106.404 17.8566 106.318 17.8298L104.548 17.279L104.777 18.6865C104.79 18.7636 104.757 18.839 104.691 18.8887C104.646 18.9219 104.592 18.9394 104.537 18.9394ZM101.671 15.0198C101.566 15.0198 101.462 15.0338 101.361 15.0621C101.159 15.1182 100.982 15.2265 100.849 15.3754C100.833 15.3935 100.834 15.4129 100.837 15.4227C100.839 15.4325 100.846 15.4506 100.869 15.4614L103.063 16.5056C103.081 16.5137 103.094 16.5269 103.102 16.5429L104.087 18.534C104.129 18.618 104.208 18.6834 104.304 18.7138L104.512 18.7794C104.546 18.79 104.572 18.7752 104.581 18.7681C104.59 18.7613 104.611 18.7417 104.606 18.7092L104.356 17.1747C104.351 17.1478 104.363 17.1207 104.386 17.1032C104.409 17.0859 104.441 17.0809 104.469 17.0895L106.374 17.6819C106.441 17.7029 106.512 17.7137 106.584 17.7137H107.278L106.917 17.3938C106.9 17.3786 106.891 17.3578 106.891 17.3361C106.892 17.3142 106.903 17.2938 106.921 17.2796L107.532 16.7902C107.548 16.7762 107.55 16.7579 107.549 16.7485C107.549 16.7389 107.544 16.721 107.524 16.7081L107.375 16.6108C107.347 16.5921 107.31 16.5869 107.275 16.5977L106.348 16.8905C106.326 16.8976 106.302 16.896 106.281 16.8866L105.137 16.365C105.11 16.3525 105.092 16.3279 105.09 16.3002C105.088 16.2727 105.103 16.2461 105.128 16.2307L106.326 15.4925L106.189 15.3719C106.039 15.2394 105.823 15.1938 105.624 15.2527L103.807 15.7899C103.786 15.796 103.764 15.7949 103.744 15.7866L102.11 15.1075C101.971 15.049 101.821 15.0198 101.671 15.0198Z" fill="white"/>
<path d="M101.483 15.4502C101.465 15.4502 101.448 15.4469 101.431 15.4402L100.917 15.2302C100.903 15.2244 100.896 15.209 100.903 15.1959C100.91 15.1825 100.927 15.1767 100.941 15.1827L101.455 15.3927C101.475 15.4012 101.498 15.4 101.517 15.3894L101.684 15.2906L101.151 15.0421C101.137 15.0355 101.131 15.0198 101.138 15.0071C101.146 14.9944 101.163 14.9896 101.177 14.9959L101.755 15.265C101.764 15.2694 101.769 15.2775 101.77 15.2869C101.77 15.296 101.765 15.305 101.757 15.31L101.548 15.4337C101.528 15.4446 101.505 15.4502 101.483 15.4502Z" fill="white"/>
<path d="M108.387 15.5768H112.028C112.59 15.5768 113.045 15.1646 113.045 14.656V11.3561C113.045 10.8475 112.59 10.4352 112.028 10.4352H108.387C107.826 10.4352 107.371 10.8475 107.371 11.3561V14.656C107.371 15.1644 107.826 15.5768 108.387 15.5768Z" fill="#F8E643"/>
<path d="M108.876 13.0061C108.876 12.3406 109.474 11.7992 110.208 11.7992C110.942 11.7992 111.54 12.3406 111.54 13.0061C111.54 13.6716 110.942 14.2129 110.208 14.2129C109.474 14.2129 108.876 13.6714 108.876 13.0061ZM109.102 13.0061C109.102 13.5589 109.598 14.0084 110.208 14.0084C110.818 14.0084 111.314 13.5587 111.314 13.0061C111.314 12.4532 110.818 12.0035 110.208 12.0035C109.598 12.0035 109.102 12.4532 109.102 13.0061Z" fill="white"/>
<path d="M108.977 14.2258C108.947 14.2258 108.918 14.2156 108.895 14.1954C108.851 14.1548 108.851 14.0888 108.895 14.0481L111.358 11.8167C111.402 11.776 111.475 11.776 111.52 11.8167C111.565 11.8573 111.565 11.9233 111.52 11.9639L109.058 14.1954C109.036 14.2156 109.006 14.2258 108.977 14.2258Z" fill="white"/>
<path d="M111.439 14.2258C111.41 14.2258 111.38 14.2156 111.358 14.1954L108.895 11.9639C108.851 11.9233 108.851 11.8573 108.895 11.8167C108.94 11.776 109.013 11.776 109.058 11.8167L111.52 14.0481C111.565 14.0888 111.565 14.1548 111.52 14.1954C111.498 14.2156 111.468 14.2258 111.439 14.2258Z" fill="white"/>
<g opacity="0.51">
<path d="M118.286 30.8197C118.286 31.2486 118.67 31.5963 119.143 31.5963C119.616 31.5963 120 31.2486 120 30.8197C120 30.3909 119.616 30.0432 119.143 30.0432C118.67 30.0432 118.286 30.3909 118.286 30.8197Z" fill="#F8E643"/>
<path d="M95.2585 7.52285C95.2585 7.73739 95.4505 7.91111 95.687 7.91111C95.9237 7.91111 96.1153 7.73739 96.1153 7.52285C96.1153 7.3083 95.9237 7.13458 95.687 7.13458C95.4502 7.13458 95.2585 7.30851 95.2585 7.52285Z" fill="#F8E643"/>
<path d="M110.811 25.5153C110.811 25.7296 111.003 25.9035 111.24 25.9035C111.476 25.9035 111.668 25.7296 111.668 25.5153C111.668 25.3009 111.476 25.127 111.24 25.127C111.003 25.127 110.811 25.3009 110.811 25.5153Z" fill="#111111"/>
<path d="M106.505 4.31962C106.505 4.42689 106.6 4.51375 106.719 4.51375C106.837 4.51375 106.933 4.42689 106.933 4.31962C106.933 4.21235 106.837 4.12549 106.719 4.12549C106.6 4.12549 106.505 4.21235 106.505 4.31962Z" fill="#111111"/>
<path d="M114.399 39.2508C114.399 39.358 114.495 39.4449 114.613 39.4449C114.732 39.4449 114.828 39.358 114.828 39.2508C114.828 39.1435 114.732 39.0566 114.613 39.0566C114.495 39.0566 114.399 39.1435 114.399 39.2508Z" fill="#111111"/>
<path d="M118.68 20.3189C118.68 20.5333 118.872 20.7072 119.108 20.7072C119.345 20.7072 119.537 20.5333 119.537 20.3189C119.537 20.1044 119.345 19.9307 119.108 19.9307C118.872 19.9307 118.68 20.1046 118.68 20.3189Z" fill="#555555"/>
<path d="M117.162 11.4542C117.162 11.6686 117.353 11.8425 117.59 11.8425C117.827 11.8425 118.018 11.6686 118.018 11.4542C118.018 11.2397 117.827 11.066 117.59 11.066C117.353 11.066 117.162 11.2399 117.162 11.4542Z" fill="#555555"/>
<path d="M107.598 31.0483C107.598 31.1555 107.694 31.2424 107.812 31.2424C107.93 31.2424 108.026 31.1555 108.026 31.0483C108.026 30.941 107.93 30.8541 107.812 30.8541C107.694 30.8541 107.598 30.941 107.598 31.0483Z" fill="#555555"/>
<path d="M89.582 1.06773C89.9073 1.06773 90.171 0.828709 90.171 0.533864C90.171 0.239019 89.9073 0 89.582 0C89.2566 0 88.9929 0.239019 88.9929 0.533864C88.9929 0.828709 89.2566 1.06773 89.582 1.06773Z" fill="#F8E643"/>
</g>
<path d="M20.5854 12.6349H8.94491C8.7399 12.6349 8.57373 12.7855 8.57373 12.9713V20.7118C8.57373 21.0403 8.86746 21.3065 9.22967 21.3065H13.721C13.773 21.3065 13.8226 21.3258 13.8582 21.36L17.5912 24.9423C17.7114 25.0577 17.9168 24.9758 17.9168 24.8129V21.4896C17.9168 21.3885 18.0023 21.3065 18.1076 21.3065H20.5852C20.9217 21.3065 21.1947 21.0446 21.1947 20.7216V13.2198C21.1947 12.8967 20.9219 12.6349 20.5854 12.6349Z" fill="#555555"/>
<path d="M14.6347 19.878C14.5715 19.878 14.5097 19.8582 14.4589 19.8203C14.384 19.7638 14.3477 19.678 14.3617 19.5907L14.6437 17.8592L12.4711 18.5351C12.3691 18.5669 12.2624 18.583 12.1542 18.583H11.1604C11.1082 18.583 11.0616 18.5547 11.0418 18.5107C11.022 18.4668 11.0335 18.4172 11.071 18.3843L11.5513 17.9581L10.8811 17.4209C10.8214 17.3713 10.7906 17.3024 10.7954 17.2307C10.8002 17.1591 10.8395 17.0939 10.9041 17.052L11.0848 16.9341C11.17 16.8785 11.2806 16.8635 11.3801 16.8954L12.4686 17.2391L13.6895 16.6819L12.3295 15.8437C12.2895 15.8191 12.2643 15.7799 12.2599 15.7362C12.2555 15.6925 12.273 15.6498 12.3077 15.6191L12.4994 15.4498C12.732 15.2444 13.0682 15.1738 13.3757 15.265L15.5446 15.9062L17.4932 15.0965C17.8209 14.9601 18.1914 14.938 18.5366 15.034C18.8175 15.1121 19.0634 15.2629 19.2479 15.47C19.2983 15.5267 19.3178 15.6 19.3012 15.671C19.2852 15.742 19.2351 15.802 19.164 15.8358L16.5329 17.0876L15.3516 19.4741C15.2801 19.619 15.1441 19.7322 14.9783 19.7842L14.7258 19.8638C14.6961 19.8736 14.6653 19.878 14.6347 19.878ZM14.7497 17.6656C14.7694 17.6656 14.789 17.6719 14.8046 17.6836C14.8278 17.7011 14.8391 17.7281 14.8349 17.755L14.5325 19.6134C14.5272 19.647 14.5403 19.6784 14.569 19.6999C14.5977 19.7215 14.6345 19.7274 14.6697 19.7163L14.9223 19.6368C15.0432 19.5984 15.1427 19.5159 15.1948 19.4101L16.3884 16.9989C16.3962 16.9829 16.4097 16.9697 16.427 16.9616L19.0845 15.6972C19.1093 15.6854 19.1273 15.6641 19.133 15.6389C19.1385 15.6137 19.1316 15.5879 19.1139 15.5679C18.9512 15.3852 18.7343 15.2521 18.4863 15.1832C18.182 15.0984 17.8549 15.1178 17.5653 15.2384L15.5863 16.0607C15.5665 16.0688 15.5444 16.0701 15.5235 16.0641L13.3226 15.4133C13.0753 15.3404 12.8064 15.3969 12.6198 15.5614L12.4281 15.7308L13.9078 16.6271C13.9328 16.6427 13.9473 16.6692 13.9453 16.6969C13.9432 16.7246 13.9253 16.7491 13.8981 16.7616L12.5136 17.3934C12.4927 17.403 12.4686 17.4044 12.4465 17.3974L11.3236 17.0428C11.2774 17.0283 11.2252 17.0349 11.1852 17.061L11.0046 17.1789C10.9825 17.1932 10.9692 17.2155 10.9676 17.2401C10.9657 17.2647 10.9763 17.2882 10.9965 17.3051L11.7347 17.8969C11.7527 17.9112 11.7632 17.9316 11.7639 17.9533C11.7646 17.975 11.7552 17.996 11.7382 18.0112L11.2696 18.4272H12.1544C12.2436 18.4272 12.3314 18.4138 12.4153 18.3878L14.7219 17.6702C14.7308 17.6671 14.7402 17.6656 14.7497 17.6656Z" fill="white"/>
<path d="M18.3325 15.6635C18.3068 15.6635 18.2808 15.6572 18.2581 15.6449L18.0041 15.4943C17.9956 15.4893 17.9905 15.4806 17.991 15.4712C17.9917 15.4619 17.9974 15.4535 18.0064 15.4494L18.7053 15.1234C18.7193 15.1171 18.7368 15.1217 18.7442 15.1346C18.7513 15.1475 18.7458 15.1632 18.7317 15.1696L18.0765 15.475L18.2884 15.6006C18.3118 15.6133 18.3424 15.615 18.3688 15.6041L18.991 15.3498C19.0055 15.3435 19.0225 15.3496 19.0291 15.3629C19.0356 15.376 19.0291 15.3914 19.0147 15.3973L18.3923 15.6516C18.3734 15.6597 18.353 15.6635 18.3325 15.6635Z" fill="white"/>
<path d="M9.97087 15.8224H5.56156C4.88195 15.8224 4.33081 15.3231 4.33081 14.7072V10.7108C4.33081 10.0949 4.88172 9.5954 5.56156 9.5954H9.97087C10.6505 9.5954 11.2016 10.0947 11.2016 10.7106V14.707C11.2016 15.3231 10.6507 15.8224 9.97087 15.8224Z" fill="#F8E643"/>
<path d="M7.76629 14.1704C6.87707 14.1704 6.15356 13.5147 6.15356 12.709C6.15356 11.9031 6.87707 11.2474 7.76629 11.2474C8.65551 11.2474 9.37902 11.9029 9.37902 12.709C9.37902 13.5149 8.65528 14.1704 7.76629 14.1704ZM7.76629 11.495C7.02761 11.495 6.42661 12.0397 6.42661 12.7092C6.42661 13.3787 7.02738 13.9232 7.76629 13.9232C8.50497 13.9232 9.10598 13.3787 9.10598 12.7092C9.10575 12.0395 8.50497 11.495 7.76629 11.495Z" fill="white"/>
<path d="M9.25721 14.1644C9.22779 14.1644 9.19837 14.1542 9.17585 14.134L6.19401 11.4315C6.1492 11.3909 6.1492 11.3249 6.19401 11.2842C6.23883 11.2436 6.31169 11.2436 6.3565 11.2842L9.33834 13.9867C9.38315 14.0273 9.38315 14.0933 9.33834 14.134C9.31581 14.1542 9.2864 14.1644 9.25721 14.1644Z" fill="white"/>
<path d="M6.27537 14.1644C6.24596 14.1644 6.21654 14.1542 6.19401 14.134C6.1492 14.0933 6.1492 14.0273 6.19401 13.9867L9.17585 11.2842C9.22066 11.2436 9.29352 11.2436 9.33834 11.2842C9.38315 11.3249 9.38315 11.3909 9.33834 11.4315L6.3565 14.134C6.33421 14.1542 6.30479 14.1644 6.27537 14.1644Z" fill="white"/>
<g opacity="0.51">
<path d="M7.75293 31.4507C7.75293 31.8795 7.36934 32.2272 6.89612 32.2272C6.42289 32.2272 6.03931 31.8795 6.03931 31.4507C6.03931 31.0218 6.42289 30.6741 6.89612 30.6741C7.36934 30.6741 7.75293 31.0218 7.75293 31.4507Z" fill="#F8E643"/>
<path d="M31.0485 8.88198C31.0485 9.09631 30.8568 9.27024 30.6201 9.27024C30.3836 9.27024 30.1917 9.09631 30.1917 8.88198C30.1917 8.66743 30.3836 8.49371 30.6201 8.49371C30.8568 8.49371 31.0485 8.66743 31.0485 8.88198Z" fill="#F8E643"/>
<path d="M12.7335 25.9662C12.7335 26.1805 12.5416 26.3545 12.3051 26.3545C12.0684 26.3545 11.8767 26.1805 11.8767 25.9662C11.8767 25.7519 12.0686 25.5779 12.3051 25.5779C12.5416 25.5779 12.7335 25.7519 12.7335 25.9662Z" fill="#111111"/>
<path d="M18.2226 10.5079C18.2226 10.6152 18.1268 10.702 18.0084 10.702C17.89 10.702 17.7942 10.6152 17.7942 10.5079C17.7942 10.4006 17.89 10.3138 18.0084 10.3138C18.1268 10.3136 18.2226 10.4006 18.2226 10.5079Z" fill="#111111"/>
<path d="M9.1452 39.7017C9.1452 39.809 9.04936 39.8958 8.931 39.8958C8.81264 39.8958 8.7168 39.809 8.7168 39.7017C8.7168 39.5944 8.81264 39.5076 8.931 39.5076C9.04936 39.5076 9.1452 39.5944 9.1452 39.7017Z" fill="#111111"/>
<path d="M2.02283 23.3454C2.02283 23.5598 1.83092 23.7337 1.59442 23.7337C1.35792 23.7337 1.16602 23.5598 1.16602 23.3454C1.16602 23.1309 1.35792 22.9572 1.59442 22.9572C1.83092 22.9572 2.02283 23.1309 2.02283 23.3454Z" fill="#555555"/>
<path d="M12.8405 3.93136C12.8405 4.14569 12.6485 4.31962 12.412 4.31962C12.1753 4.31962 11.9836 4.14569 11.9836 3.93136C11.9836 3.71681 12.1756 3.54309 12.412 3.54309C12.6485 3.54309 12.8405 3.71681 12.8405 3.93136Z" fill="#555555"/>
<path d="M15.9465 31.4992C15.9465 31.6065 15.8506 31.6933 15.7323 31.6933C15.6139 31.6933 15.5181 31.6065 15.5181 31.4992C15.5181 31.3919 15.6139 31.3051 15.7323 31.3051C15.8506 31.3051 15.9465 31.3919 15.9465 31.4992Z" fill="#555555"/>
<path d="M27.5139 2.57224C27.8392 2.57224 28.1029 2.33323 28.1029 2.03838C28.1029 1.74354 27.8392 1.50452 27.5139 1.50452C27.1885 1.50452 26.9248 1.74354 26.9248 2.03838C26.9248 2.33323 27.1885 2.57224 27.5139 2.57224Z" fill="#F8E643"/>
</g>
<path d="M78.4459 80H41.033C38.2962 80 36.0776 77.9893 36.0776 75.5089V6.33532C36.0776 3.85492 38.2962 1.84424 41.033 1.84424H78.4459C81.1828 1.84424 83.4013 3.85492 83.4013 6.33532V75.5089C83.4013 77.9891 81.1825 80 78.4459 80Z" fill="#353148"/>
<path d="M77.618 78.8714H41.8608C39.3704 78.8714 37.3513 77.0415 37.3513 74.7844V6.72212C37.3513 4.46502 39.3704 2.63513 41.8608 2.63513H77.618C80.1085 2.63513 82.1276 4.46502 82.1276 6.72212V74.7842C82.1276 77.0415 80.1085 78.8714 77.618 78.8714Z" fill="#423E49"/>
<path opacity="0.89" d="M59.7961 6.33512C59.7961 6.33512 59.7954 6.33512 59.7949 6.33512C59.5897 6.33512 59.3966 6.26263 59.2514 6.1312C59.1059 5.99914 59.0261 5.82396 59.0261 5.63816C59.0259 5.45257 59.1059 5.2776 59.2514 5.14554C59.3966 5.01389 59.5894 4.94141 59.7942 4.94141C59.7947 4.94141 59.7949 4.94141 59.7954 4.94141C60.0004 4.94141 60.1932 5.01389 60.3389 5.14533C60.4844 5.27739 60.5642 5.45257 60.5639 5.63857C60.5639 5.82458 60.4837 5.99955 60.3387 6.1312C60.2555 6.20681 60.1574 6.26263 60.047 6.297C59.9666 6.3222 59.8822 6.33512 59.7961 6.33512ZM59.7944 5.14949C59.6506 5.14949 59.5154 5.20032 59.4139 5.2926C59.312 5.38508 59.2557 5.50776 59.256 5.63795C59.2557 5.76834 59.3118 5.89124 59.4139 5.98393C59.5157 6.076 59.651 6.12682 59.7951 6.12682C59.7951 6.12682 59.7956 6.12682 59.7961 6.12682C59.8565 6.12682 59.9158 6.11766 59.9721 6.09995H59.9723C60.0491 6.07579 60.1178 6.03684 60.1764 5.98372C60.2782 5.89145 60.3346 5.76876 60.3346 5.63837C60.3348 5.50797 60.2787 5.38529 60.1767 5.2926C60.0748 5.20053 59.9392 5.1497 59.7954 5.1497C59.7949 5.14949 59.7944 5.14949 59.7944 5.14949Z" fill="white"/>
<path opacity="0.89" d="M63.4057 8.33496H63.4052L55.8975 8.33454L55.8658 8.31121C55.6787 8.17374 55.5703 7.99544 55.5599 7.80943C55.551 7.64987 55.6144 7.50031 55.7387 7.38804C55.8534 7.28389 56.0062 7.2262 56.1687 7.2262C56.1694 7.2262 56.1703 7.2262 56.171 7.2262L63.4195 7.2264C63.4197 7.2264 63.4199 7.2264 63.4199 7.2264C63.5833 7.2264 63.7366 7.2841 63.8518 7.38867C63.9672 7.49261 64.0308 7.63154 64.031 7.78006C64.0306 8.01647 63.8649 8.22706 63.619 8.30434H63.6187C63.5548 8.32434 63.488 8.33454 63.4199 8.33475L63.4057 8.33496ZM55.981 8.12625L63.4282 8.12666C63.468 8.12583 63.5068 8.11937 63.544 8.10792C63.6978 8.05959 63.8012 7.92795 63.8014 7.78047C63.8012 7.6882 63.7614 7.60134 63.6897 7.53656C63.6176 7.47115 63.5222 7.43512 63.4202 7.43512C63.4199 7.43512 63.4199 7.43512 63.4197 7.43512L56.1708 7.43491C56.1703 7.43491 56.1699 7.43491 56.1694 7.43491C56.0681 7.43491 55.9729 7.47074 55.9014 7.53572C55.8235 7.60592 55.784 7.69924 55.7897 7.79922C55.7962 7.91545 55.8638 8.03064 55.981 8.12625Z" fill="white"/>
<path d="M59.7689 75.0388C57.3704 75.0388 55.4187 73.2701 55.4187 71.0959C55.4187 68.9217 57.3702 67.1531 59.7689 67.1531C62.1679 67.1531 64.1194 68.9217 64.1194 71.0959C64.1194 73.2701 62.1677 75.0388 59.7689 75.0388ZM59.7689 67.3616C57.4968 67.3616 55.6485 69.0369 55.6485 71.0961C55.6485 73.1553 57.4968 74.8307 59.7689 74.8307C62.0411 74.8307 63.8896 73.1553 63.8896 71.0961C63.8896 69.0369 62.0411 67.3616 59.7689 67.3616Z" fill="white"/>
<path d="M59.7689 73.9954C61.5679 73.9954 63.0263 72.6736 63.0263 71.0432C63.0263 69.4127 61.5679 68.091 59.7689 68.091C57.9699 68.091 56.5115 69.4127 56.5115 71.0432C56.5115 72.6736 57.9699 73.9954 59.7689 73.9954Z" fill="#353148"/>
<path d="M79.2591 11.0422H40.22V65.6199H79.2591V11.0422Z" fill="white"/>
<path d="M79.2591 10.835H40.22V13.2799H79.2591V10.835Z" fill="#555555"/>
<path d="M64.2919 44.6857H54.6732C54.3416 44.6857 54.0715 44.4411 54.0715 44.1405V37.6048C54.0715 37.3043 54.3416 37.0595 54.6732 37.0595H64.2919C64.6236 37.0595 64.8934 37.304 64.8934 37.6048V44.1405C64.8934 44.4411 64.6236 44.6857 64.2919 44.6857ZM54.6732 37.2678C54.468 37.2678 54.3014 37.419 54.3014 37.6048V44.1405C54.3014 44.3263 54.4682 44.4774 54.6732 44.4774H64.2919C64.4969 44.4774 64.6635 44.3261 64.6635 44.1405V37.6048C64.6635 37.419 64.4967 37.2678 64.2919 37.2678H54.6732Z" fill="#F8E643"/>
<path d="M60.4198 39.9336H58.5451C58.4817 39.9336 58.4302 39.8869 58.4302 39.8294C58.4302 39.7719 58.4817 39.7253 58.5451 39.7253H60.4198C60.4833 39.7253 60.5347 39.7719 60.5347 39.8294C60.5347 39.8871 60.4833 39.9336 60.4198 39.9336Z" fill="#F8E643"/>
<path d="M61.8323 41.6147H57.1325C57.0691 41.6147 57.0176 41.5681 57.0176 41.5106C57.0176 41.4531 57.0691 41.4064 57.1325 41.4064H61.8323C61.8958 41.4064 61.9472 41.4531 61.9472 41.5106C61.9472 41.5681 61.896 41.6147 61.8323 41.6147Z" fill="#F8E643"/>
<path d="M52.5034 44.6857H42.8849C42.5533 44.6857 42.2834 44.4411 42.2834 44.1405V37.6048C42.2834 37.3043 42.5533 37.0595 42.8849 37.0595H52.5034C52.835 37.0595 53.1051 37.304 53.1051 37.6048V44.1405C53.1051 44.4411 52.835 44.6857 52.5034 44.6857ZM42.8847 37.2678C42.6797 37.2678 42.513 37.419 42.513 37.6048V44.1405C42.513 44.3263 42.6799 44.4774 42.8847 44.4774H52.5031C52.7084 44.4774 52.875 44.3261 52.875 44.1405V37.6048C52.875 37.419 52.7081 37.2678 52.5031 37.2678H42.8847Z" fill="#F8E643"/>
<path d="M48.6313 39.9336H46.7565C46.6931 39.9336 46.6416 39.8869 46.6416 39.8294C46.6416 39.7719 46.6931 39.7253 46.7565 39.7253H48.6313C48.6947 39.7253 48.7462 39.7719 48.7462 39.8294C48.7462 39.8871 48.6947 39.9336 48.6313 39.9336Z" fill="#F8E643"/>
<path d="M50.044 41.6147H45.3442C45.2807 41.6147 45.2292 41.5681 45.2292 41.5106C45.2292 41.4531 45.2807 41.4064 45.3442 41.4064H50.044C50.1074 41.4064 50.1589 41.4531 50.1589 41.5106C50.1589 41.5681 50.1074 41.6147 50.044 41.6147Z" fill="#F8E643"/>
<path d="M76.089 44.6857H66.4704C66.1387 44.6857 65.8689 44.4411 65.8689 44.1405V37.6048C65.8689 37.3043 66.1387 37.0595 66.4704 37.0595H76.089C76.4207 37.0595 76.6907 37.304 76.6907 37.6048V44.1405C76.6907 44.4411 76.4207 44.6857 76.089 44.6857ZM66.4704 37.2678C66.2654 37.2678 66.0987 37.419 66.0987 37.6048V44.1405C66.0987 44.3263 66.2656 44.4774 66.4704 44.4774H76.089C76.2943 44.4774 76.4609 44.3261 76.4609 44.1405V37.6048C76.4609 37.419 76.294 37.2678 76.089 37.2678H66.4704Z" fill="#F8E643"/>
<path d="M72.2172 39.9336H70.3425C70.279 39.9336 70.2275 39.8869 70.2275 39.8294C70.2275 39.7719 70.279 39.7253 70.3425 39.7253H72.2172C72.2806 39.7253 72.3321 39.7719 72.3321 39.8294C72.3321 39.8871 72.2806 39.9336 72.2172 39.9336Z" fill="#F8E643"/>
<path d="M73.6297 41.6147H68.9299C68.8664 41.6147 68.8149 41.5681 68.8149 41.5106C68.8149 41.4531 68.8664 41.4064 68.9299 41.4064H73.6297C73.6931 41.4064 73.7446 41.4531 73.7446 41.5106C73.7446 41.5681 73.6933 41.6147 73.6297 41.6147Z" fill="#F8E643"/>
<path d="M76.089 44.6857H66.4704C66.1387 44.6857 65.8689 44.4411 65.8689 44.1405V37.6048C65.8689 37.3043 66.1387 37.0595 66.4704 37.0595H76.089C76.4207 37.0595 76.6907 37.304 76.6907 37.6048V44.1405C76.6907 44.4411 76.4207 44.6857 76.089 44.6857ZM66.4704 37.2678C66.2654 37.2678 66.0987 37.419 66.0987 37.6048V44.1405C66.0987 44.3263 66.2656 44.4774 66.4704 44.4774H76.089C76.2943 44.4774 76.4609 44.3261 76.4609 44.1405V37.6048C76.4609 37.419 76.294 37.2678 76.089 37.2678H66.4704Z" fill="#F8E643"/>
<path d="M72.2172 39.9336H70.3425C70.279 39.9336 70.2275 39.8869 70.2275 39.8294C70.2275 39.7719 70.279 39.7253 70.3425 39.7253H72.2172C72.2806 39.7253 72.3321 39.7719 72.3321 39.8294C72.3321 39.8871 72.2806 39.9336 72.2172 39.9336Z" fill="#F8E643"/>
<path d="M73.6297 41.6147H68.9299C68.8664 41.6147 68.8149 41.5681 68.8149 41.5106C68.8149 41.4531 68.8664 41.4064 68.9299 41.4064H73.6297C73.6931 41.4064 73.7446 41.4531 73.7446 41.5106C73.7446 41.5681 73.6933 41.6147 73.6297 41.6147Z" fill="#F8E643"/>
<path d="M75.9907 54.6399H42.983C42.5972 54.6399 42.2832 54.3554 42.2832 54.0056V46.6003C42.2832 46.2504 42.5972 45.9658 42.983 45.9658H75.9907C76.3769 45.9658 76.6908 46.2504 76.6908 46.6003V54.0056C76.6908 54.3554 76.3769 54.6399 75.9907 54.6399ZM42.983 46.1741C42.7238 46.1741 42.513 46.3653 42.513 46.6003V54.0056C42.513 54.2406 42.7238 54.4316 42.983 54.4316H75.9907C76.25 54.4316 76.461 54.2406 76.461 54.0056V46.6003C76.461 46.3653 76.25 46.1741 75.9907 46.1741H42.983Z" fill="#111111"/>
<path d="M75.9907 63.9443H42.983C42.5972 63.9443 42.2832 63.6598 42.2832 63.3101V55.9047C42.2832 55.555 42.5972 55.2704 42.983 55.2704H75.9907C76.3769 55.2704 76.6908 55.555 76.6908 55.9047V63.3101C76.6908 63.6596 76.3769 63.9443 75.9907 63.9443ZM42.983 55.4787C42.7238 55.4787 42.513 55.6697 42.513 55.9047V63.3101C42.513 63.545 42.7238 63.736 42.983 63.736H75.9907C76.25 63.736 76.461 63.545 76.461 63.3101V55.9047C76.461 55.6697 76.25 55.4787 75.9907 55.4787H42.983Z" fill="#111111"/>
<path opacity="0.6" d="M48.1235 52.1835H44.1655V48.5964H48.1235V52.1835ZM44.3954 51.9752H47.8936V48.8047H44.3954V51.9752Z" fill="#111111"/>
<path opacity="0.6" d="M48.1235 61.4008H44.1655V57.8137H48.1235V61.4008ZM44.3954 61.1925H47.8936V58.022H44.3954V61.1925Z" fill="#111111"/>
<path d="M60.0317 35.837H44.2186C43.4234 35.837 42.7727 35.2474 42.7727 34.5266V21.9474C42.7727 21.2267 43.4234 20.637 44.2186 20.637H60.0317C60.8269 20.637 61.4775 21.2267 61.4775 21.9474V34.5266C61.4775 35.2474 60.8269 35.837 60.0317 35.837Z" fill="#F8E643"/>
<path d="M51.3599 33.1188C51.2537 33.1188 51.1498 33.0854 51.0648 33.0217C50.9386 32.9269 50.8777 32.7828 50.9014 32.6359L51.4302 29.3903L47.37 30.6532C47.1866 30.7102 46.9954 30.7392 46.8014 30.7392H44.9752C44.897 30.7392 44.8271 30.6967 44.798 30.6311C44.7685 30.5653 44.7855 30.4911 44.8416 30.4415L45.7575 29.6286L44.4909 28.6135C44.3916 28.531 44.3401 28.4159 44.3479 28.2959C44.3558 28.1759 44.422 28.067 44.5295 27.9968L44.8614 27.7801C45.0071 27.6852 45.1949 27.6604 45.3647 27.7139L47.3824 28.3511L49.7083 27.2898L47.148 25.712C47.0855 25.6732 47.0457 25.6118 47.0388 25.5432C47.0324 25.4747 47.0597 25.4081 47.114 25.3599L47.4661 25.049C47.8814 24.6824 48.4815 24.5559 49.0328 24.7186L53.0344 25.9017L56.6306 24.4074C57.2231 24.1612 57.8937 24.1212 58.5168 24.2945C59.0243 24.4357 59.4692 24.7082 59.8032 25.0829C59.8875 25.1777 59.9204 25.3002 59.8933 25.4191C59.8659 25.5382 59.7823 25.6388 59.6635 25.6955L54.8149 28.0022L52.638 32.4001C52.5111 32.6566 52.2702 32.8567 51.9772 32.9492L51.5134 33.0954C51.4631 33.1111 51.4114 33.1188 51.3599 33.1188ZM51.5713 29.132C51.5977 29.132 51.6239 29.1401 51.6446 29.1559C51.6757 29.1793 51.6908 29.2153 51.6851 29.2513L51.1289 32.6664C51.1167 32.7405 51.1475 32.8134 51.2112 32.8613C51.2748 32.909 51.3592 32.9232 51.438 32.8984L51.902 32.7522C52.1355 32.6784 52.3277 32.5191 52.4286 32.3145L54.6216 27.8837C54.6322 27.8624 54.6501 27.8449 54.6731 27.8341L59.5568 25.5105C59.6145 25.4833 59.6552 25.4343 59.6683 25.3764C59.6816 25.3187 59.6655 25.2591 59.6248 25.2133C59.3196 24.8711 58.9133 24.6222 58.4499 24.4932C57.8802 24.3349 57.2681 24.3716 56.7267 24.5963L53.0898 26.1077C53.0638 26.1186 53.0342 26.12 53.0064 26.1121L48.962 24.9165C48.4927 24.7775 47.9807 24.8854 47.6267 25.1979L47.2746 25.5089L47.213 25.6255L47.2776 25.5393L49.9995 27.2167C50.0333 27.2375 50.0524 27.2729 50.0496 27.3096C50.0468 27.3465 50.0229 27.3792 49.9866 27.3958L47.4426 28.5567C47.4146 28.5694 47.3819 28.571 47.3532 28.5619L45.2896 27.9103C45.1905 27.8789 45.0811 27.8937 44.9963 27.9491L44.6644 28.1657C44.6132 28.199 44.5819 28.2509 44.578 28.308C44.5743 28.365 44.5989 28.4198 44.6453 28.4586L46.0027 29.5465C46.0269 29.5657 46.0406 29.5929 46.0416 29.6219C46.0423 29.6508 46.0298 29.6788 46.0071 29.699L45.0701 30.5307H46.8021C46.9703 30.5307 47.1367 30.5055 47.296 30.4559L51.5345 29.1374C51.5463 29.1339 51.5587 29.132 51.5713 29.132Z" fill="white"/>
<path d="M60.6761 17.6942H43.4854C43.2351 17.6942 43.0312 17.5096 43.0312 17.2826V16.0045C43.0312 15.7777 43.2351 15.5929 43.4854 15.5929H60.6761C60.9264 15.5929 61.1302 15.7774 61.1302 16.0045V17.2826C61.1302 17.5094 60.9264 17.6942 60.6761 17.6942ZM43.4854 15.8012C43.3618 15.8012 43.2611 15.8924 43.2611 16.0045V17.2826C43.2611 17.3947 43.3618 17.4859 43.4854 17.4859H60.6761C60.7998 17.4859 60.9004 17.3947 60.9004 17.2826V16.0045C60.9004 15.8924 60.7998 15.8012 60.6761 15.8012H43.4854Z" fill="#4D67C2"/>
<path d="M77.0811 18.9419H43.1821V19.1502H77.0811V18.9419Z" fill="#4D67C2"/>
<path d="M76.3534 27.6682H63.3486C63.0799 27.6682 62.8618 27.4708 62.8618 27.2271V21.3071C62.8618 21.0636 63.0797 20.8659 63.3486 20.8659H76.3534C76.6221 20.8659 76.8402 21.0634 76.8402 21.3071V27.2271C76.8402 27.4708 76.6223 27.6682 76.3534 27.6682Z" fill="#555555"/>
<path d="M71.6755 23.4146H68.4604C68.3969 23.4146 68.3455 23.3679 68.3455 23.3104C68.3455 23.253 68.3969 23.2063 68.4604 23.2063H71.6755C71.7389 23.2063 71.7904 23.253 71.7904 23.3104C71.7904 23.3681 71.7389 23.4146 71.6755 23.4146Z" fill="white"/>
<path d="M74.0977 24.9562H66.038C65.9746 24.9562 65.9231 24.9096 65.9231 24.8521C65.9231 24.7946 65.9746 24.7479 66.038 24.7479H74.0977C74.1612 24.7479 74.2127 24.7946 74.2127 24.8521C74.2127 24.9096 74.1612 24.9562 74.0977 24.9562Z" fill="white"/>
<path d="M76.3534 35.5096H63.3486C63.0799 35.5096 62.8618 35.3121 62.8618 35.0684V29.1484C62.8618 28.9049 63.0797 28.7072 63.3486 28.7072H76.3534C76.6221 28.7072 76.8402 28.9047 76.8402 29.1484V35.0684C76.8402 35.3121 76.6223 35.5096 76.3534 35.5096Z" fill="#111111"/>
<path d="M71.6755 31.2559H68.4604C68.3969 31.2559 68.3455 31.2092 68.3455 31.1518C68.3455 31.0943 68.3969 31.0476 68.4604 31.0476H71.6755C71.7389 31.0476 71.7904 31.0943 71.7904 31.1518C71.7904 31.2092 71.7389 31.2559 71.6755 31.2559Z" fill="white"/>
<path d="M74.0977 32.7975H66.038C65.9746 32.7975 65.9231 32.7509 65.9231 32.6934C65.9231 32.6359 65.9746 32.5892 66.038 32.5892H74.0977C74.1612 32.5892 74.2127 32.6359 74.2127 32.6934C74.2127 32.7511 74.1612 32.7975 74.0977 32.7975Z" fill="white"/>
<path d="M52.0679 51.514V49.414H53.0519C53.3039 49.414 53.4959 49.464 53.6279 49.564C53.7599 49.662 53.8259 49.794 53.8259 49.96C53.8259 50.072 53.7999 50.168 53.7479 50.248C53.6959 50.326 53.6259 50.387 53.5379 50.431C53.4519 50.473 53.3579 50.494 53.2559 50.494L53.3099 50.386C53.4279 50.386 53.5339 50.408 53.6279 50.452C53.7219 50.494 53.7959 50.556 53.8499 50.638C53.9059 50.72 53.9339 50.822 53.9339 50.944C53.9339 51.124 53.8649 51.264 53.7269 51.364C53.5889 51.464 53.3839 51.514 53.1119 51.514H52.0679ZM52.4579 51.208H53.0879C53.2339 51.208 53.3459 51.184 53.4239 51.136C53.5019 51.088 53.5409 51.011 53.5409 50.905C53.5409 50.801 53.5019 50.725 53.4239 50.677C53.3459 50.627 53.2339 50.602 53.0879 50.602H52.4279V50.299H53.0099C53.1459 50.299 53.2499 50.275 53.3219 50.227C53.3959 50.179 53.4329 50.107 53.4329 50.011C53.4329 49.913 53.3959 49.84 53.3219 49.792C53.2499 49.744 53.1459 49.72 53.0099 49.72H52.4579V51.208ZM55.3341 51.544C55.1701 51.544 55.0191 51.517 54.8811 51.463C54.7431 51.409 54.6231 51.334 54.5211 51.238C54.4191 51.14 54.3401 51.026 54.2841 50.896C54.2281 50.764 54.2001 50.62 54.2001 50.464C54.2001 50.308 54.2281 50.165 54.2841 50.035C54.3401 49.903 54.4191 49.789 54.5211 49.693C54.6231 49.595 54.7431 49.519 54.8811 49.465C55.0191 49.411 55.1691 49.384 55.3311 49.384C55.4951 49.384 55.6451 49.411 55.7811 49.465C55.9191 49.519 56.0391 49.595 56.1411 49.693C56.2431 49.789 56.3221 49.903 56.3781 50.035C56.4341 50.165 56.4621 50.308 56.4621 50.464C56.4621 50.62 56.4341 50.764 56.3781 50.896C56.3221 51.028 56.2431 51.142 56.1411 51.238C56.0391 51.334 55.9191 51.409 55.7811 51.463C55.6451 51.517 55.4961 51.544 55.3341 51.544ZM55.3311 51.202C55.4371 51.202 55.5351 51.184 55.6251 51.148C55.7151 51.112 55.7931 51.061 55.8591 50.995C55.9251 50.927 55.9761 50.849 56.0121 50.761C56.0501 50.671 56.0691 50.572 56.0691 50.464C56.0691 50.356 56.0501 50.258 56.0121 50.17C55.9761 50.08 55.9251 50.002 55.8591 49.936C55.7931 49.868 55.7151 49.816 55.6251 49.78C55.5351 49.744 55.4371 49.726 55.3311 49.726C55.2251 49.726 55.1271 49.744 55.0371 49.78C54.9491 49.816 54.8711 49.868 54.8031 49.936C54.7371 50.002 54.6851 50.08 54.6471 50.17C54.6111 50.258 54.5931 50.356 54.5931 50.464C54.5931 50.57 54.6111 50.668 54.6471 50.758C54.6851 50.848 54.7371 50.927 54.8031 50.995C54.8691 51.061 54.9471 51.112 55.0371 51.148C55.1271 51.184 55.2251 51.202 55.3311 51.202ZM57.8595 51.544C57.6955 51.544 57.5445 51.517 57.4065 51.463C57.2685 51.409 57.1485 51.334 57.0465 51.238C56.9445 51.14 56.8655 51.026 56.8095 50.896C56.7535 50.764 56.7255 50.62 56.7255 50.464C56.7255 50.308 56.7535 50.165 56.8095 50.035C56.8655 49.903 56.9445 49.789 57.0465 49.693C57.1485 49.595 57.2685 49.519 57.4065 49.465C57.5445 49.411 57.6945 49.384 57.8565 49.384C58.0205 49.384 58.1705 49.411 58.3065 49.465C58.4445 49.519 58.5645 49.595 58.6665 49.693C58.7685 49.789 58.8475 49.903 58.9035 50.035C58.9595 50.165 58.9875 50.308 58.9875 50.464C58.9875 50.62 58.9595 50.764 58.9035 50.896C58.8475 51.028 58.7685 51.142 58.6665 51.238C58.5645 51.334 58.4445 51.409 58.3065 51.463C58.1705 51.517 58.0215 51.544 57.8595 51.544ZM57.8565 51.202C57.9625 51.202 58.0605 51.184 58.1505 51.148C58.2405 51.112 58.3185 51.061 58.3845 50.995C58.4505 50.927 58.5015 50.849 58.5375 50.761C58.5755 50.671 58.5945 50.572 58.5945 50.464C58.5945 50.356 58.5755 50.258 58.5375 50.17C58.5015 50.08 58.4505 50.002 58.3845 49.936C58.3185 49.868 58.2405 49.816 58.1505 49.78C58.0605 49.744 57.9625 49.726 57.8565 49.726C57.7505 49.726 57.6525 49.744 57.5625 49.78C57.4745 49.816 57.3965 49.868 57.3285 49.936C57.2625 50.002 57.2105 50.08 57.1725 50.17C57.1365 50.258 57.1185 50.356 57.1185 50.464C57.1185 50.57 57.1365 50.668 57.1725 50.758C57.2105 50.848 57.2625 50.927 57.3285 50.995C57.3945 51.061 57.4725 51.112 57.5625 51.148C57.6525 51.184 57.7505 51.202 57.8565 51.202ZM59.7489 51.019L59.7279 50.557L60.8289 49.414H61.2669L60.3519 50.386L60.1359 50.623L59.7489 51.019ZM59.4009 51.514V49.414H59.7909V51.514H59.4009ZM60.8649 51.514L60.0609 50.557L60.3189 50.272L61.3209 51.514H60.8649ZM61.9464 50.287H62.9904V50.608H61.9464V50.287ZM61.9764 51.187H63.1614V51.514H61.5864V49.414H63.1194V49.741H61.9764V51.187ZM63.5962 51.514V49.414H64.5142C64.7422 49.414 64.9422 49.458 65.1142 49.546C65.2862 49.634 65.4202 49.756 65.5162 49.912C65.6122 50.068 65.6602 50.252 65.6602 50.464C65.6602 50.674 65.6122 50.858 65.5162 51.016C65.4202 51.172 65.2862 51.294 65.1142 51.382C64.9422 51.47 64.7422 51.514 64.5142 51.514H63.5962ZM63.9862 51.184H64.4962C64.6542 51.184 64.7902 51.154 64.9042 51.094C65.0202 51.034 65.1092 50.95 65.1712 50.842C65.2352 50.734 65.2672 50.608 65.2672 50.464C65.2672 50.318 65.2352 50.192 65.1712 50.086C65.1092 49.978 65.0202 49.894 64.9042 49.834C64.7902 49.774 64.6542 49.744 64.4962 49.744H63.9862V51.184Z" fill="#F8E643"/>
<path d="M74.6663 53.286H50.0419C49.7018 53.286 49.4248 53.0352 49.4248 52.7267V47.8299C49.4248 47.5216 49.7015 47.2706 50.0419 47.2706H74.6665C75.0067 47.2706 75.2836 47.5214 75.2836 47.8299V52.7267C75.2834 53.0352 75.0067 53.286 74.6663 53.286ZM50.0419 47.4791C49.8284 47.4791 49.6546 47.6366 49.6546 47.8301V52.727C49.6546 52.9205 49.8284 53.0779 50.0419 53.0779H74.6665C74.88 53.0779 75.0538 52.9205 75.0538 52.727V47.8301C75.0538 47.6366 74.88 47.4791 74.6665 47.4791H50.0419Z" fill="#F8E643"/>
<path d="M52.9686 60.9064C52.8086 60.9064 52.6606 60.8804 52.5246 60.8284C52.3906 60.7744 52.2736 60.6994 52.1736 60.6034C52.0756 60.5054 51.9986 60.3914 51.9426 60.2614C51.8866 60.1314 51.8586 59.9884 51.8586 59.8324C51.8586 59.6764 51.8866 59.5334 51.9426 59.4034C51.9986 59.2734 52.0766 59.1604 52.1766 59.0644C52.2766 58.9664 52.3936 58.8914 52.5276 58.8394C52.6636 58.7854 52.8116 58.7584 52.9716 58.7584C53.1336 58.7584 53.2826 58.7864 53.4186 58.8424C53.5566 58.8964 53.6736 58.9774 53.7696 59.0854L53.5746 59.2744C53.4946 59.1904 53.4046 59.1284 53.3046 59.0884C53.2046 59.0464 53.0976 59.0254 52.9836 59.0254C52.8656 59.0254 52.7556 59.0454 52.6536 59.0854C52.5536 59.1254 52.4666 59.1814 52.3926 59.2534C52.3186 59.3254 52.2606 59.4114 52.2186 59.5114C52.1786 59.6094 52.1586 59.7164 52.1586 59.8324C52.1586 59.9484 52.1786 60.0564 52.2186 60.1564C52.2606 60.2544 52.3186 60.3394 52.3926 60.4114C52.4666 60.4834 52.5536 60.5394 52.6536 60.5794C52.7556 60.6194 52.8656 60.6394 52.9836 60.6394C53.0976 60.6394 53.2046 60.6194 53.3046 60.5794C53.4046 60.5374 53.4946 60.4734 53.5746 60.3874L53.7696 60.5764C53.6736 60.6844 53.5566 60.7664 53.4186 60.8224C53.2826 60.8784 53.1326 60.9064 52.9686 60.9064ZM53.8298 60.8824L54.7808 58.7824H55.0778L56.0318 60.8824H55.7168L54.8678 58.9504H54.9878L54.1388 60.8824H53.8298ZM54.2348 60.3574L54.3158 60.1174H55.4978L55.5848 60.3574H54.2348ZM56.345 60.8824V58.7824H56.591L57.98 60.5074H57.851V58.7824H58.151V60.8824H57.905L56.516 59.1574H56.645V60.8824H56.345ZM59.7186 60.9064C59.5586 60.9064 59.4106 60.8804 59.2746 60.8284C59.1406 60.7744 59.0236 60.6994 58.9236 60.6034C58.8256 60.5054 58.7486 60.3914 58.6926 60.2614C58.6366 60.1314 58.6086 59.9884 58.6086 59.8324C58.6086 59.6764 58.6366 59.5334 58.6926 59.4034C58.7486 59.2734 58.8266 59.1604 58.9266 59.0644C59.0266 58.9664 59.1436 58.8914 59.2776 58.8394C59.4136 58.7854 59.5616 58.7584 59.7216 58.7584C59.8836 58.7584 60.0326 58.7864 60.1686 58.8424C60.3066 58.8964 60.4236 58.9774 60.5196 59.0854L60.3246 59.2744C60.2446 59.1904 60.1546 59.1284 60.0546 59.0884C59.9546 59.0464 59.8476 59.0254 59.7336 59.0254C59.6156 59.0254 59.5056 59.0454 59.4036 59.0854C59.3036 59.1254 59.2166 59.1814 59.1426 59.2534C59.0686 59.3254 59.0106 59.4114 58.9686 59.5114C58.9286 59.6094 58.9086 59.7164 58.9086 59.8324C58.9086 59.9484 58.9286 60.0564 58.9686 60.1564C59.0106 60.2544 59.0686 60.3394 59.1426 60.4114C59.2166 60.4834 59.3036 60.5394 59.4036 60.5794C59.5056 60.6194 59.6156 60.6394 59.7336 60.6394C59.8476 60.6394 59.9546 60.6194 60.0546 60.5794C60.1546 60.5374 60.2446 60.4734 60.3246 60.3874L60.5196 60.5764C60.4236 60.6844 60.3066 60.7664 60.1686 60.8224C60.0326 60.8784 59.8826 60.9064 59.7186 60.9064ZM61.2206 59.6884H62.3006V59.9434H61.2206V59.6884ZM61.2476 60.6214H62.4716V60.8824H60.9476V58.7824H62.4296V59.0434H61.2476V60.6214ZM62.9573 60.8824V58.7824H63.2573V60.6214H64.3943V60.8824H62.9573ZM65.0116 59.6884H66.0916V59.9434H65.0116V59.6884ZM65.0386 60.6214H66.2626V60.8824H64.7386V58.7824H66.2206V59.0434H65.0386V60.6214ZM66.7483 60.8824V58.7824H67.6333C67.8573 58.7824 68.0543 58.8264 68.2243 58.9144C68.3963 59.0024 68.5293 59.1254 68.6233 59.2834C68.7193 59.4414 68.7673 59.6244 68.7673 59.8324C68.7673 60.0404 68.7193 60.2234 68.6233 60.3814C68.5293 60.5394 68.3963 60.6624 68.2243 60.7504C68.0543 60.8384 67.8573 60.8824 67.6333 60.8824H66.7483ZM67.0483 60.6214H67.6153C67.7893 60.6214 67.9393 60.5884 68.0653 60.5224C68.1933 60.4564 68.2923 60.3644 68.3623 60.2464C68.4323 60.1264 68.4673 59.9884 68.4673 59.8324C68.4673 59.6744 68.4323 59.5364 68.3623 59.4184C68.2923 59.3004 68.1933 59.2084 68.0653 59.1424C67.9393 59.0764 67.7893 59.0434 67.6153 59.0434H67.0483V60.6214Z" fill="#F8E643"/>
<path d="M74.6663 62.7016H50.0419C49.7018 62.7016 49.4248 62.4509 49.4248 62.1426V57.2457C49.4248 56.9375 49.7015 56.6865 50.0419 56.6865H74.6665C75.0067 56.6865 75.2836 56.9373 75.2836 57.2457V62.1426C75.2834 62.4509 75.0067 62.7016 74.6663 62.7016ZM50.0419 56.895C49.8284 56.895 49.6546 57.0524 49.6546 57.2459V62.1428C49.6546 62.3363 49.8284 62.4936 50.0419 62.4936H74.6665C74.88 62.4936 75.0538 62.3363 75.0538 62.1428V57.2459C75.0538 57.0524 74.88 56.895 74.6665 56.895H50.0419Z" fill="#F8E643"/>
<path d="M11.2458 53.1189L13.8785 43.7564L13.2856 43.5715L10.6528 52.9338L11.2458 53.1189Z" fill="#323233"/>
<path d="M16.9023 54.6836L19.5352 45.3213L18.9423 45.1362L16.3093 54.4987L16.9023 54.6836Z" fill="#323233"/>
<path d="M19.8174 45.798L12.4931 44.1926C12.113 44.1093 11.8795 43.7625 11.9714 43.4182L11.9923 43.3398C12.0843 42.9953 12.4667 42.7837 12.8469 42.867L20.1714 44.4724C20.5515 44.5557 20.785 44.9023 20.6931 45.2468L20.6722 45.3251C20.5802 45.6694 20.1976 45.8813 19.8174 45.798Z" fill="#141C34"/>
<path d="M11.1422 77.7885L0.956273 75.2011C0.260113 75.0242 -0.146228 74.3693 0.0488987 73.7384L6.59679 52.5663C6.79192 51.9354 7.51451 51.5671 8.21067 51.744L18.3966 54.3314C19.0927 54.5083 19.4991 55.1631 19.3039 55.7941L12.7561 76.9662C12.5612 77.5973 11.8386 77.9654 11.1422 77.7885Z" fill="#111111"/>
<path opacity="0.49" d="M13.5764 74.0007L3.6185 71.5415C2.83776 71.343 2.38086 70.6067 2.59966 69.8997L7.84901 52.9267C7.95496 52.5841 8.20157 52.2995 8.54356 52.1252C8.88554 51.9508 9.28178 51.9075 9.65985 52.0039L9.59802 52.2045C9.27925 52.1235 8.94484 52.1598 8.65617 52.3068C8.36751 52.4539 8.15951 52.6938 8.0701 52.9827L2.82075 69.9558C2.73135 70.2449 2.77134 70.548 2.9336 70.8094C3.09586 71.071 3.36063 71.2597 3.6794 71.3407L13.6366 73.7997L13.5764 74.0007Z" fill="white"/>
<path opacity="0.49" d="M9.97447 77.6898L1.18457 75.3756L1.36568 74.8097C1.52173 74.3244 2.08459 74.0444 2.61964 74.1848L9.46655 75.9874C9.72603 76.0557 9.94069 76.2115 10.0708 76.4261C10.2009 76.6408 10.2312 76.8887 10.1558 77.1239L9.97447 77.6898ZM1.4691 75.2336L9.81773 77.4315L9.93494 77.0657C9.99332 76.8841 9.96988 76.6925 9.86944 76.5267C9.76878 76.3607 9.60307 76.2403 9.40242 76.1876L2.55552 74.385C2.14067 74.2758 1.70698 74.4929 1.58655 74.8678L1.4691 75.2336Z" fill="white"/>
<path d="M11.6413 77.6994C11.8385 78.7392 11.0681 79.727 9.92074 79.9057C8.77342 80.0844 7.68356 79.3862 7.48636 78.3464C7.28917 77.3066 8.05957 76.3188 9.20688 76.1401C10.3542 75.9614 11.4443 76.6596 11.6413 77.6994Z" fill="#434343"/>
<path opacity="0.27" d="M10.7205 77.8427C10.8303 78.4218 10.4012 78.9717 9.76254 79.0711C9.12384 79.1704 8.51686 78.7817 8.407 78.2029C8.29737 77.6238 8.72623 77.0739 9.36494 76.9745C10.0036 76.8752 10.6109 77.2639 10.7205 77.8427Z" fill="#A2D5F2"/>
<path opacity="0.49" d="M11.2599 70.996C11.2186 70.996 11.1772 70.9908 11.1365 70.9802L10.7647 70.8823C10.652 70.8525 10.5587 70.7848 10.5022 70.6917C10.4456 70.5984 10.4323 70.4907 10.4652 70.3886L14.8124 56.8256C14.8453 56.7235 14.92 56.639 15.0227 56.5877C15.1252 56.5367 15.2443 56.5248 15.3571 56.5542L15.7288 56.6521C15.8414 56.6819 15.9347 56.7496 15.9912 56.8427C16.0478 56.936 16.0611 57.0437 16.0283 57.1457L11.681 70.7088C11.6481 70.8108 11.5737 70.8954 11.4709 70.9466C11.4052 70.9793 11.333 70.996 11.2599 70.996ZM15.2342 56.7466C15.1995 56.7466 15.1648 56.7546 15.1335 56.7702C15.0843 56.7945 15.0487 56.835 15.0333 56.8837L10.6861 70.4467C10.6704 70.4955 10.6766 70.5467 10.7035 70.5911C10.7304 70.6356 10.775 70.6679 10.8288 70.6821L11.2006 70.78C11.2537 70.7937 11.311 70.7885 11.3599 70.7642C11.4091 70.7398 11.4445 70.6996 11.4599 70.6508L15.8072 57.0876C15.8228 57.0389 15.8166 56.9876 15.7897 56.9433C15.7628 56.8987 15.7182 56.8664 15.6644 56.8522L15.2928 56.7543C15.2737 56.7493 15.254 56.7466 15.2342 56.7466Z" fill="white"/>
<path opacity="0.49" d="M7.56348 70.023C7.5228 70.023 7.48189 70.018 7.44098 70.0072L7.06934 69.9093C6.95672 69.8795 6.86341 69.8118 6.80687 69.7187C6.75033 69.6256 6.73701 69.5179 6.76987 69.4158L11.1171 55.8526C11.1849 55.642 11.4283 55.5206 11.6616 55.5812L12.0335 55.6793C12.1461 55.7091 12.2392 55.7766 12.2959 55.8697C12.3525 55.9628 12.3658 56.0705 12.3329 56.1728L7.98568 69.7358C7.92983 69.9097 7.75401 70.023 7.56348 70.023ZM11.5393 55.7739C11.4486 55.7739 11.3644 55.8278 11.338 55.9107L6.99074 69.474C6.97511 69.5225 6.98132 69.5739 7.00821 69.6181C7.0351 69.6627 7.07968 69.695 7.13346 69.7091L7.5051 69.807C7.55842 69.821 7.61542 69.8156 7.66437 69.7912C7.71356 69.7668 7.74918 69.7266 7.76458 69.6777L12.1118 56.1146C12.1275 56.0659 12.1213 56.0147 12.0944 55.9703C12.0675 55.9257 12.0229 55.8936 11.9693 55.8795L11.5973 55.7814C11.5782 55.7764 11.5586 55.7739 11.5393 55.7739Z" fill="white"/>
<path d="M37.0877 25.3037C36.8976 25.0241 36.6598 24.7648 36.5819 24.4257C36.4619 23.9043 36.7533 23.3919 36.9057 22.8818C37.1525 22.0555 37.0192 21.1002 36.5584 20.3935C36.1404 19.7528 35.5044 19.3447 34.9301 18.8715C34.811 18.7723 34.8931 18.1814 34.8813 18.0354C34.8388 17.5036 34.7733 16.9651 34.6138 16.4496C34.3578 15.622 33.8418 14.9865 32.9719 14.6003C32.125 14.2244 31.1599 14.0956 30.2215 14.0775C29.4603 14.0627 28.6922 14.1144 27.9597 14.2985C27.2273 14.4827 26.5297 14.8041 25.9901 15.28C25.1241 16.0438 24.8644 17.0622 24.8455 18.1093C24.8432 18.2414 24.9361 18.8242 24.8524 18.8935C24.2806 19.3691 23.1404 19.7809 22.726 20.4235C22.2689 21.1323 22.1406 22.088 22.3918 22.9132C22.547 23.4227 22.8409 23.9337 22.7239 24.4557C22.6479 24.795 22.4114 25.0556 22.2227 25.3357C22.034 25.6161 21.8834 25.9865 22.0085 26.3074C22.3181 27.1038 24.0641 26.8813 24.6727 26.9013C25.9905 26.9448 27.3091 26.9675 28.6276 26.9696C28.9717 26.9702 29.3157 26.9654 29.6596 26.9632C30.0036 26.964 30.3477 26.9671 30.6915 26.965C32.01 26.9571 33.3284 26.9286 34.6462 26.8794C35.2546 26.8567 37.0018 27.0715 37.3072 26.2739C37.4302 25.9527 37.2778 25.5832 37.0877 25.3037Z" fill="#54132A"/>
<path d="M33.7072 17.8496L33.2939 17.8467C33.1128 17.8454 32.9443 17.765 32.8453 17.6327L32.5157 17.1926C32.3693 17.1916 32.3967 17.8346 32.2539 17.8225C31.4387 17.7535 30.6959 17.5069 30.0871 17.1378C30.1103 18.3561 29.5309 19.3499 28.6927 19.4343L27.7479 19.5295C27.649 19.5395 27.5601 19.4749 27.5493 19.3855L27.4709 18.7463C27.4642 18.6921 27.4608 18.6388 27.4567 18.5853L27.1763 18.5855L26.6385 18.5765C26.0016 18.5661 25.4709 19.0296 25.4594 19.6068C25.4477 20.1839 25.9593 20.6647 26.5962 20.6753L26.8216 20.6791V25.0293C26.8216 25.9444 27.6477 26.6932 28.6573 26.6932H29.4061C30.4157 26.6932 31.242 25.9446 31.242 25.0293V23.8012C31.9522 23.6452 32.5608 23.2526 32.9577 22.7168C33.3826 22.2736 33.6453 21.6985 33.6582 21.0655L33.7184 18.0737C33.7196 17.9979 33.7127 17.9239 33.7072 17.8496Z" fill="#FFA698"/>
<path opacity="0.41" d="M27.3931 20.9617C27.3641 22.3938 28.6218 23.5758 30.2019 23.6021L30.7443 23.611C31.6241 23.6256 32.4177 23.278 32.9539 22.7204C32.54 23.2761 31.8983 23.6798 31.1511 23.8208C31.1492 23.826 31.1483 23.8312 31.1465 23.8362C30.8783 24.5865 29.9897 24.9975 29.1619 24.7544C28.4244 24.5378 27.9856 23.875 28.0879 23.2026C27.4832 22.7129 27.107 21.9978 27.1231 21.2052L27.1336 20.6843L27.3986 20.6886L27.3931 20.9617Z" fill="#FF755F"/>
<path d="M26.2598 19.9125C26.2756 19.9125 26.2917 19.9094 26.3064 19.9027L26.7925 19.6863C26.8206 19.6738 26.841 19.6511 26.8486 19.6238C26.8564 19.5965 26.8505 19.5676 26.8328 19.5447L26.4168 19.006C26.383 18.9623 26.317 18.9517 26.2688 18.9823C26.2205 19.0127 26.209 19.0729 26.2426 19.1164L26.5875 19.563L26.2131 19.7298C26.1603 19.7534 26.1387 19.8109 26.1644 19.8588C26.1828 19.8927 26.2205 19.9125 26.2598 19.9125Z" fill="#FF755F"/>
<path d="M26.703 20.2958C26.6908 20.3916 26.5952 20.4606 26.4895 20.4495C26.3837 20.4385 26.3079 20.3518 26.3198 20.256C26.332 20.1602 26.4276 20.0913 26.5334 20.1023C26.6391 20.1133 26.7152 20.2 26.703 20.2958Z" fill="white"/>
<mask id="mask0_513_25767" style="mask-type:luminance" maskUnits="userSpaceOnUse" x="32" y="19" width="2" height="2">
<path d="M33.5822 20.0102C33.5565 19.8359 33.4533 19.577 33.0702 19.5232C33.0069 19.5143 32.9483 19.5149 32.8932 19.5216C32.6374 19.5522 32.4639 19.729 32.3604 19.8807C32.2839 19.9927 32.3545 20.1419 32.4974 20.1671C32.8879 20.2358 33.2777 20.2096 33.468 20.189C33.5399 20.1812 33.5933 20.1238 33.588 20.0584C33.5866 20.0431 33.5847 20.0271 33.5822 20.0102Z" fill="white"/>
</mask>
<g mask="url(#mask0_513_25767)">
<path d="M33.5822 20.0102C33.5565 19.8359 33.4533 19.577 33.0702 19.5232C33.0069 19.5143 32.9483 19.5149 32.8932 19.5216C32.6374 19.5522 32.4639 19.729 32.3604 19.8807C32.2839 19.9927 32.3545 20.1419 32.4974 20.1671C32.8879 20.2358 33.2777 20.2096 33.468 20.189C33.5399 20.1812 33.5933 20.1238 33.588 20.0584C33.5866 20.0431 33.5847 20.0271 33.5822 20.0102Z" fill="white"/>
</g>
<mask id="mask1_513_25767" style="mask-type:luminance" maskUnits="userSpaceOnUse" x="32" y="19" width="2" height="2">
<path d="M33.5822 20.0102C33.5565 19.8359 33.4533 19.577 33.0702 19.5232C33.0069 19.5143 32.9483 19.5149 32.8932 19.5216C32.6374 19.5522 32.4639 19.729 32.3604 19.8807C32.2839 19.9927 32.3545 20.1419 32.4974 20.1671C32.8879 20.2358 33.2777 20.2096 33.468 20.189C33.5399 20.1812 33.5933 20.1238 33.588 20.0584C33.5866 20.0431 33.5847 20.0271 33.5822 20.0102Z" fill="white"/>
</mask>
<g mask="url(#mask1_513_25767)">
<path d="M33.5325 20.0665C33.5325 20.2535 33.3484 20.4052 33.1214 20.4052C32.8943 20.4052 32.7102 20.2535 32.7102 20.0665C32.7102 19.8794 32.8943 19.7278 33.1214 19.7278C33.3484 19.7278 33.5325 19.8792 33.5325 20.0665Z" fill="#54132A"/>
</g>
<path d="M32.2021 19.095L32.1922 19.8201C32.1906 19.945 32.3174 20.0513 32.4804 20.0613C32.5969 20.0683 32.6861 20.1462 32.6794 20.2354C32.6587 20.5156 32.345 20.7245 31.9789 20.7024L31.6909 20.6849" fill="#FFA698"/>
<path d="M32.0329 20.8001C32.2129 20.8001 32.3848 20.7511 32.5218 20.6597C32.6799 20.5543 32.7737 20.406 32.7856 20.2416C32.7962 20.0998 32.6627 19.9757 32.4878 19.965C32.3823 19.9586 32.2975 19.894 32.2984 19.8211L32.3083 19.096C32.309 19.0427 32.2621 18.9992 32.2035 18.9985C32.2028 18.9985 32.2026 18.9985 32.2021 18.9985C32.1439 18.9985 32.0966 19.041 32.0959 19.0935L32.086 19.8186C32.0837 19.995 32.254 20.1437 32.4735 20.1571C32.5294 20.1606 32.5763 20.1939 32.5737 20.2287C32.5659 20.3354 32.5029 20.4335 32.3961 20.5043C32.2839 20.5791 32.1368 20.6145 31.9865 20.606L31.6988 20.5885C31.6356 20.5855 31.5894 20.6251 31.5857 20.678C31.5818 20.7311 31.6261 20.777 31.6845 20.7805L31.9723 20.798C31.9923 20.7995 32.0125 20.8001 32.0329 20.8001Z" fill="#FF755F"/>
<path d="M31.1535 21.6145C31.1535 21.6145 31.0379 20.8486 30.0349 21.0117L31.1535 21.6145Z" fill="#FFA698"/>
<path d="M31.1535 21.6924C31.1109 21.6924 31.0742 21.6641 31.0682 21.6251C31.0677 21.6224 31.0227 21.3533 30.7759 21.1917C30.5966 21.0742 30.3523 21.0394 30.0503 21.0884C30.002 21.0965 29.9586 21.0675 29.9501 21.0252C29.9418 20.9828 29.9728 20.9421 30.0197 20.9344C30.3709 20.8776 30.6598 20.9217 30.8788 21.0661C31.1852 21.2679 31.2369 21.5897 31.2387 21.6035C31.2452 21.6462 31.2125 21.6853 31.1654 21.6912C31.1613 21.6922 31.1574 21.6924 31.1535 21.6924Z" fill="#FF755F"/>
<mask id="mask2_513_25767" style="mask-type:luminance" maskUnits="userSpaceOnUse" x="30" y="19" width="2" height="2">
<path d="M31.6189 19.8519C31.5874 19.6388 31.4612 19.3224 30.9931 19.2568C30.9158 19.246 30.8444 19.2466 30.7768 19.2547C30.464 19.292 30.2521 19.5084 30.1257 19.6934C30.0321 19.8305 30.1185 20.0127 30.293 20.0433C30.7701 20.1273 31.2468 20.0952 31.4791 20.07C31.5669 20.0604 31.6322 19.9902 31.6258 19.9102C31.6244 19.8921 31.6219 19.8723 31.6189 19.8519Z" fill="white"/>
</mask>
<g mask="url(#mask2_513_25767)">
<path d="M31.6189 19.8519C31.5874 19.6388 31.4612 19.3224 30.9931 19.2568C30.9158 19.246 30.8444 19.2466 30.7768 19.2547C30.464 19.292 30.2521 19.5084 30.1257 19.6934C30.0321 19.8305 30.1185 20.0127 30.293 20.0433C30.7701 20.1273 31.2468 20.0952 31.4791 20.07C31.5669 20.0604 31.6322 19.9902 31.6258 19.9102C31.6244 19.8921 31.6219 19.8723 31.6189 19.8519Z" fill="white"/>
</g>
<mask id="mask3_513_25767" style="mask-type:luminance" maskUnits="userSpaceOnUse" x="30" y="19" width="2" height="2">
<path d="M31.6189 19.8519C31.5874 19.6388 31.4612 19.3224 30.9931 19.2568C30.9158 19.246 30.8444 19.2466 30.7768 19.2547C30.464 19.292 30.2521 19.5084 30.1257 19.6934C30.0321 19.8305 30.1185 20.0127 30.293 20.0433C30.7701 20.1273 31.2468 20.0952 31.4791 20.07C31.5669 20.0604 31.6322 19.9902 31.6258 19.9102C31.6244 19.8921 31.6219 19.8723 31.6189 19.8519Z" fill="white"/>
</mask>
<g mask="url(#mask3_513_25767)">
<path d="M31.5583 19.9204C31.5583 20.1492 31.3333 20.3345 31.0556 20.3345C30.778 20.3345 30.553 20.1492 30.553 19.9204C30.553 19.6917 30.778 19.5063 31.0556 19.5063C31.3333 19.5063 31.5583 19.6917 31.5583 19.9204Z" fill="#54132A"/>
</g>
<path d="M31.5519 18.8527C31.4685 18.8146 31.3573 18.8184 31.2495 18.8163C31.1408 18.8163 31.0318 18.814 30.9371 18.8088C30.8422 18.8038 30.7335 18.7944 30.6255 18.7827C30.5182 18.7732 30.4074 18.7575 30.321 18.7865C30.2375 18.8134 30.1985 18.9008 30.2876 19.016C30.3713 19.1279 30.6004 19.257 30.9144 19.2745C31.2281 19.2906 31.4687 19.1868 31.5627 19.0846C31.6625 18.9798 31.6324 18.8883 31.5519 18.8527Z" fill="#54132A"/>
<path d="M32.458 19.0367C32.5307 19.0006 32.6295 19.0006 32.7249 18.9956C32.8212 18.9925 32.9177 18.9873 33.0016 18.98C33.0855 18.9727 33.1816 18.9615 33.2769 18.9479C33.3719 18.9365 33.4693 18.9194 33.547 18.9425C33.6219 18.964 33.6596 19.0404 33.5845 19.1452C33.5144 19.2468 33.3156 19.3679 33.0379 19.3924C32.7603 19.4158 32.5435 19.3306 32.4567 19.2427C32.3645 19.1523 32.3882 19.0706 32.458 19.0367Z" fill="#54132A"/>
<g opacity="0.61">
<path d="M30.8005 22.6039C30.8005 22.6039 31.072 22.3763 31.3937 22.6039H30.8005Z" fill="#FFA698"/>
<path d="M31.3938 22.682C31.3752 22.682 31.3566 22.6766 31.341 22.6656C31.087 22.486 30.8813 22.6429 30.8588 22.6616C30.8241 22.6904 30.7692 22.6881 30.7374 22.6566C30.7053 22.625 30.7073 22.576 30.742 22.5469C30.8547 22.4525 31.1472 22.3302 31.4467 22.5427C31.4844 22.5691 31.4908 22.6183 31.4616 22.6523C31.4449 22.6718 31.4194 22.682 31.3938 22.682Z" fill="#FF755F"/>
</g>
<path d="M15.7593 41.4125C16.7023 38.9167 17.6453 36.4207 18.5883 33.9246C19.4212 31.72 20.0013 29.3269 21.5349 27.4066C22.3033 26.4445 23.3626 25.6555 24.6448 25.3482C26.1371 24.991 27.7248 25.2481 29.2456 25.2068C30.2021 25.181 31.1771 25.2245 32.138 25.2245C33.5953 25.2245 35.0102 25.7786 36.0093 26.7399C36.6241 27.3314 39.4462 34.3862 37.1267 35.6972C36.6172 35.9853 34.4604 33.4208 34.4604 33.4208L33.2226 39.0273H23.9631L23.1125 35.5135L19.3474 42.9899L15.7593 41.4125Z" fill="#111111"/>
<path d="M16.8852 41.0265L15.0123 41.331C14.6797 41.3852 14.3989 41.5866 14.2647 41.8676L13.4543 43.5631C13.2932 43.9001 13.4738 44.2907 13.8519 44.4232L14.2431 44.56L14.3908 43.3527L14.1799 45.0758C14.1562 45.2684 14.3446 45.4259 14.5506 45.3855C14.7344 45.3495 14.8852 45.2282 14.9486 45.0651L15.6149 43.3536L15.1394 45.3791C15.1054 45.524 15.2764 45.6359 15.4138 45.5586C15.9371 45.2637 16.3345 44.8119 16.5391 44.279L16.7167 43.816C16.7167 43.816 17.7475 44.3492 18.9983 43.9633C19.3973 43.8402 19.6673 43.5106 19.6942 43.1297C19.7494 42.3544 19.4444 41.0873 16.8852 41.0265Z" fill="#FFA698"/>
<path d="M14.1258 44.5222C14.1009 44.5063 14.0867 44.4784 14.0915 44.4489L14.2997 43.2005C14.3066 43.1597 14.3482 43.1316 14.3928 43.1378C14.4374 43.1443 14.4677 43.1824 14.4609 43.2234L14.2526 44.4718C14.2457 44.5126 14.2041 44.5407 14.1595 44.5345C14.1471 44.5328 14.1356 44.5284 14.1258 44.5222Z" fill="#FF8E77"/>
<path d="M15.316 43.4855C15.2875 43.4673 15.2737 43.434 15.2843 43.4019C15.2974 43.3624 15.3427 43.3399 15.3859 43.3517C15.3859 43.3517 15.5447 43.3959 15.721 43.4486C15.7644 43.4615 15.7874 43.5038 15.7734 43.543C15.7596 43.5825 15.7136 43.604 15.6709 43.5913C15.496 43.5394 15.3386 43.4955 15.3386 43.4955C15.3305 43.4932 15.3229 43.4898 15.316 43.4855Z" fill="#FF8E77"/>
<path d="M14.2069 43.1803C14.1784 43.1622 14.1646 43.1289 14.1752 43.0968C14.1883 43.0572 14.2336 43.0347 14.2768 43.0468C14.2768 43.0468 14.4356 43.0909 14.6119 43.1434C14.6544 43.1559 14.6783 43.1984 14.6643 43.2378C14.6505 43.2774 14.6045 43.2988 14.5618 43.2861C14.3871 43.2343 14.2299 43.1905 14.2294 43.1905C14.2211 43.1878 14.2136 43.1845 14.2069 43.1803Z" fill="#FF8E77"/>
<path d="M16.5963 43.9383C16.5662 43.9191 16.5529 43.8831 16.5662 43.8502C16.6112 43.74 16.6209 43.584 16.6209 43.5825C16.6232 43.541 16.6616 43.5092 16.7066 43.5115C16.7517 43.5138 16.7862 43.5492 16.7836 43.5904C16.7832 43.5977 16.7726 43.7708 16.7188 43.9031C16.7029 43.9418 16.6558 43.9616 16.6138 43.947C16.6076 43.9445 16.6016 43.9418 16.5963 43.9383Z" fill="#FF8E77"/>
<path d="M26.5486 24.8013C26.5486 26.3016 27.7334 27.5181 29.1946 27.5181C30.6559 27.5181 31.8407 26.3018 31.8407 24.8013C31.8407 24.7994 31.8407 24.7977 31.8407 24.7959C31.8391 24.5038 31.584 24.2693 31.2762 24.2641C30.2905 24.2474 28.1376 24.2499 27.1353 24.2524C26.8173 24.253 26.5502 24.4938 26.5486 24.7957C26.5486 24.7973 26.5486 24.7994 26.5486 24.8013Z" fill="#F8E643"/>
<path d="M36.6008 25.9723L34.4597 25.7286C34.1726 25.6959 33.969 25.4587 34.0048 25.1983L34.6366 20.6143C34.6725 20.3537 34.9347 20.1692 35.2222 20.2019L37.3633 20.4456C37.6504 20.4783 37.854 20.7155 37.8182 20.9759L37.1861 25.5599C37.1505 25.8203 36.8883 26.005 36.6008 25.9723Z" fill="#353148"/>
<path d="M34.268 23.5761C34.2317 23.7513 34.3096 23.9252 34.4411 23.9627L34.6548 24.0237C34.5491 24.0062 34.4415 24.0895 34.4064 24.2297C34.3896 24.2968 34.3949 24.3635 34.4126 24.4226C34.4068 24.453 34.4155 24.4786 34.4429 24.4976C34.4452 24.4991 34.4489 24.5018 34.4514 24.5034C34.4765 24.5399 34.5063 24.5705 34.5452 24.5847L34.5992 24.6042C34.9465 24.8382 35.7136 25.4168 36.3907 25.663L38.7037 24.9438C38.6865 24.4576 38.5828 23.3688 38.2988 22.946C38.1443 22.716 37.9977 22.4877 37.8221 22.4321L37.6343 22.2511C37.6054 22.4603 37.4997 22.6419 37.3489 22.7821C37.3254 22.7683 37.3031 22.7525 37.276 22.746L34.7796 22.1447C34.6187 22.1059 34.4601 22.2255 34.427 22.4107C34.4027 22.5475 34.4542 22.6827 34.5475 22.7598L34.4891 22.7454C34.3567 22.7125 34.2218 22.8298 34.1889 23.0058C34.1561 23.1818 34.2374 23.3528 34.3698 23.3857L34.3705 23.3859C34.3222 23.4311 34.2845 23.4967 34.268 23.5761ZM34.7617 24.0541L34.7725 24.0573L34.7718 24.0579L34.7617 24.0541Z" fill="#FFA698"/>
<path d="M35.5212 23.0145C35.5525 23.0158 35.5807 22.9966 35.5879 22.9681C35.5957 22.936 35.5736 22.9043 35.5382 22.8972L34.5033 22.6873C34.4665 22.6798 34.433 22.7002 34.4249 22.7323C34.4171 22.7644 34.4392 22.796 34.4746 22.8031L35.5095 23.0131C35.5136 23.0139 35.5173 23.0143 35.5212 23.0145Z" fill="#FB8E77"/>
<path d="M35.4408 23.6556C35.4709 23.6567 35.499 23.6388 35.5068 23.6115C35.516 23.5798 35.4951 23.5473 35.4601 23.539L34.567 23.3265C34.5302 23.3186 34.496 23.3372 34.487 23.3688C34.4778 23.4005 34.4988 23.433 34.5337 23.4413L35.4268 23.654C35.4316 23.6548 35.436 23.6554 35.4408 23.6556Z" fill="#FB8E77"/>
<path d="M35.424 24.2882C35.4531 24.2893 35.4805 24.2726 35.4895 24.246C35.4998 24.2147 35.4803 24.1814 35.4456 24.172L34.683 23.9641C34.6474 23.9545 34.6117 23.9725 34.6012 24.0039C34.5908 24.0352 34.6104 24.0685 34.6451 24.0779L35.4076 24.2857C35.4134 24.2874 35.4187 24.288 35.424 24.2882Z" fill="#FB8E77"/>
<path d="M38.9388 24.7323C39.1748 24.6197 39.4288 24.7728 39.4534 25.0427L40.1112 32.275C40.2909 34.5771 38.3847 36.5717 36.478 35.4692C35.4313 34.8639 34.8995 33.5699 35.0638 32.2389L35.8521 25.8538L35.9342 25.8242L38.8494 24.7748L38.9388 24.7323Z" fill="#111111"/>
<path d="M29.1526 28.1852V27.2212C29.1526 25.8263 27.9049 24.6954 26.3657 24.6954C26.3657 24.6954 25.1956 28.1467 29.1526 28.1852Z" fill="white"/>
<path d="M29.1379 28.1852V27.2212C29.1379 25.8263 30.3857 24.6954 31.9249 24.6954C31.9249 24.6954 33.0949 28.1467 29.1379 28.1852Z" fill="white"/>
<path d="M35.1798 34.344C35.1433 34.344 35.1072 34.3279 35.0849 34.2984L34.1127 33.0034C34.0771 32.9559 34.0904 32.8911 34.143 32.8586C34.1954 32.8265 34.2669 32.8384 34.3025 32.8861L35.2747 34.1811C35.3104 34.2286 35.297 34.2934 35.2444 34.3259C35.2246 34.3381 35.2021 34.344 35.1798 34.344Z" fill="#FDFDFD"/>
<path d="M35.4634 29.94C35.4595 29.94 35.4558 29.9398 35.4519 29.9395C35.3887 29.9339 35.3425 29.8829 35.3487 29.8256L35.7755 25.9067C35.7819 25.8496 35.841 25.8084 35.9012 25.8134C35.9644 25.819 36.0106 25.8701 36.0044 25.9273L35.5776 29.8462C35.5716 29.8998 35.5218 29.94 35.4634 29.94Z" fill="#FDFDFD"/>
<path d="M36.5344 26.5377C36.366 26.5377 36.2288 26.4133 36.2288 26.2606C36.2288 26.1079 36.366 25.9836 36.5344 25.9836C36.7029 25.9836 36.8401 26.1079 36.8401 26.2606C36.8401 26.4133 36.7031 26.5377 36.5344 26.5377ZM36.5344 26.1917C36.4926 26.1917 36.4586 26.2225 36.4586 26.2604C36.4586 26.2983 36.4926 26.3291 36.5344 26.3291C36.5763 26.3291 36.6103 26.2983 36.6103 26.2604C36.6103 26.2225 36.5763 26.1917 36.5344 26.1917Z" fill="#FDFDFD"/>
<path d="M23.2901 35.5469C23.2884 35.5469 23.2871 35.5469 23.2855 35.5467C23.222 35.5444 23.1726 35.4958 23.1751 35.4383L23.3558 31.3251C23.3583 31.2676 23.4132 31.2226 23.4753 31.2251C23.5387 31.2274 23.5881 31.276 23.5856 31.3334L23.405 35.4469C23.4024 35.5029 23.3517 35.5469 23.2901 35.5469Z" fill="#FDFDFD"/>
<path d="M32.7944 77.1209L32.7951 77.1382C32.8151 77.6317 32.8914 78.1218 33.0222 78.6011L33.278 79.5367L34.9307 79.2245L40.7068 78.1337L40.7018 78.112C40.5772 77.5702 40.127 77.138 39.5372 76.9943L34.9204 76.1332L32.7944 77.1209Z" fill="#111111"/>
<path d="M27.2133 77.4211L27.2165 77.4381C27.308 77.9249 27.3439 78.4188 27.3234 78.9123L27.2837 79.8756H19.6953V79.8535C19.6953 79.3001 20.0389 78.7937 20.5838 78.544L24.9097 76.8474L27.2133 77.4211Z" fill="#111111"/>
<path d="M36.1038 76.1799L35.9999 75.4975L35.2656 56.1134C33.6765 56.1605 31.3515 56.2294 29.0728 56.2967L32.7949 77.1382L36.2168 77.7031C36.9261 77.8202 37.8195 77.2992 38.2019 76.7454L36.1038 76.1799Z" fill="#FFA698"/>
<path d="M23.5807 74.7078L23.7485 77.1451L21.8347 78.0533C22.3337 78.5249 23.3256 78.8696 23.9938 78.6238L27.2167 77.4382L27.4334 74.7078L28.8944 56.3021C26.1457 56.3832 23.4969 56.4613 22.3268 56.4946L23.5807 74.7078Z" fill="#FFA698"/>
<path d="M35.8009 56.0976C36.6014 56.0738 37.2153 55.4908 37.1512 54.8155C36.8662 51.8111 36.1595 44.3686 36.1367 44.2022C35.9581 42.891 35.433 41.6281 34.5945 40.5195L33.9749 39.7005L33.3833 38.9183H24.1239L23.5321 39.7005L23.3677 39.918L22.9127 40.5197C21.763 42.0394 21.2027 43.8493 21.3163 45.6759L20.5707 55.3785C20.5254 55.9691 21.0322 56.4788 21.6994 56.5119C21.7061 56.5123 21.9336 56.5058 22.3266 56.4946C23.4967 56.4611 26.1457 56.3832 28.8943 56.3021C28.9538 56.3005 29.0133 56.2986 29.0728 56.2969C31.3516 56.2296 33.6766 56.1607 35.2656 56.1136C35.4548 56.1078 35.6341 56.1026 35.8009 56.0976Z" fill="#F8E643"/>
<path d="M33.8734 39.7513H24.0531C23.9897 39.7513 23.9382 39.7047 23.9382 39.6472C23.9382 39.5897 23.9897 39.543 24.0531 39.543H33.8734C33.9368 39.543 33.9883 39.5897 33.9883 39.6472C33.9883 39.7047 33.9368 39.7513 33.8734 39.7513Z" fill="#F95A4E"/>
<path d="M34.7974 41.1344H30.3993C30.3359 41.1344 30.2844 41.0878 30.2844 41.0303C30.2844 40.9728 30.3359 40.9261 30.3993 40.9261H34.7974C34.8608 40.9261 34.9123 40.9728 34.9123 41.0303C34.9123 41.088 34.8608 41.1344 34.7974 41.1344Z" fill="#F95A4E"/>
<path d="M28.2502 54.6577C28.1882 54.6577 28.1374 54.6131 28.1353 54.5568C28.1332 54.4996 28.1831 54.4512 28.2466 54.4494L37.0424 54.1944C37.1001 54.1938 37.159 54.2379 37.161 54.2952C37.1631 54.3525 37.1132 54.4008 37.0498 54.4027L28.2539 54.6577C28.2528 54.6577 28.2514 54.6577 28.2502 54.6577Z" fill="#F95A4E"/>
<path d="M96.3437 75.908L96.3318 79.6209L105.12 79.644C105.122 78.9364 104.595 78.3174 103.839 78.1409L101.616 77.6221C101.442 77.5814 101.284 77.499 101.158 77.3831L100.307 75.8901L96.3437 75.908Z" fill="#353148"/>
<path d="M100.345 77.7495C100.312 77.7495 100.281 77.7324 100.267 77.7033C100.247 77.6637 100.267 77.6177 100.31 77.6002L101.085 77.2857C101.128 77.2677 101.18 77.2852 101.199 77.325C101.219 77.3644 101.199 77.4106 101.156 77.4281L100.38 77.7427C100.369 77.7472 100.357 77.7495 100.345 77.7495Z" fill="#EAEAEA"/>
<path d="M100.072 77.164C100.039 77.164 100.008 77.1469 99.9937 77.1178C99.9741 77.0784 99.9937 77.0321 100.037 77.0146L100.812 76.7001C100.855 76.6824 100.907 76.6997 100.926 76.7393C100.945 76.7789 100.926 76.8249 100.883 76.8424L100.108 77.1569C100.096 77.1619 100.084 77.164 100.072 77.164Z" fill="#EAEAEA"/>
<path d="M105.122 79.4713L96.333 79.4482L96.3315 79.9046L105.12 79.9277L105.122 79.4713Z" fill="#141C34"/>
<path d="M91.4736 75.908L91.4856 79.6209L82.6973 79.644C82.695 78.9364 83.2227 78.3174 83.9788 78.1409L86.2013 77.6221C86.375 77.5814 86.5334 77.499 86.6593 77.3831L87.5106 75.8901L91.4736 75.908Z" fill="#353148"/>
<path d="M87.4719 77.7496C87.46 77.7496 87.448 77.7473 87.4367 77.7427L86.6618 77.4282C86.6183 77.4107 86.599 77.3644 86.6183 77.3251C86.6376 77.2855 86.6891 77.2682 86.7321 77.2857L87.5071 77.6002C87.5503 77.6177 87.5698 77.664 87.5503 77.7033C87.5363 77.7325 87.505 77.7496 87.4719 77.7496Z" fill="#EAEAEA"/>
<path d="M87.7451 77.164C87.7332 77.164 87.7212 77.1617 87.7099 77.1571L86.935 76.8426C86.8915 76.8251 86.8722 76.7789 86.8915 76.7395C86.9108 76.6999 86.9621 76.6828 87.0053 76.7003L87.7803 77.0149C87.8235 77.0324 87.843 77.0786 87.8235 77.118C87.8095 77.1469 87.778 77.164 87.7451 77.164Z" fill="#EAEAEA"/>
<path d="M82.6973 79.9269L91.4858 79.9038L91.4844 79.4474L82.6959 79.4705L82.6973 79.9269Z" fill="#141C34"/>
<path d="M101.004 43.6227C101.004 43.6227 86.9742 43.6535 86.9775 43.8764L86.6272 75.8332C86.6304 76.0599 86.8508 76.2425 87.122 76.2429L92.2355 76.2504C92.5019 76.2509 92.7209 76.0751 92.7315 75.8524L94.0593 47.406L95.5607 75.8663C95.5722 76.0838 95.7901 76.2557 96.0553 76.2561L100.638 76.2629C100.909 76.2634 101.13 76.0844 101.134 75.8618L101.223 43.857C101.226 43.6989 101.177 43.6918 101.004 43.6227Z" fill="#111111"/>
<path d="M87.4934 76.2071C87.4927 76.2071 87.492 76.2071 87.4913 76.2071C87.4279 76.2061 87.3773 76.1586 87.3784 76.1011L87.9408 48.145C87.942 48.0875 88.0027 48.0477 88.0578 48.0427C88.1213 48.0438 88.1718 48.0913 88.1707 48.1487L87.6083 76.1048C87.6071 76.1617 87.5559 76.2071 87.4934 76.2071Z" fill="#FDFDFD"/>
<path d="M89.3144 76.3044H89.3135C89.25 76.304 89.199 76.2569 89.1995 76.1994L89.3066 63.6772C89.307 63.6202 89.3585 63.5739 89.4215 63.5739H89.4224C89.4858 63.5743 89.5369 63.6214 89.5364 63.6789L89.4293 76.2011C89.4288 76.2581 89.3774 76.3044 89.3144 76.3044Z" fill="#FDFDFD"/>
<path d="M84.9887 23.2996L87.6895 22.8737C87.9299 22.8357 88.091 22.6283 88.0492 22.4102L87.0382 17.1451C86.9963 16.9272 86.7674 16.7812 86.5268 16.8191L83.8263 17.2451C83.5856 17.283 83.4247 17.4904 83.4666 17.7085L84.4776 22.9736C84.5194 23.1917 84.7483 23.3377 84.9887 23.2996Z" fill="#29292C"/>
<path d="M88.0397 21.4683L88.0386 21.3879C88.0351 21.125 87.7973 20.9144 87.5072 20.9175L86.8864 20.9242L87.3507 20.9192C87.6161 20.9163 87.829 20.719 87.8258 20.4785C87.8218 20.1806 87.5592 19.9379 87.2305 19.9315C86.8563 19.9242 86.3564 19.945 85.8899 20.0631C84.988 20.2914 84.7803 20.1098 84.7803 20.1098C84.7803 20.1098 84.5932 20.0941 84.3199 19.1858C84.0466 18.2774 82.695 18.4505 83.0643 19.0297C83.4337 19.609 83.1567 20.1835 83.1567 20.1835L82.9878 20.5526L82.9326 20.6732C82.7936 20.9773 82.758 21.3096 82.8255 21.6285C82.6819 22.4689 82.5291 23.8693 82.5291 23.8693L85.9609 24.1203L85.9478 23.6891L86.4245 23.6841C86.777 23.6804 87.0595 23.4183 87.0554 23.0988C87.0542 23.0057 86.9699 22.9311 86.8671 22.9322L86.6913 22.9341L87.1507 22.9293C87.4743 22.9257 87.7338 22.6851 87.7299 22.3919L87.729 22.3308C87.7262 22.1146 87.5304 21.9413 87.2919 21.9438L86.6584 21.9505L87.5304 21.9411C87.815 21.9378 88.0429 21.7261 88.0397 21.4683Z" fill="#FFA698"/>
<path d="M87.5334 20.9967H86.7605C86.7129 20.9967 86.6743 20.9617 86.6743 20.9186C86.6743 20.8754 86.7129 20.8405 86.7605 20.8405H87.5334C87.581 20.8405 87.6196 20.8754 87.6196 20.9186C87.6196 20.9617 87.581 20.9967 87.5334 20.9967Z" fill="#FF755F"/>
<path d="M87.463 22.0297C87.4618 22.0297 87.4607 22.0297 87.4595 22.0295L86.687 22.002C86.6395 22.0003 86.6025 21.964 86.6043 21.9209C86.6059 21.8778 86.6466 21.8412 86.6939 21.8459L87.4664 21.8734C87.514 21.8751 87.551 21.9113 87.5491 21.9545C87.5473 21.9967 87.5089 22.0297 87.463 22.0297Z" fill="#FF755F"/>
<path d="M86.9713 23.0072C86.9701 23.0072 86.969 23.0072 86.9678 23.0072L86.1954 22.9797C86.1478 22.978 86.1108 22.9418 86.1126 22.8987C86.1145 22.8555 86.1563 22.8197 86.2023 22.8237L86.9747 22.8512C87.0223 22.8528 87.0593 22.8891 87.0574 22.9322C87.0556 22.9743 87.0172 23.0072 86.9713 23.0072Z" fill="#FF755F"/>
<path d="M99.1128 45.0027C99.1128 45.0027 98.301 45.5236 98.1819 46.2037C98.0629 46.8838 98.6209 47.9667 98.6209 47.9667L99.1128 45.0027Z" fill="#FFA698"/>
<path opacity="0.57" d="M99.004 45.9261L98.5732 47.8691C98.5732 47.8691 98.6176 46.0623 99.004 45.9261Z" fill="#FF755F"/>
<path d="M97.1915 49.0032H96.6471C96.6087 49.0032 96.5735 48.9233 96.5388 48.8401L96.5393 55.6744H97.192L97.1915 49.0032Z" fill="#323233"/>
<path d="M103.719 49.0026L103.719 55.6737H104.372L104.371 48.9393C104.357 48.9526 104.344 49.0022 104.329 49.0022L103.719 49.0026Z" fill="#323233"/>
<path d="M107.278 78.9394L94.2743 79.0502C93.5512 79.0564 92.9596 78.5301 92.9527 77.875L92.7339 56.8854C92.7271 56.2301 93.3078 55.6939 94.0309 55.6877L107.035 55.5768C107.758 55.5706 108.349 56.097 108.356 56.7521L108.575 77.7417C108.582 78.397 108.001 78.9333 107.278 78.9394Z" fill="#F8E643"/>
<path opacity="0.49" d="M95.5906 75.039C94.8117 75.039 94.1744 74.4693 94.167 73.7632L93.991 56.872L94.2208 56.8699L94.3968 73.7611C94.4031 74.3531 94.9376 74.8307 95.5906 74.8307C95.5945 74.8307 95.5984 74.8307 95.6023 74.8307L105.862 74.7432C106.181 74.7405 106.48 74.6257 106.703 74.4197C106.927 74.2139 107.048 73.9417 107.045 73.6534L106.869 56.762L107.099 56.7599L107.275 73.6513C107.279 73.9954 107.134 74.3202 106.867 74.5658C106.601 74.8113 106.245 74.9482 105.865 74.9515L95.6046 75.039C95.5998 75.039 95.5952 75.039 95.5906 75.039Z" fill="white"/>
<path opacity="0.49" d="M106.828 79.1604H94.481V78.6244C94.481 78.1187 94.9349 77.7075 95.4927 77.7075H105.816C106.374 77.7075 106.828 78.1189 106.828 78.6244L106.828 79.1604ZM94.7108 78.9521H106.598V78.6244C106.598 78.2337 106.247 77.9158 105.816 77.9158H95.4929C95.0617 77.9158 94.711 78.2337 94.711 78.6244V78.9521H94.7108Z" fill="white"/>
<path d="M106.321 78.2456C106.618 78.8621 106.307 79.5801 105.625 79.849C104.943 80.1179 104.149 79.8363 103.852 79.2198C103.554 78.6032 103.866 77.8852 104.548 77.6163C105.23 77.3472 106.023 77.6288 106.321 78.2456Z" fill="#141C34"/>
<path opacity="0.27" d="M105.774 78.4614C105.939 78.8047 105.766 79.2044 105.386 79.3542C105.006 79.5039 104.564 79.3471 104.399 79.0038C104.233 78.6605 104.407 78.2608 104.786 78.111C105.166 77.9611 105.608 78.1181 105.774 78.4614Z" fill="#A2D5F2"/>
<path d="M97.7326 78.2456C98.03 78.8621 97.7186 79.5801 97.0367 79.849C96.3548 80.1179 95.561 79.8363 95.2636 79.2198C94.9661 78.6032 95.2778 77.8852 95.9595 77.6163C96.6414 77.3472 97.4352 77.6288 97.7326 78.2456Z" fill="#141C34"/>
<path opacity="0.27" d="M97.1857 78.4614C97.3514 78.8047 97.1779 79.2044 96.7982 79.3542C96.4185 79.5039 95.9766 79.3471 95.8108 79.0038C95.6451 78.6605 95.8187 78.2608 96.1984 78.111C96.578 77.9611 97.02 78.1181 97.1857 78.4614Z" fill="#A2D5F2"/>
<path opacity="0.49" d="M96.6161 72.8361H96.269C96.0268 72.8361 95.8298 72.6576 95.8298 72.4381V58.9165C95.8298 58.6969 96.0268 58.5184 96.269 58.5184H96.6161C96.8586 58.5184 97.0555 58.6969 97.0555 58.9165V72.4381C97.0555 72.6576 96.8586 72.8361 96.6161 72.8361ZM96.269 58.7267C96.1537 58.7267 96.0597 58.8119 96.0597 58.9165V72.4381C96.0597 72.5426 96.1537 72.6278 96.269 72.6278H96.6161C96.7317 72.6278 96.8257 72.5426 96.8257 72.4381V58.9165C96.8257 58.8119 96.7317 58.7267 96.6161 58.7267H96.269Z" fill="white"/>
<path opacity="0.49" d="M104.509 72.8361H104.162C103.92 72.8361 103.723 72.6576 103.723 72.4381V58.9165C103.723 58.6969 103.92 58.5184 104.162 58.5184H104.509C104.752 58.5184 104.949 58.6969 104.949 58.9165V72.4381C104.949 72.6576 104.752 72.8361 104.509 72.8361ZM104.162 58.7267C104.047 58.7267 103.953 58.8119 103.953 58.9165V72.4381C103.953 72.5426 104.047 72.6278 104.162 72.6278H104.509C104.625 72.6278 104.719 72.5426 104.719 72.4381V58.9165C104.719 58.8119 104.625 58.7267 104.509 58.7267H104.162Z" fill="white"/>
<path opacity="0.49" d="M100.811 72.8361H100.464C100.221 72.8361 100.024 72.6576 100.024 72.4381V58.9165C100.024 58.6969 100.221 58.5184 100.464 58.5184H100.811C101.053 58.5184 101.25 58.6969 101.25 58.9165V72.4381C101.25 72.6576 101.053 72.8361 100.811 72.8361ZM100.464 58.7267C100.348 58.7267 100.254 58.8119 100.254 58.9165V72.4381C100.254 72.5426 100.348 72.6278 100.464 72.6278H100.811C100.926 72.6278 101.02 72.5426 101.02 72.4381V58.9165C101.02 58.8119 100.926 58.7267 100.811 58.7267H100.464Z" fill="white"/>
<path d="M97.1918 49.132H97.2789C97.4763 49.132 97.6365 48.9872 97.6365 48.8085C97.6365 48.6287 97.7992 48.4817 97.998 48.4817L102.979 48.4815C103.176 48.4815 103.337 48.6262 103.337 48.8049C103.337 48.9847 103.499 49.1318 103.698 49.1318H103.719H104.329C104.344 49.1318 104.357 49.1257 104.372 49.1241C104.548 49.1043 104.687 48.9735 104.687 48.8083V48.0084C104.687 48.0063 104.688 48.0043 104.688 48.0022C104.76 47.6177 104.424 47.2731 104.023 47.2731L96.95 47.2736C96.5489 47.2736 96.2129 47.6183 96.2846 48.0026C96.2851 48.0047 96.2853 48.0068 96.286 48.0088V48.8052C96.286 48.9503 96.3938 49.0697 96.539 49.1122C96.5737 49.1224 96.6091 49.1322 96.6473 49.1322L97.1918 49.132Z" fill="#141C34"/>
<path d="M100.232 49.0405L100.147 49.0436C99.8691 49.0536 99.6349 48.8578 99.6238 48.6062L99.6002 48.0676L99.6179 48.4704C99.628 48.7008 99.4301 48.8949 99.1761 48.9043C98.8613 48.9157 98.5921 48.6999 98.5691 48.4152C98.5429 48.0911 98.5402 47.6566 98.6418 47.2462C98.838 46.4528 99.1265 44.6573 99.1265 44.6573L99.5751 43.358L103.621 44.0608L102.491 47.5308C102.505 47.8368 102.242 48.0946 101.904 48.1069C101.806 48.1105 101.723 48.0411 101.719 47.9519L101.712 47.7993L101.73 48.1977C101.742 48.4787 101.501 48.7154 101.191 48.7266L101.127 48.7289C100.898 48.7372 100.706 48.576 100.696 48.369L100.672 47.8193L100.705 48.5758C100.716 48.8224 100.504 49.0305 100.232 49.0405Z" fill="#FFA698"/>
<path opacity="0.57" d="M99.7085 47.8805C99.7039 47.8274 99.6538 47.787 99.5947 47.7891C99.5345 47.7916 99.4876 47.8378 99.4904 47.8924L99.5251 48.6106C99.5214 48.6629 99.5786 48.7079 99.6391 48.7054C99.6993 48.7029 99.7462 48.6566 99.7434 48.6021L99.7087 47.8839C99.7087 47.8828 99.7085 47.8816 99.7085 47.8805Z" fill="#FF755F"/>
<path opacity="0.57" d="M100.834 48.5585C100.834 48.5579 100.834 48.5575 100.833 48.5571L100.739 47.6531C100.734 47.5985 100.68 47.5587 100.62 47.5637C100.56 47.5687 100.523 47.6185 100.522 47.6716L100.616 48.5756C100.621 48.6302 100.675 48.67 100.735 48.665C100.794 48.66 100.838 48.6125 100.834 48.5585Z" fill="#FF755F"/>
<path opacity="0.57" d="M101.773 47.38C101.768 47.3268 101.718 47.2864 101.659 47.2887C101.599 47.2912 101.552 47.3375 101.555 47.3922L101.588 48.0673C101.586 48.1211 101.641 48.164 101.702 48.1619C101.762 48.1594 101.809 48.1132 101.806 48.0584L101.773 47.3833C101.773 47.382 101.773 47.381 101.773 47.38Z" fill="#FF755F"/>
<path d="M95.1451 12.7994C94.7705 12.5095 94.2602 12.2995 93.5733 12.2164C93.5473 12.1716 93.52 12.1276 93.4903 12.0856C93.1591 11.6157 92.602 11.3147 91.9946 11.2266C90.0991 10.9512 89.5356 12.0868 88.2297 12.8223C85.7443 14.2223 88.1842 16.7979 88.3228 16.1996C88.3644 16.0201 88.5568 15.6939 88.7156 15.5533C88.7751 15.5004 88.8394 15.4533 88.9059 15.4089C89.1663 15.5416 89.4689 15.6122 89.7896 15.5943C90.215 15.5706 90.5896 15.3981 90.8604 15.1375C92.4005 15.2136 93.2759 14.9588 93.7656 14.6872C93.9157 14.8345 94.0323 15.0105 94.0939 15.2054C94.215 15.5885 94.1577 16.0076 94.166 16.4011C94.1699 16.5825 92.9925 17.8064 93.1033 18.5161C93.2237 19.287 94.0107 19.8234 94.8613 19.7142C95.7119 19.6051 96.3037 18.8919 96.1833 18.121C96.1343 17.8068 95.9732 17.5329 95.7436 17.3244L96.4361 15.0042C96.7866 14.045 96.1591 13.0562 95.1451 12.7994Z" fill="#54132A"/>
<path d="M95.1163 17.1057L94.952 17.1034C94.952 17.1034 94.4618 17.1209 94.3574 17.5679C94.3418 17.6344 94.1738 17.0091 94.1719 16.9453C94.1669 16.7639 94.1699 16.5823 94.166 16.4008C94.1577 16.0074 94.2147 15.5883 94.0938 15.2052C93.9605 14.7834 93.578 14.4433 93.1269 14.3139C93.0986 14.3058 93.0639 14.2989 93.0249 14.2931C92.8451 14.6964 92.4236 14.9921 91.9129 15.0207C91.6176 15.0371 91.3402 14.9609 91.1129 14.8209C90.8582 15.2542 90.3701 15.562 89.7895 15.5943C89.1926 15.6276 88.653 15.3614 88.3452 14.9396C88.2791 15.1492 88.2388 15.3687 88.2349 15.597L88.2319 15.762C88.2319 15.7622 88.2319 15.7624 88.2319 15.7624L88.1848 18.448L88.1623 19.7282V19.7284L88.1593 19.8983C88.1393 21.0429 88.9099 22.0301 90.0131 22.4381L89.9768 23.8274C89.9481 24.9262 90.9074 25.8379 92.1195 25.864L92.701 25.8765C93.9134 25.9025 94.9193 25.0331 94.9481 23.9343L95.0701 19.2776L95.0784 19.2778C95.6629 19.2862 96.1441 18.8637 96.1533 18.334L96.1579 18.0799C96.1669 17.5504 95.7008 17.114 95.1163 17.1057Z" fill="#FFA698"/>
<path opacity="0.46" d="M94.3926 19.8179C94.368 21.2164 93.0972 22.3323 91.5539 22.31L90.9118 22.3008C89.3687 22.2785 88.1377 21.1269 88.1621 19.7284L88.1591 19.8983C88.1382 21.095 88.9807 22.1207 90.165 22.491C90.1545 23.0053 90.6743 23.485 91.3935 23.5946C92.1692 23.7129 92.8821 23.3558 92.9858 22.7974C93.006 22.6887 93.0009 22.5804 92.975 22.4754C94.0837 22.0959 94.8812 21.1348 94.9012 19.9954L94.9138 19.2751L94.4022 19.2678L94.3926 19.8179Z" fill="#FF755F"/>
<path d="M95.3372 18.6236C95.3207 18.6236 95.3037 18.6203 95.2878 18.6136L94.7852 18.397L95.1467 17.7296C95.1747 17.6779 95.2439 17.6569 95.3007 17.6819C95.3577 17.7073 95.3811 17.7696 95.3533 17.8212L95.094 18.2993L95.3864 18.4253C95.4436 18.4501 95.4682 18.5122 95.4406 18.5642C95.4213 18.6017 95.38 18.6236 95.3372 18.6236Z" fill="#FF755F"/>
<path d="M90.5462 21.2616C90.5179 21.2616 90.4897 21.2523 90.4676 21.2335C90.457 21.2246 90.2164 21.0277 89.936 21.1617C89.8806 21.1883 89.8105 21.1692 89.7806 21.1181C89.751 21.0673 89.7726 21.0044 89.8287 20.9773C90.2571 20.7728 90.6103 21.069 90.6253 21.0819C90.6712 21.1212 90.6733 21.1873 90.6299 21.2291C90.6071 21.2508 90.5768 21.2616 90.5462 21.2616Z" fill="#FF755F"/>
<mask id="mask4_513_25767" style="mask-type:luminance" maskUnits="userSpaceOnUse" x="88" y="17" width="3" height="2">
<path d="M88.4639 17.7833C88.4953 17.5688 88.6227 17.2503 89.0941 17.1838C89.1717 17.173 89.2439 17.1736 89.3119 17.1817C89.6268 17.2192 89.8403 17.4371 89.9676 17.6235C90.0619 17.7614 89.975 17.9449 89.7992 17.976C89.3186 18.0605 88.8387 18.0283 88.6045 18.0028C88.516 17.9933 88.4503 17.9226 88.4567 17.842C88.4583 17.8237 88.4609 17.8039 88.4639 17.7833Z" fill="white"/>
</mask>
<g mask="url(#mask4_513_25767)">
<path d="M88.4639 17.7833C88.4953 17.5688 88.6227 17.2503 89.0941 17.1838C89.1717 17.173 89.2439 17.1736 89.3119 17.1817C89.6268 17.2192 89.8403 17.4371 89.9676 17.6235C90.0619 17.7614 89.975 17.9449 89.7992 17.976C89.3186 18.0605 88.8387 18.0283 88.6045 18.0028C88.516 17.9933 88.4503 17.9226 88.4567 17.842C88.4583 17.8237 88.4609 17.8039 88.4639 17.7833Z" fill="white"/>
</g>
<mask id="mask5_513_25767" style="mask-type:luminance" maskUnits="userSpaceOnUse" x="88" y="17" width="3" height="2">
<path d="M88.4639 17.7833C88.4953 17.5688 88.6227 17.2503 89.0941 17.1838C89.1717 17.173 89.2439 17.1736 89.3119 17.1817C89.6268 17.2192 89.8403 17.4371 89.9676 17.6235C90.0619 17.7614 89.975 17.9449 89.7992 17.976C89.3186 18.0605 88.8387 18.0283 88.6045 18.0028C88.516 17.9933 88.4503 17.9226 88.4567 17.842C88.4583 17.8237 88.4609 17.8039 88.4639 17.7833Z" fill="white"/>
</mask>
<g mask="url(#mask5_513_25767)">
<path d="M89.031 18.2693C89.3105 18.2693 89.5371 18.0826 89.5371 17.8523C89.5371 17.6219 89.3105 17.4352 89.031 17.4352C88.7515 17.4352 88.5249 17.6219 88.5249 17.8523C88.5249 18.0826 88.7515 18.2693 89.031 18.2693Z" fill="#54132A"/>
</g>
<path d="M90.9484 19.6996C90.9445 19.6996 90.9406 19.6994 90.9365 19.699C90.8894 19.6929 90.8565 19.6538 90.8632 19.6111C90.8657 19.5946 90.928 19.2057 91.2982 18.9618C91.5637 18.7871 91.9142 18.7335 92.3403 18.8029C92.3872 18.8106 92.4182 18.8512 92.4099 18.8937C92.4017 18.936 92.3582 18.9643 92.3099 18.9568C91.9328 18.8956 91.6269 18.9395 91.4014 19.0872C91.0907 19.2907 91.0346 19.6292 91.0339 19.6325C91.0277 19.6713 90.991 19.6996 90.9484 19.6996Z" fill="#FF755F"/>
<mask id="mask6_513_25767" style="mask-type:luminance" maskUnits="userSpaceOnUse" x="90" y="16" width="3" height="2">
<path d="M90.8804 17.5884C90.919 17.3261 91.0743 16.9368 91.6505 16.8558C91.7454 16.8424 91.8337 16.8433 91.9169 16.8533C92.3017 16.8991 92.5627 17.1655 92.7183 17.3932C92.8335 17.5617 92.7273 17.786 92.5124 17.8239C91.9249 17.9273 91.3387 17.8877 91.0525 17.8568C90.9443 17.8452 90.864 17.7587 90.8719 17.6604C90.8737 17.6379 90.8767 17.6136 90.8804 17.5884Z" fill="white"/>
</mask>
<g mask="url(#mask6_513_25767)">
<path d="M90.8804 17.5884C90.919 17.3261 91.0743 16.9368 91.6505 16.8558C91.7454 16.8424 91.8337 16.8433 91.9169 16.8533C92.3017 16.8991 92.5627 17.1655 92.7183 17.3932C92.8335 17.5617 92.7273 17.786 92.5124 17.8239C91.9249 17.9273 91.3387 17.8877 91.0525 17.8568C90.9443 17.8452 90.864 17.7587 90.8719 17.6604C90.8737 17.6379 90.8767 17.6136 90.8804 17.5884Z" fill="white"/>
</g>
<mask id="mask7_513_25767" style="mask-type:luminance" maskUnits="userSpaceOnUse" x="90" y="16" width="3" height="2">
<path d="M90.8804 17.5884C90.919 17.3261 91.0743 16.9368 91.6505 16.8558C91.7454 16.8424 91.8337 16.8433 91.9169 16.8533C92.3017 16.8991 92.5627 17.1655 92.7183 17.3932C92.8335 17.5617 92.7273 17.786 92.5124 17.8239C91.9249 17.9273 91.3387 17.8877 91.0525 17.8568C90.9443 17.8452 90.864 17.7587 90.8719 17.6604C90.8737 17.6379 90.8767 17.6136 90.8804 17.5884Z" fill="white"/>
</mask>
<g mask="url(#mask7_513_25767)">
<path d="M90.9551 17.6727C90.9551 17.9541 91.232 18.1822 91.5736 18.1822C91.9151 18.1822 92.192 17.9541 92.192 17.6727C92.192 17.3913 91.9151 17.1632 91.5736 17.1632C91.232 17.1632 90.9551 17.3913 90.9551 17.6727Z" fill="#54132A"/>
</g>
<path d="M90.8647 16.4546C90.9819 16.4011 91.1386 16.4063 91.2903 16.4033C91.4432 16.4033 91.5967 16.4 91.73 16.3927C91.8635 16.3856 92.0166 16.3725 92.1683 16.3561C92.3195 16.3427 92.4751 16.3207 92.5969 16.3615C92.7144 16.3992 92.7693 16.5225 92.6436 16.6845C92.5259 16.842 92.2034 17.0237 91.7615 17.0484C91.32 17.0711 90.9814 16.9251 90.8491 16.781C90.7091 16.6333 90.7516 16.5048 90.8647 16.4546Z" fill="#54132A"/>
<path d="M90.0455 16.5719C89.9442 16.5213 89.8058 16.5215 89.6721 16.5146C89.5374 16.5102 89.4022 16.5029 89.285 16.4927C89.1676 16.4825 89.0331 16.4667 88.8998 16.4479C88.7672 16.4319 88.6307 16.4081 88.522 16.4404C88.4172 16.4704 88.3645 16.5775 88.4696 16.7237C88.5677 16.8658 88.8456 17.0351 89.2342 17.0695C89.6224 17.1022 89.9258 16.983 90.0474 16.8599C90.1763 16.7337 90.1434 16.6194 90.0455 16.5719Z" fill="#54132A"/>
<path d="M90.6061 18.8773L90.1373 18.8452C89.7987 18.8221 89.5475 18.5236 89.5765 18.1787L89.5802 18.1345C89.5935 17.9762 89.7302 17.8564 89.8856 17.8671C90.1527 17.8854 90.3876 17.6796 90.4103 17.4076L90.4611 16.7568" fill="#FFA698"/>
<path d="M90.6061 18.9554C90.6041 18.9554 90.6018 18.9554 90.5997 18.9552L90.1308 18.9231C89.7454 18.8966 89.4581 18.56 89.4905 18.1728L89.4944 18.1284C89.5029 18.0266 89.5547 17.9312 89.6362 17.8677C89.7091 17.8108 89.8015 17.7833 89.892 17.7891C89.9939 17.7956 90.0984 17.761 90.1798 17.69C90.2635 17.6164 90.3149 17.5142 90.3244 17.4017L90.3752 16.7512C90.3786 16.7083 90.4204 16.6772 90.4671 16.6787C90.5147 16.6818 90.5503 16.7191 90.5471 16.762L90.4963 17.4129C90.4836 17.564 90.414 17.7023 90.2993 17.8022C90.1823 17.9047 90.0343 17.9558 89.8789 17.9449C89.8328 17.9416 89.7866 17.9564 89.7486 17.986C89.7013 18.0228 89.6712 18.0791 89.6664 18.1403L89.6624 18.1847C89.6374 18.4859 89.8532 18.7473 90.1439 18.7671L90.6128 18.7992C90.6601 18.8025 90.6958 18.84 90.6923 18.8829C90.6886 18.9241 90.6507 18.9554 90.6061 18.9554Z" fill="#FF755F"/>
<path d="M105.723 35.1137L100.838 25.9874L100.831 25.9962C100.186 24.9241 99.0011 24.1476 97.5771 23.9926L95.327 23.8616L91.6488 24.7216L90.0386 23.5539L87.1885 24.4717L87.2025 24.0061C87.2082 23.813 87.0609 23.6439 86.8525 23.6043L82.5955 22.7949C82.4843 22.7736 82.3772 22.8424 82.3638 22.9446C82.2701 23.6547 82.1487 24.7239 82.0607 25.3598C81.9095 26.4511 81.7582 27.5422 81.607 28.6334C81.4231 29.9605 80.949 32.2142 81.5459 33.5161C82.4153 35.4131 84.1152 36.4104 85.4585 35.8488C85.9835 35.6295 86.3979 34.6555 86.6681 33.6344L86.6599 44.3708L98.9781 44.3629L98.9126 44.6152C98.8196 44.9745 99.0303 45.3415 99.4084 45.4786L102.296 46.525C102.739 46.6854 103.236 46.4605 103.361 46.0437L105.962 37.3644C106.187 36.6128 106.102 35.8126 105.723 35.1137Z" fill="#F8E643"/>
<path d="M94.5218 24.6315H89.6218V44.3973H94.5218V24.6315Z" fill="white"/>
<path d="M98.9535 44.4409C98.9448 44.4409 98.9358 44.44 98.9269 44.438C98.8651 44.4246 98.8269 44.3684 98.8418 44.3124L100.609 37.6185L96.7872 29.9891C96.761 29.9368 96.7865 29.8749 96.8442 29.8512C96.9023 29.8276 96.9701 29.8505 96.9963 29.9028L100.851 37.5975L99.065 44.3607C99.0528 44.4088 99.0057 44.4409 98.9535 44.4409Z" fill="#F95A4E"/>
<path d="M86.3249 25.1647C86.2652 25.1647 86.2061 25.1524 86.1512 25.128C86.0563 25.0859 85.9848 25.0128 85.9505 24.922C85.9163 24.8314 85.923 24.7339 85.9694 24.6479C86.0156 24.5619 86.0965 24.4973 86.1965 24.4661C86.2967 24.435 86.404 24.4408 86.4989 24.4829C86.5941 24.525 86.6653 24.5981 86.6996 24.6889C86.7338 24.7795 86.7271 24.8768 86.6807 24.9628C86.6345 25.0491 86.5538 25.1136 86.4539 25.1449C86.4118 25.1582 86.3681 25.1647 86.3249 25.1647ZM86.3254 24.6548C86.3072 24.6548 86.2891 24.6575 86.2714 24.6631C86.2291 24.6762 86.1955 24.7033 86.176 24.7393C86.1565 24.7756 86.1535 24.8166 86.1682 24.8545C86.1827 24.8926 86.2123 24.9233 86.2523 24.941C86.2921 24.9587 86.3371 24.9614 86.3794 24.9481C86.4215 24.9349 86.455 24.9081 86.4746 24.8718C86.4941 24.8356 86.4971 24.7945 86.4824 24.7566C86.4679 24.7185 86.4382 24.6879 86.3983 24.6702C86.3753 24.66 86.3502 24.6548 86.3254 24.6548Z" fill="#F95A4E"/>
<path d="M86.6765 26.3518C86.671 26.3518 86.6652 26.3516 86.6597 26.3507L83.6558 25.9521C83.5931 25.9437 83.5494 25.8908 83.5586 25.834C83.568 25.7769 83.6273 25.7369 83.6889 25.7461L86.6928 26.1447C86.7555 26.1531 86.7992 26.206 86.79 26.2628C86.7815 26.3145 86.7326 26.3518 86.6765 26.3518Z" fill="#F95A4E"/>
<path d="M87.3921 30.2715C87.3296 30.2715 87.2785 30.2263 87.2772 30.1696L87.1321 24.0066C87.1294 23.888 87.0853 23.8074 86.8736 23.7706L86.2813 23.6916C86.2186 23.6833 86.1749 23.6304 86.1841 23.5735C86.1935 23.5166 86.2546 23.4773 86.3144 23.4856L86.912 23.5652C87.2066 23.6164 87.3565 23.7633 87.362 24.0022L87.507 30.1653C87.5084 30.2228 87.458 30.2704 87.3946 30.2717C87.3937 30.2715 87.3928 30.2715 87.3921 30.2715Z" fill="#F95A4E"/>
<path d="M102.786 45.7027C102.568 45.7027 102.39 45.5417 102.39 45.3436C102.39 45.1458 102.568 44.9847 102.786 44.9847C103.004 44.9847 103.182 45.1455 103.182 45.3436C103.182 45.5417 103.004 45.7027 102.786 45.7027ZM102.786 45.1932C102.695 45.1932 102.62 45.2607 102.62 45.3438C102.62 45.427 102.694 45.4947 102.786 45.4947C102.878 45.4947 102.953 45.4272 102.953 45.3438C102.952 45.2607 102.878 45.1932 102.786 45.1932Z" fill="#F95A4E"/>
<path d="M103.8 44.2923C103.789 44.2923 103.777 44.2907 103.765 44.2875L100.873 43.4502C100.813 43.4327 100.78 43.3742 100.799 43.3192C100.818 43.2644 100.883 43.2348 100.943 43.2517L103.835 44.089C103.896 44.1065 103.929 44.1651 103.91 44.2201C103.894 44.264 103.849 44.2923 103.8 44.2923Z" fill="#F95A4E"/>
<path d="M90.6325 26.0566L91.6693 24.7387L91.6491 24.7214L91.7222 24.6714L91.7247 24.6683L89.9297 22.7091C89.7769 22.5422 89.516 22.6449 89.4847 22.8844L89.3064 24.2446L90.2266 26.0176C90.2986 26.1562 90.4551 26.1907 90.5714 26.1122C90.593 26.0974 90.6141 26.0799 90.6325 26.0566Z" fill="#F8F8EE"/>
<path d="M91.6492 24.7216L91.6694 24.7389L93.2065 26.0393L93.3741 26.1812C93.5375 26.3195 93.8202 26.3132 93.9679 26.1681L95.8218 24.3465L95.0272 22.6828C94.9808 22.5856 94.8229 22.5537 94.7236 22.6216L91.7225 24.6719L91.6492 24.7216Z" fill="#F8F8EE"/>
<path d="M93.2064 26.0393L91.6693 24.739L90.6325 26.0568C90.6143 26.08 90.5932 26.0977 90.5711 26.1125L90.8729 26.9009C90.9311 27.061 91.0129 27.1931 91.1085 27.3035L90.1209 34.4493C90.1021 34.5855 90.1285 34.7239 90.197 34.8463L91.242 36.7152C91.3698 36.9439 91.627 37.0893 91.9099 37.0926L92.2213 37.0963C92.5399 37.1003 92.8274 36.9237 92.9414 36.6541L93.6895 34.8863C93.7355 34.7778 93.7504 34.6603 93.7327 34.5451L92.6364 27.3668C92.7725 27.2335 92.8849 27.059 92.9543 26.8392L93.2064 26.0393Z" fill="#111111"/>
<path d="M92.5241 27.4704C92.5232 27.4704 92.522 27.4704 92.5211 27.4704L91.1754 27.4385C91.112 27.437 91.0619 27.3891 91.0635 27.3316C91.0651 27.2744 91.1265 27.2287 91.1814 27.2302L92.5269 27.2621C92.5903 27.2635 92.6404 27.3114 92.6388 27.3689C92.6374 27.4256 92.5862 27.4704 92.5241 27.4704Z" fill="#FDFDFD"/>
</svg>
