<svg width="120" height="80" viewBox="0 0 120 80" fill="none" xmlns="http://www.w3.org/2000/svg">
<path d="M30.7442 20.4572C29.4913 18.8187 27.7655 18.9349 27.7655 18.9349C24.0421 18.753 23.8671 22.225 23.987 22.8745C24.0184 23.0446 24.0514 23.2009 24.0862 23.348C23.7799 23.2239 23.3966 23.2587 22.9328 23.5493C21.9072 24.1922 21.9877 27.9575 24.6706 26.3378C24.8131 26.2518 24.9127 26.0622 24.9686 25.8176C24.9775 25.8411 24.9864 25.8642 24.9955 25.8882C25.2393 26.531 28.6859 28.0075 30.5431 24.949C31.2032 23.8619 31.9972 22.0957 30.7442 20.4572Z" fill="#111111"/>
<path d="M25.9491 24.4147C25.9491 24.4147 24.347 27.681 24.1537 27.7847C21.3393 29.2946 21.2763 30.8304 20.9878 30.734C20.6993 30.6375 24.8428 32.5266 24.8428 32.5266L27.5244 32.8107L28.1799 30.8359C28.1799 30.8359 26.8169 29.6027 26.7084 29.0518C26.5999 28.5009 28.0861 26.1352 28.0861 26.1352L25.9491 24.4147Z" fill="white"/>
<path d="M27.5889 32.9287L24.8198 32.6354L24.8068 32.6294C24.8068 32.6294 23.8372 32.1873 22.8686 31.7418C22.3062 31.483 21.8583 31.2757 21.5375 31.1255C21.3559 31.0404 21.2047 30.9689 21.0993 30.9178C20.8984 30.8204 20.8506 30.7973 20.8818 30.6947C20.8849 30.6844 20.915 30.5946 21.0152 30.628C21.0414 30.616 21.1154 30.4872 21.1806 30.3735C21.4808 29.8506 22.1049 28.7629 24.108 27.6871C24.2719 27.5386 25.2707 25.5715 25.8646 24.3607L25.9172 24.2535L28.222 26.1092L28.1651 26.1997C27.6003 27.0988 26.731 28.6616 26.8031 29.0275C26.8859 29.4482 27.8686 30.4131 28.2404 30.7494L28.2959 30.7996L27.5889 32.9287ZM24.8657 32.418L27.4598 32.6929L28.0643 30.872C27.7818 30.6116 26.7173 29.602 26.6137 29.076C26.5082 28.5403 27.6075 26.7144 27.9507 26.1616L25.9812 24.5758C25.4691 25.6172 24.388 27.7813 24.195 27.8848C22.2381 28.9346 21.6335 29.9882 21.3429 30.4945C21.2904 30.586 21.2446 30.6656 21.1996 30.7262C21.7706 31.0012 23.5939 31.8381 24.8657 32.418ZM24.1123 27.6848C24.1122 27.6848 24.1121 27.6849 24.1119 27.685C24.1121 27.6848 24.1122 27.6848 24.1125 27.6847L24.1123 27.6848Z" fill="#111111"/>
<path d="M25.6697 25.0189C25.4738 24.5402 25.1657 23.6334 25.4138 23.1305C25.6618 22.6276 26.1231 23.0279 26.2318 23.2103C26.3041 23.3318 27.5202 20.7994 27.5202 20.7994L30.9692 22.9215C30.9692 22.9215 30.3307 25.382 29.4835 26.6576C28.6327 27.9385 27.895 27.9094 27.0006 27.3475C26.5576 27.0691 26.2759 26.7266 26.0913 26.3838L25.6697 25.0189Z" fill="white"/>
<path d="M28.0235 27.8274C27.6503 27.8274 27.2949 27.6586 26.9539 27.4444C26.5475 27.189 26.2294 26.8517 26.0086 26.4418C25.9806 26.3897 25.9949 26.3216 26.0405 26.2897C26.0863 26.2578 26.1459 26.2741 26.174 26.326C26.3769 26.7029 26.6709 27.014 27.0475 27.2507C27.884 27.7763 28.5704 27.8493 29.4062 26.5909C30.1447 25.479 30.7318 23.4199 30.8532 22.9758L27.559 20.949C26.4197 23.3153 26.3055 23.3217 26.2439 23.3251C26.206 23.3265 26.1724 23.3074 26.1516 23.2725C26.0901 23.1693 25.8964 22.9889 25.725 22.9971C25.6326 23.0016 25.5584 23.063 25.4983 23.1848C25.3343 23.5173 25.4288 24.1688 25.7576 24.9722C25.7803 25.0276 25.7593 25.0934 25.7108 25.1192C25.6623 25.1452 25.6045 25.1211 25.5819 25.0658C25.3266 24.4421 25.0755 23.5907 25.3292 23.0764C25.4468 22.838 25.6049 22.7816 25.7169 22.7762C25.9185 22.7653 26.1251 22.9157 26.245 23.0562C26.4301 22.7805 26.9704 21.7142 27.4352 20.7465L27.4815 20.65L31.0846 22.8669L31.0622 22.953C31.0359 23.0542 30.4089 25.4475 29.5608 26.7245C29.0142 27.5474 28.5041 27.8273 28.0235 27.8274Z" fill="#111111"/>
<path d="M31.055 23.0556C31.055 23.0556 27.7894 21.9523 26.2969 23.2157C26.2969 23.2157 26.1592 22.9871 26.0165 22.9048C25.8326 22.7988 25.7346 22.8231 25.7346 22.8231L27.4364 20.1368L31.055 23.0556Z" fill="#111111"/>
<path d="M23.1061 28.0884C22.3473 27.642 17.3311 33.8319 16.2087 36.3846C13.912 41.6075 20.2544 40.398 20.2544 40.398L19.3952 34.1717L19.8286 43.2527L26.5615 43.7614L28.1453 35.4315C28.1453 35.4315 28.3302 40.4183 30.7648 40.4183C32.2246 40.4183 34.2904 40.4183 34.2904 40.4183L34.5034 38.1462L31.0551 37.692C31.0551 37.692 30.473 32.4814 29.0004 30.7422C28.3054 29.9213 27.7335 29.4381 27.4335 29.3547C26.5306 29.1037 26.9595 30.3548 23.1061 28.0884Z" fill="#F8E643"/>
<path d="M29.532 25.2216C29.5101 25.2216 29.4878 25.2165 29.4665 25.2057C29.3849 25.1644 29.3481 25.0555 29.3843 24.9625L29.4363 24.8288C29.4726 24.7358 29.5679 24.6937 29.6496 24.7351C29.7313 24.7763 29.7681 24.8853 29.7318 24.9783L29.6798 25.112C29.6531 25.1806 29.594 25.2216 29.532 25.2216Z" fill="#111111"/>
<path d="M27.7954 24.3675C27.7735 24.3675 27.7512 24.3625 27.7299 24.3517C27.6483 24.3104 27.6115 24.2015 27.6478 24.1085L27.6997 23.9747C27.7359 23.8817 27.8314 23.8396 27.913 23.881C27.9946 23.9223 28.0314 24.0312 27.9952 24.1242L27.9432 24.258C27.9165 24.3267 27.8573 24.3675 27.7954 24.3675Z" fill="#111111"/>
<path d="M28.6859 23.7139C28.6559 23.7139 28.6264 23.6982 28.6074 23.6685C28.5939 23.6477 28.29 23.192 27.6497 23.2861C27.597 23.2942 27.5479 23.2512 27.5411 23.1906C27.5342 23.13 27.5717 23.0746 27.6249 23.0667C28.3839 22.9549 28.749 23.5145 28.7642 23.5384C28.7957 23.5878 28.786 23.6569 28.7426 23.6928C28.7254 23.7071 28.7056 23.7139 28.6859 23.7139Z" fill="#111111"/>
<path d="M28.9194 25.8668C28.8283 25.8668 28.6782 25.8323 28.4264 25.7138C28.377 25.6905 28.3534 25.6259 28.3738 25.5695C28.3942 25.5131 28.4508 25.4861 28.5005 25.5094C28.6626 25.5856 28.8398 25.6441 28.9129 25.6475C28.9122 25.6225 28.9085 25.585 28.9051 25.5507C28.8893 25.391 28.8628 25.1238 28.9364 24.6865C29.0016 24.2987 29.0967 24.0755 29.2355 23.9842C29.3462 23.9114 29.455 23.9411 29.5274 23.9698C29.9426 24.1348 30.2417 24.5888 30.2542 24.6081C30.2861 24.6571 30.2771 24.7263 30.2342 24.7627C30.1912 24.7991 30.1305 24.789 30.0985 24.74C30.0957 24.7358 29.8215 24.3209 29.4635 24.1787C29.4035 24.1549 29.3655 24.154 29.3324 24.1758C29.2851 24.2069 29.1956 24.32 29.1269 24.7281C29.0589 25.1324 29.0833 25.3786 29.0979 25.5258C29.1096 25.644 29.1187 25.7373 29.0607 25.81C29.0458 25.8287 29.0153 25.8668 28.9194 25.8668Z" fill="#111111"/>
<path d="M28.1255 40.043C27.3409 39.9662 23.9792 40.4845 23.9792 40.4845L24.2627 38.4138C24.2627 38.4138 27.93 39.1254 28.2073 39.0345C28.7281 38.8637 29.4747 38.7859 30.0902 38.7585C30.9044 38.7223 32.2222 39.1955 32.21 39.4479C32.2034 39.584 30.5527 39.3352 30.2719 39.4637C29.4786 39.8266 28.6847 40.0978 28.1255 40.043Z" fill="white"/>
<path d="M23.8633 40.614L24.182 38.286L24.279 38.3048C25.6792 38.5765 27.9767 38.986 28.1809 38.9281C28.6751 38.7661 29.4228 38.6775 30.0865 38.648C30.7892 38.6168 32.0301 39.0222 32.2339 39.2584C32.2984 39.3331 32.3091 39.406 32.3067 39.454C32.2983 39.6264 32.0937 39.6304 31.5993 39.6398C31.3244 39.6451 30.4283 39.5113 30.3079 39.5664C30.1807 39.6246 30.055 39.6839 29.9314 39.7423C29.2827 40.0487 28.61 40.2018 28.1171 40.1532C27.352 40.0784 24.0257 40.5889 23.9921 40.594L23.8633 40.614ZM24.3434 38.5416L24.0951 40.3553C24.728 40.2598 27.4263 39.8635 28.1338 39.9329C28.58 39.976 29.231 39.8337 29.8572 39.5379C29.9815 39.4793 30.1079 39.4196 30.2358 39.3611C30.3893 39.2909 31.2752 39.4248 31.5961 39.4186C31.761 39.4155 31.9742 39.4114 32.0827 39.3943C31.9509 39.2729 30.8457 38.8362 30.0941 38.8691C29.4451 38.8979 28.7146 38.9832 28.2342 39.1408C27.9623 39.23 25.1327 38.6939 24.3434 38.5416Z" fill="#111111"/>
<path d="M45.0327 31.9689L43.3606 39.6887H33.595L35.5721 31.9689H45.0327Z" fill="#EBF4FE"/>
<path d="M43.4399 39.8041H33.46L35.4962 31.8535H45.162L43.4399 39.8041ZM33.73 39.5733H43.2813L44.9034 32.0844H35.648L33.73 39.5733Z" fill="#111111"/>
<path d="M43.352 39.6887H30.6682V40.4183H43.352V39.6887Z" fill="#423E49"/>
<path d="M43.4489 40.5289H30.571V39.5781H43.4489V40.5289ZM30.765 40.3077H43.2549V39.7993H30.765V40.3077Z" fill="#1B2746"/>
<path d="M38.5092 36.0518C38.4642 36.6499 38.7741 37.1686 39.2013 37.2104C39.6285 37.2522 40.0113 36.8012 40.0563 36.2031C40.1013 35.6051 39.7914 35.0864 39.3642 35.0446C38.9369 35.0028 38.5542 35.4537 38.5092 36.0518Z" fill="#423E49"/>
<path d="M39.2567 37.3237C39.2354 37.3237 39.2141 37.3226 39.1928 37.3206C38.713 37.2736 38.3629 36.7002 38.4124 36.0424C38.436 35.7278 38.5465 35.4399 38.7235 35.2313C38.9056 35.0167 39.1357 34.9112 39.3723 34.9344C39.6086 34.9576 39.8198 35.1062 39.9673 35.353C40.1105 35.5928 40.1763 35.8981 40.1527 36.2126C40.1291 36.5271 40.0186 36.8151 39.8416 37.0236C39.6759 37.2188 39.4703 37.3237 39.2567 37.3237ZM39.3091 35.1525C39.1481 35.1525 38.9913 35.2339 38.8629 35.3851C38.7169 35.5572 38.6255 35.7973 38.6056 36.0612C38.5653 36.5975 38.8361 37.0636 39.2094 37.1002C39.3862 37.1172 39.5614 37.0356 39.7021 36.8698C39.8482 36.6978 39.9395 36.4576 39.9593 36.1937C39.9793 35.9296 39.9251 35.6753 39.8069 35.4775C39.6929 35.2866 39.5327 35.1721 39.3557 35.1547C39.3402 35.1533 39.3245 35.1525 39.3091 35.1525Z" fill="#1B2746"/>
<path d="M22.3242 28.2837L23.5773 27.5738L25.6286 29.1299L24.737 29.9391L22.3242 28.2837Z" fill="#F8E643"/>
<path d="M28.0924 29.7376L27.5009 28.6511L25.6287 29.1299L26.1147 30.1799L28.0924 29.7376Z" fill="#F8E643"/>
<path d="M28.2489 29.8154L27.547 28.526L25.6479 29.0116L23.5845 27.4463L22.1228 28.2744L24.7449 30.0734L25.529 29.3618C25.4403 31.0267 24.8874 40.9495 24.1793 43.5581C24.1651 43.6107 24.1909 43.6665 24.2371 43.6828C24.2457 43.6858 24.2544 43.6873 24.263 43.6873C24.3003 43.6873 24.3348 43.6598 24.3464 43.6171C25.0427 41.0518 25.5872 31.5274 25.6961 29.5123L26.0627 30.3042L28.2489 29.8154ZM24.7295 29.8048L22.526 28.293L23.5703 27.7013L25.4641 29.1379L24.7295 29.8048ZM27.4549 28.7762L27.936 29.66L26.1668 30.0555L25.7736 29.2061L27.4549 28.7762Z" fill="#111111"/>
<path d="M19.2963 36.7488L25.5551 38.0269L24.8261 40.4844C24.8261 40.4844 20.4915 40.6275 19.5635 40.4844C17.836 40.2184 15.9893 38.4831 15.9893 38.4831L19.2963 36.7488Z" fill="#F8E643"/>
<path d="M24.8644 40.4583C24.8549 40.4583 24.845 40.4566 24.8355 40.4528C24.7882 40.4345 24.7628 40.3761 24.7788 40.3221L25.4351 38.1098L19.6829 37.0698L21.3223 33.9213C21.3478 33.8724 21.4033 33.8563 21.4462 33.8853C21.4892 33.9144 21.5033 33.9776 21.4779 34.0266L19.9745 36.9137L25.6752 37.9444L24.9502 40.3883C24.9374 40.4311 24.9021 40.4583 24.8644 40.4583Z" fill="#111111"/>
<path d="M27.5508 25.7575C27.5508 25.7575 27.9929 27.0202 28.7724 26.3779C28.7724 26.3779 28.6422 26.118 28.3146 26.1133C28.3146 26.1133 28.0756 25.8419 27.5508 25.7575Z" fill="#F8E643"/>
<path d="M51.5671 79.8894H11.2779L7.10767 40.418H55.8904L51.5671 79.8894Z" fill="#E5E5E5"/>
<path d="M51.762 80H11.3013L7.10767 40.3074H56.1096L56.096 40.4317L51.762 80ZM11.4733 79.7788H51.5908L55.8899 40.5286H7.32634L11.4733 79.7788Z" fill="#1B2746"/>
<path d="M89.2105 58.5275H70.2218C69.0089 58.5275 68.0256 57.4064 68.0256 56.0233V47.2914C68.0256 45.9084 69.0089 44.7872 70.2218 44.7872H89.2105C90.4233 44.7872 91.4066 45.9084 91.4066 47.2914V56.0233C91.4066 57.4064 90.4233 58.5275 89.2105 58.5275Z" fill="#423E49"/>
<path d="M112.591 58.5275H93.6026C92.3897 58.5275 91.4065 57.4064 91.4065 56.0233V47.2914C91.4065 45.9084 92.3897 44.7872 93.6026 44.7872H112.591C113.804 44.7872 114.787 45.9084 114.787 47.2914V56.0233C114.787 57.4064 113.804 58.5275 112.591 58.5275Z" fill="#423E49"/>
<path d="M67.2309 67.0518H64.8385C64.3995 67.0518 64.0437 66.646 64.0437 66.1455V53.94C64.0437 53.4395 64.3995 53.0338 64.8385 53.0338H67.2309C67.6698 53.0338 68.0257 53.4395 68.0257 53.94V66.1455C68.0257 66.646 67.6698 67.0518 67.2309 67.0518Z" fill="#423E49"/>
<path d="M117.975 67.0518H115.582C115.143 67.0518 114.787 66.646 114.787 66.1455V53.94C114.787 53.4395 115.143 53.0338 115.582 53.0338H117.975C118.414 53.0338 118.769 53.4395 118.769 53.94V66.1455C118.769 66.646 118.414 67.0518 117.975 67.0518Z" fill="#423E49"/>
<path d="M113.659 65.347H69.1541C68.5308 65.347 68.0256 64.771 68.0256 64.0604V59.8142C68.0256 59.1036 68.5308 58.5275 69.1541 58.5275H113.659C114.282 58.5275 114.787 59.1036 114.787 59.8142V64.0604C114.787 64.771 114.282 65.347 113.659 65.347Z" fill="#423E49"/>
<path d="M117.975 52.9232H115.582C115.3 52.9232 115.048 53.0742 114.884 53.3087V47.2915C114.884 45.8496 113.856 44.6766 112.591 44.6766H93.6025C92.5671 44.6766 91.6903 45.4634 91.4065 46.5399C91.1225 45.4633 90.2457 44.6766 89.2103 44.6766H70.2216C68.9572 44.6766 67.9286 45.8496 67.9286 47.2915V53.3087C67.765 53.0742 67.5133 52.9232 67.2307 52.9232H64.8383C64.3466 52.9232 63.9465 53.3794 63.9465 53.94V66.1454C63.9465 66.7061 64.3466 67.1624 64.8383 67.1624H67.2307C67.7224 67.1624 68.1225 66.7061 68.1225 66.1454V64.8118C68.3405 65.1995 68.7209 65.4577 69.1539 65.4577H113.659C114.092 65.4577 114.472 65.1995 114.69 64.8118V66.1454C114.69 66.7061 115.09 67.1624 115.582 67.1624H117.974C118.466 67.1624 118.866 66.7061 118.866 66.1454V53.94C118.866 53.3794 118.466 52.9232 117.975 52.9232ZM91.5035 47.2915C91.5035 45.9716 92.4451 44.8978 93.6026 44.8978H112.591C113.749 44.8978 114.69 45.9716 114.69 47.2915V53.94V56.0234C114.69 57.3431 113.749 58.4169 112.591 58.4169H93.6026C92.4452 58.4169 91.5035 57.3432 91.5035 56.0234V47.2915ZM114.69 59.0628C114.472 58.675 114.092 58.4168 113.659 58.4168H113.51C114.036 58.1534 114.459 57.6729 114.69 57.0741V59.0628ZM92.6804 58.4168H90.1326C90.7416 58.1105 91.2125 57.5104 91.4065 56.7748C91.6005 57.5104 92.0713 58.1105 92.6804 58.4168ZM68.1226 53.94V47.2915C68.1226 45.9716 69.0642 44.8978 70.2217 44.8978H89.2104C90.3678 44.8978 91.3095 45.9715 91.3095 47.2915V56.0233C91.3095 57.343 90.3679 58.4168 89.2104 58.4168H70.2217C69.0643 58.4168 68.1226 57.3431 68.1226 56.0233V53.94ZM69.3027 58.4168H69.154C68.721 58.4168 68.3406 58.675 68.1226 59.0627V57.0741C68.354 57.6729 68.7774 58.1534 69.3027 58.4168ZM67.9286 66.1454C67.9286 66.5842 67.6155 66.9412 67.2308 66.9412H64.8384C64.4536 66.9412 64.1406 66.5842 64.1406 66.1454V53.94C64.1406 53.5012 64.4536 53.1444 64.8384 53.1444H67.2308C67.6155 53.1444 67.9286 53.5012 67.9286 53.94V56.0233V59.8142V64.0603V66.1454ZM113.659 65.2365H69.154C68.5852 65.2365 68.1226 64.7088 68.1226 64.0603V59.8142C68.1226 59.1657 68.5852 58.638 69.154 58.638H70.2217H89.2104H93.6026H112.591H113.659C114.228 58.638 114.69 59.1657 114.69 59.8142V64.0603C114.69 64.7088 114.228 65.2365 113.659 65.2365ZM118.672 66.1454C118.672 66.5842 118.359 66.9412 117.975 66.9412H115.582C115.197 66.9412 114.884 66.5842 114.884 66.1454V64.0603V59.8142V56.0233V53.94C114.884 53.5012 115.197 53.1444 115.582 53.1444H117.975C118.359 53.1444 118.672 53.5012 118.672 53.94V66.1454Z" fill="#1B2746"/>
<path d="M71.0199 65.347L68.0093 79.8894H69.6284L72.7402 65.347H71.0199Z" fill="#111111"/>
<path d="M111.999 65.347L115.01 79.8894H113.391L110.279 65.347H111.999Z" fill="#111111"/>
<path d="M75.3106 49.5397C75.5845 49.4103 75.7146 49.0522 75.6011 48.7399C75.4877 48.4276 75.1737 48.2793 74.8998 48.4086C74.6259 48.538 74.4958 48.8961 74.6092 49.2084C74.7227 49.5207 75.0367 49.6691 75.3106 49.5397Z" fill="#111111"/>
<path d="M75.6348 54.7548C75.6823 54.4211 75.4835 54.1067 75.1909 54.0525C74.8982 53.9984 74.6225 54.225 74.575 54.5587C74.5275 54.8924 74.7262 55.2068 75.0189 55.261C75.3115 55.3151 75.5873 55.0885 75.6348 54.7548Z" fill="#111111"/>
<path d="M84.2867 49.407C84.4963 49.168 84.4963 48.7804 84.2867 48.5414C84.077 48.3023 83.7372 48.3023 83.5275 48.5414C83.3179 48.7804 83.3179 49.168 83.5275 49.407C83.7372 49.646 84.077 49.646 84.2867 49.407Z" fill="#111111"/>
<path d="M84.4309 54.806C84.499 54.477 84.3203 54.1473 84.0318 54.0696C83.7433 53.9919 83.4542 54.1957 83.3861 54.5247C83.3179 54.8537 83.4966 55.1833 83.7851 55.261C84.0736 55.3387 84.3628 55.135 84.4309 54.806Z" fill="#111111"/>
<path d="M98.7487 54.6489C98.8169 54.3199 98.6382 53.9903 98.3497 53.9126C98.0612 53.8349 97.7721 54.0386 97.7039 54.3676C97.6358 54.6966 97.8145 55.0263 98.103 55.104C98.3915 55.1817 98.6806 54.9779 98.7487 54.6489Z" fill="#111111"/>
<path d="M105.083 29.1142C105.429 28.6625 106.671 28.2745 107.493 28.3382C107.99 28.3768 110.311 31.9023 110.846 34.9239C111.231 37.0949 109.931 39.052 109.931 39.052C109.931 39.052 103.222 40.9511 103.861 40.3372C105.498 38.7633 104.15 34.8724 104.15 34.8724C104.15 34.8724 104.283 30.1602 105.083 29.1142Z" fill="#111111"/>
<path d="M109.076 33.8853C109.076 33.8853 109.051 37.5121 109.178 37.6981C109.612 38.3348 110.224 38.8905 110.507 38.9663C110.79 39.0419 110.006 43.6516 110.006 43.6516L105.163 41.7739L104.482 39.2913C104.482 39.2913 105.859 38.6719 106.181 38.2672C106.502 37.8625 106.558 34.1715 106.558 34.1715L109.076 33.8853Z" fill="white"/>
<path d="M110.08 43.7971L105.085 41.8605L104.363 39.226L104.446 39.1883C104.824 39.0186 105.857 38.5089 106.109 38.1928C106.325 37.9205 106.44 35.5805 106.461 34.1696L106.463 34.0711L109.174 33.7629L109.173 33.886C109.162 35.5606 109.188 37.4359 109.259 37.6358C109.682 38.2548 110.277 38.7913 110.529 38.8584C110.647 38.89 110.794 38.9292 110.458 41.3544C110.299 42.505 110.103 43.661 110.101 43.6725L110.08 43.7971ZM105.241 41.6873L109.932 43.506C110.268 41.5083 110.548 39.3624 110.457 39.0655C110.124 38.9535 109.514 38.3706 109.102 37.766C108.977 37.5833 108.97 35.388 108.979 34.0075L106.653 34.2718C106.641 34.9445 106.569 37.9434 106.253 38.3415C105.963 38.7054 104.91 39.2123 104.601 39.3557L105.241 41.6873Z" fill="#111111"/>
<path d="M108.846 34.3911C109.138 34.0038 109.633 33.2512 109.518 32.7088C109.402 32.1664 108.881 32.4015 108.738 32.539C108.642 32.6306 108.091 29.9091 108.091 29.9091L104.392 30.8558C104.392 30.8558 104.422 33.3379 104.918 34.7788C105.416 36.2257 106.11 36.4189 107.072 36.1625C107.548 36.0355 107.889 35.8006 108.14 35.5365L108.846 34.3911Z" fill="white"/>
<path d="M106.435 36.3708C105.824 36.3708 105.248 36.0394 104.828 34.8192C104.331 33.3762 104.296 30.9595 104.295 30.8573L104.294 30.7676L108.164 29.7772L108.186 29.8843C108.395 30.9198 108.653 32.0694 108.762 32.3863C108.907 32.2918 109.132 32.2156 109.318 32.2849C109.422 32.3236 109.557 32.4241 109.612 32.6828C109.731 33.2391 109.301 33.9581 108.919 34.4633C108.885 34.5097 108.823 34.5148 108.783 34.4749C108.742 34.4351 108.737 34.3652 108.772 34.319C109.263 33.6699 109.5 33.0926 109.424 32.735C109.396 32.6049 109.342 32.5265 109.258 32.4952C109.102 32.4373 108.881 32.5463 108.8 32.6236C108.772 32.6508 108.734 32.659 108.699 32.6457C108.631 32.6198 108.577 32.5994 108.274 31.2359C108.164 30.745 108.062 30.2524 108.019 30.0411L104.491 30.9439C104.502 31.3997 104.577 33.4858 105.008 34.7384C105.497 36.1574 106.152 36.294 107.05 36.0547C107.454 35.9469 107.799 35.7452 108.074 35.4552C108.114 35.4138 108.175 35.4165 108.211 35.4614C108.248 35.5062 108.245 35.5762 108.206 35.6177C107.906 35.934 107.532 36.1535 107.094 36.2701C106.873 36.3289 106.652 36.3708 106.435 36.3708Z" fill="#111111"/>
<path d="M105.323 33.6425C105.248 33.6425 105.181 33.5827 105.165 33.4957L105.14 33.3571C105.122 33.2574 105.178 33.1599 105.265 33.1392C105.353 33.1186 105.438 33.1824 105.456 33.2821L105.482 33.4207C105.5 33.5203 105.444 33.6179 105.356 33.6387C105.345 33.6413 105.334 33.6425 105.323 33.6425Z" fill="#111111"/>
<path d="M107.049 33.0688C106.969 33.0688 106.9 33.0026 106.889 32.9108L106.871 32.7708C106.858 32.67 106.92 32.5765 107.008 32.562C107.097 32.5478 107.178 32.6175 107.191 32.7182L107.209 32.8582C107.221 32.959 107.16 33.0524 107.072 33.0669C107.064 33.0682 107.056 33.0688 107.049 33.0688Z" fill="#111111"/>
<path d="M106.568 32.2757C106.529 32.2757 106.493 32.2493 106.477 32.206C106.458 32.1492 106.482 32.0849 106.532 32.0623C106.553 32.0527 107.056 31.8292 107.496 32.0606C107.544 32.0863 107.566 32.152 107.543 32.2074C107.521 32.263 107.463 32.287 107.414 32.2615C107.05 32.0695 106.608 32.2659 106.603 32.2679C106.592 32.2732 106.579 32.2757 106.568 32.2757Z" fill="#111111"/>
<path d="M106.134 34.2305C106.029 34.2305 105.886 34.1858 105.831 34.1445C105.741 34.0774 105.753 33.9874 105.758 33.9613C105.832 33.6318 105.83 33.5237 105.829 33.387C105.828 33.3208 105.827 33.2459 105.835 33.1405C105.839 33.0796 105.887 33.0347 105.939 33.0393C105.992 33.0442 106.032 33.0976 106.028 33.1585C106.021 33.2534 106.022 33.3198 106.023 33.3841C106.024 33.5248 106.026 33.6471 105.956 33.9709C106.002 33.9924 106.096 34.011 106.141 34.011C106.143 34.0102 106.145 34.0094 106.147 34.0087C106.197 33.9888 106.252 34.0196 106.27 34.0774C106.283 34.1221 106.269 34.1748 106.236 34.2037C106.215 34.2228 106.178 34.2305 106.134 34.2305Z" fill="#111111"/>
<path d="M104.939 32.9192C104.916 32.9192 104.893 32.9099 104.875 32.8912C104.835 32.8507 104.831 32.7814 104.867 32.7357C104.878 32.7211 105.15 32.377 105.673 32.377C105.727 32.377 105.77 32.4264 105.77 32.4875C105.77 32.5487 105.727 32.5981 105.673 32.5981C105.241 32.5981 105.021 32.8709 105.012 32.8825C104.992 32.9068 104.966 32.9192 104.939 32.9192Z" fill="#111111"/>
<path d="M90.7907 65.0024L88.4198 76.3634L85.5771 79.331L90.1366 78.0589L89.9607 76.2282L93.8944 65.0024H90.7907Z" fill="white"/>
<path d="M85.2432 79.5343L88.335 76.3066L90.7164 64.8954H94.0328L93.9814 65.0421L90.0564 76.2433L90.2388 78.1405L85.2432 79.5343ZM90.8649 65.1095L88.5044 76.4201L85.9109 79.1277L90.0343 77.9772L89.8647 76.2134L89.8734 76.1885L93.7557 65.1094L90.8649 65.1095Z" fill="#111111"/>
<path d="M96.8685 65.0024L97.3009 76.3634L94.4583 79.331L98.9161 78.0525L98.8418 76.2282L99.9518 65.0024H96.8685Z" fill="white"/>
<path d="M94.1208 79.5381L97.2052 76.3181L96.7706 64.8953H100.057L98.936 76.2318L99.0135 78.135L94.1208 79.5381ZM96.9668 65.1095L97.3967 76.4085L94.7958 79.1237L98.8188 77.97L98.7477 76.2248L98.7486 76.2162L99.8468 65.1095H96.9668Z" fill="#111111"/>
<path d="M99.1402 76.8924C99.3512 78.6741 98.8874 79.8002 98.8874 79.8002H98.4878L98.3697 78.4792L96.8692 79.8107L93.6475 79.8015V79.3866C93.6475 79.3866 94.7708 78.5052 94.8918 78.787C95.2644 79.6554 99.0213 75.8892 99.1402 76.8924Z" fill="#F8E643"/>
<path d="M90.259 76.8924C90.4701 78.6741 90.0068 79.8002 90.0068 79.8002H89.6072L89.4885 78.4792L88.0126 79.8107L84.7664 79.8015V79.3866C84.7664 79.3866 85.8897 78.5052 86.0106 78.787C86.3832 79.6554 90.1402 75.8892 90.259 76.8924Z" fill="#F8E643"/>
<path d="M90.3142 65.6167C90.3142 65.6167 91.4583 62.6933 91.8684 61.937C93.1983 59.4848 101.128 52.3589 101.128 52.3589L101.45 50.0031L107.932 50.3335L107.357 51.7977C107.357 51.7977 109.635 55.0382 108.894 58.3177C108.382 60.5831 100.452 64.5031 100.452 64.5031C100.405 65.5105 100.282 65.86 100.282 65.86L90.3142 65.6167Z" fill="#111111"/>
<path d="M110.279 38.5447C111.094 38.394 112.721 44.5793 112.301 47.2999C111.498 52.5014 109.131 48.0297 109.131 48.0297L108.237 50.6004L101.26 50.1602L102.458 43.1184C102.458 43.1184 97.2892 50.0096 95.9527 47.7249C95.1691 46.3852 102.613 38.5419 105.298 38.5456C105.9 38.5464 105.176 39.6927 106.813 40.2282C107.62 40.4923 108.735 38.83 110.279 38.5447Z" fill="#F8E643"/>
<path d="M115.458 48.9992C115.441 48.9992 115.425 48.9915 115.412 48.9761C115.389 48.9472 115.391 48.9024 115.416 48.8759C115.771 48.5057 115.873 48.3804 115.867 47.9595C115.861 47.5804 115.694 47.419 115.518 47.2484C115.38 47.1148 115.237 46.9768 115.164 46.7363C114.991 46.165 115.66 45.6352 115.689 45.6129C115.717 45.5909 115.756 45.5991 115.775 45.6315C115.795 45.6638 115.788 45.708 115.759 45.7302C115.753 45.735 115.14 46.2208 115.282 46.6901C115.344 46.8939 115.467 47.0134 115.598 47.1401C115.788 47.3239 115.985 47.5138 115.991 47.9574C115.998 48.4364 115.871 48.5944 115.5 48.9807C115.488 48.993 115.473 48.9992 115.458 48.9992Z" fill="#111111"/>
<path d="M117.239 48.9992C117.222 48.9992 117.205 48.9915 117.193 48.9762C117.17 48.9472 117.172 48.9024 117.197 48.876C117.552 48.5058 117.654 48.3804 117.648 47.9596C117.642 47.5805 117.475 47.4192 117.299 47.2484C117.161 47.1149 117.018 46.9768 116.945 46.7363C116.772 46.1651 117.441 45.6352 117.47 45.6131C117.498 45.5908 117.537 45.5991 117.556 45.6316C117.575 45.6639 117.568 45.708 117.54 45.7302C117.534 45.7351 116.921 46.2209 117.063 46.6902C117.124 46.894 117.248 47.0135 117.379 47.1401C117.569 47.3239 117.766 47.5139 117.772 47.9574C117.779 48.4364 117.651 48.5944 117.281 48.9807C117.269 48.993 117.254 48.9992 117.239 48.9992Z" fill="#111111"/>
<path d="M116.287 48.6195C116.27 48.6195 116.253 48.6118 116.241 48.5964C116.218 48.5675 116.22 48.5227 116.245 48.4962C116.6 48.1262 116.702 48.0008 116.696 47.5799C116.69 47.2007 116.523 47.0395 116.347 46.8687C116.209 46.7352 116.066 46.5972 115.993 46.3567C115.82 45.7853 116.489 45.2557 116.518 45.2335C116.546 45.2114 116.585 45.2195 116.604 45.2519C116.624 45.2842 116.616 45.3284 116.588 45.3505C116.582 45.3554 115.969 45.8413 116.111 46.3106C116.172 46.5142 116.296 46.6339 116.427 46.7605C116.617 46.9442 116.814 47.1341 116.82 47.5777C116.827 48.0568 116.699 48.2147 116.329 48.601C116.317 48.6133 116.302 48.6195 116.287 48.6195Z" fill="#111111"/>
<path d="M119.527 50.1122C119.458 49.9851 119.36 49.9084 119.235 49.8842C119.003 49.8393 118.725 49.9885 118.528 50.1245V49.5475H114.521V51.0391C114.521 52.0855 115.264 52.9337 116.182 52.9337H116.867C117.454 52.9337 117.97 52.5855 118.266 52.0606C118.738 52.0541 119.164 51.7692 119.421 51.2814C119.639 50.8683 119.681 50.3985 119.527 50.1122ZM119.315 51.2085C119.094 51.6267 118.738 51.882 118.34 51.9154C118.46 51.6533 118.528 51.3553 118.528 51.0391V50.2921C118.708 50.1585 118.995 49.9814 119.214 50.0241C119.303 50.0414 119.371 50.0945 119.421 50.1866C119.549 50.4251 119.506 50.8453 119.315 51.2085Z" fill="#F8E643"/>
<path d="M115.856 52.3721C115.842 52.3721 115.827 52.3683 115.813 52.3601C114.885 51.8217 114.996 50.1838 115.001 50.1144C115.005 50.0535 115.053 50.0082 115.106 50.0136C115.159 50.0188 115.199 50.0722 115.194 50.1331C115.193 50.1487 115.089 51.6922 115.901 52.1629C115.948 52.1906 115.967 52.2572 115.943 52.3118C115.926 52.35 115.892 52.3721 115.856 52.3721Z" fill="white"/>
<path d="M104.306 30.9605C104.306 30.9605 107.953 31.0583 109.044 32.6878C109.044 32.6878 109.226 32.5173 109.378 32.4843C109.573 32.4418 109.659 32.4942 109.659 32.4942L108.62 29.6805L104.306 30.9605Z" fill="#111111"/>
<path d="M106.055 28.5933C106.055 28.5933 102.094 29.0735 103.807 36.8692C104.235 38.8154 102.451 40.2395 102.451 40.2395C102.451 40.2395 105.86 40.7852 104.796 35.757C104.433 34.0385 104.517 34.7313 104.53 33.6797C104.558 31.4048 106.055 28.5933 106.055 28.5933Z" fill="#111111"/>
<path d="M106.391 28.4848C106.391 28.4848 110.284 26.778 111.583 34.2098C111.878 35.8992 110.461 40.2988 107.368 40.9418C107.368 40.9418 109.371 36.621 109.191 35.1063C109.089 34.2516 108.361 31.6756 108.361 31.6756L106.391 28.4848Z" fill="#111111"/>
<path d="M93.2354 43.3101L97.1558 53.0947C97.1558 53.0947 101.285 52.2664 102.772 52.8883L99.714 43.3101C99.714 43.3101 96.7073 42.7364 93.2354 43.3101Z" fill="#EBF4FE"/>
<path d="M99.7141 43.3101L102.674 52.8762C104.649 52.4191 108.389 53.0954 108.389 53.0954L106.193 43.3109C106.193 43.3109 102.925 41.9004 99.7141 43.3101Z" fill="#EBF4FE"/>
<path d="M106.291 43.2823L106.278 43.2243L106.229 43.2029C106.196 43.1889 102.905 41.8008 99.7037 43.1914C99.3955 43.1368 96.496 42.6547 93.2209 43.1959L93.0872 43.2181L97.0963 53.2239L97.1733 53.2085C97.213 53.2006 101.029 52.445 102.587 52.9419L102.899 52.9475C104.878 52.5865 108.337 53.2032 108.373 53.2096L108.525 53.2372L106.291 43.2823ZM97.2154 52.9658L93.3838 43.4028C96.4812 42.9158 99.209 43.34 99.6386 43.4136L102.506 52.6808C100.949 52.2778 97.7683 52.8593 97.2154 52.9658ZM104.431 52.6008C103.858 52.6008 103.304 52.6364 102.828 52.7273L99.8434 43.3778C102.739 42.1564 105.695 43.2358 106.108 43.399L108.252 52.955C107.734 52.8678 106.016 52.6008 104.431 52.6008Z" fill="#111111"/>
<path d="M110.568 52.0201C110.568 52.0201 108.528 51.3336 108.527 51.3395C108.527 51.3455 106.904 51.5656 106.71 51.541C106.516 51.5164 105.392 50.5938 105.618 50.1803C105.934 49.6016 107.579 50.0984 107.665 50.0984C107.751 50.0984 107.442 48.8586 107.509 48.8696C107.899 48.9336 108.33 50.1638 108.429 50.1803C108.527 50.1967 109.864 50.0738 109.864 50.0738L110.568 52.0201Z" fill="white"/>
<path d="M110.735 52.1916L110.541 52.1261C109.791 51.8738 108.672 51.4987 108.522 51.452C108.508 51.4549 108.493 51.4571 108.476 51.4595C108.436 51.4655 108.377 51.4737 108.306 51.4834C108.164 51.5028 107.972 51.5281 107.769 51.5532C107.401 51.5989 106.925 51.6534 106.752 51.6535C106.73 51.6535 106.712 51.6525 106.699 51.6509C106.495 51.625 105.742 51.0059 105.546 50.5433C105.459 50.3388 105.492 50.2012 105.535 50.1218C105.657 49.8981 105.928 49.7893 106.363 49.7893C106.809 49.7893 107.31 49.906 107.552 49.9621C107.56 49.9641 107.569 49.9662 107.578 49.9683C107.563 49.8372 107.519 49.6057 107.487 49.4389C107.391 48.9295 107.385 48.8642 107.428 48.8024L107.457 48.7613L107.515 48.7588L107.523 48.76C107.83 48.8104 108.111 49.3769 108.316 49.7906C108.368 49.8958 108.432 50.0235 108.464 50.0712C108.693 50.0702 109.844 49.9646 109.856 49.9635L109.926 49.9571L110.735 52.1916ZM108.528 51.229C108.545 51.229 108.573 51.2337 110.401 51.8486L109.801 50.1905C109.542 50.2139 108.66 50.2924 108.461 50.2924C108.439 50.2924 108.423 50.2912 108.415 50.2898C108.338 50.277 108.296 50.1984 108.147 49.8997C108.021 49.6448 107.805 49.2093 107.614 49.0438C107.63 49.1463 107.656 49.2816 107.677 49.3925C107.789 49.984 107.799 50.0921 107.748 50.1636C107.728 50.1925 107.698 50.2091 107.665 50.2091C107.644 50.2091 107.613 50.2024 107.513 50.179C107.278 50.1243 106.789 50.0107 106.363 50.0107C106.011 50.0107 105.781 50.0896 105.7 50.2389C105.675 50.2841 105.681 50.3514 105.717 50.4387C105.887 50.8537 106.593 51.4107 106.721 51.4313C106.728 51.4323 106.739 51.4326 106.752 51.4326C107.023 51.4325 108.137 51.2855 108.435 51.2427L108.436 51.2293L108.527 51.2291C108.527 51.229 108.527 51.229 108.528 51.229Z" fill="#111111"/>
<path d="M94.5281 49.1075C94.5137 49.3859 95.036 50.4241 95.1876 50.5643C95.3392 50.7045 96.7044 50.9689 96.8041 50.4952C96.9436 49.8325 95.4778 48.8455 95.4173 48.7755C95.3568 48.7056 94.9745 47.5199 94.8948 47.4511C94.8151 47.3824 94.5828 48.05 94.5281 49.1075Z" fill="white"/>
<path d="M96.1755 50.8761C95.7768 50.8761 95.2474 50.7621 95.1264 50.6503C94.9581 50.4945 94.4143 49.4297 94.4313 49.1011C94.4681 48.3892 94.637 47.3358 94.8826 47.3358C94.9082 47.3358 94.9326 47.3452 94.9533 47.363C95.0071 47.4094 95.067 47.5535 95.2902 48.1743C95.3659 48.3848 95.4594 48.6449 95.489 48.7002C95.5008 48.7098 95.5421 48.7415 95.5822 48.7722C96.205 49.2489 97.0189 49.9487 96.8984 50.5212C96.8488 50.7567 96.6055 50.8761 96.1755 50.8761ZM94.8757 47.6296C94.7942 47.8308 94.6645 48.3493 94.6249 49.114C94.6129 49.3461 95.1096 50.3497 95.2487 50.4784C95.309 50.531 95.7571 50.6549 96.1754 50.6549C96.4855 50.6549 96.6852 50.5856 96.7097 50.4695C96.7781 50.1449 96.3623 49.6356 95.4741 48.9558C95.3888 48.8905 95.3635 48.8709 95.3483 48.8532C95.3127 48.812 95.2683 48.6963 95.1107 48.2582C95.0385 48.0575 94.9385 47.7795 94.8757 47.6296Z" fill="#111111"/>
<path d="M112.237 44.4299C112.237 44.4299 112.861 51.3963 112.376 52.9338C111.891 54.4714 108.852 52.7388 108.852 52.7388L109.043 49.126L109.466 49.0891L109.131 48.0299L112.237 44.4299Z" fill="#F8E643"/>
<path d="M106.797 34.4078C106.87 34.4827 106.663 34.8656 106.344 34.9374C105.823 35.0546 105.577 34.6959 105.708 34.6898C105.759 34.6875 105.972 34.7568 106.283 34.6798C106.618 34.5967 106.749 34.3576 106.797 34.4078Z" fill="#111111"/>
<path d="M47.7244 75.1492L47.7277 77.2573H50.2889L50.5025 75.2572L47.7244 75.1492Z" fill="white"/>
<path d="M50.3822 77.3772H47.6229L47.6191 75.0251L50.6209 75.1419L50.3822 77.3772ZM47.8328 77.1373H50.1959L50.3844 75.3726L47.8299 75.2732L47.8328 77.1373Z" fill="#111111"/>
<path d="M47.5874 77.1299C47.5874 77.1299 43.8857 78.4698 43.7581 79.5737H50.3955V77.1299H47.5874Z" fill="#F8E643"/>
<path d="M58.0488 75.1952L58.1188 77.3278H60.6801L60.8014 75.1492L58.0488 75.1952Z" fill="white"/>
<path d="M60.7787 77.4477H58.0174L57.9397 75.0771L60.9135 75.0273L60.7787 77.4477ZM58.2201 77.2078H60.5813L60.6893 75.2709L58.158 75.3132L58.2201 77.2078Z" fill="#111111"/>
<path d="M57.9782 77.2004C57.9782 77.2004 54.2766 78.5402 54.1489 79.6442H60.7863V77.2004H57.9782Z" fill="#F8E643"/>
<path d="M53.9075 79.2247V79.8595H60.9598V79.1337L53.9075 79.2247Z" fill="#111111"/>
<path d="M50.6028 79.1123V79.789H43.5505V79.0632L50.6028 79.1123Z" fill="#111111"/>
<path d="M57.1995 75.583H61.2759L61.6235 38.3263L49.8732 40.6402L47.0767 75.583H51.0006L55.1087 52.3671L54.6385 47.2765L57.1995 75.583Z" fill="#111111"/>
<path d="M54.1705 18.6806C54.1705 18.6806 54.4468 21.9892 54.2147 22.355C53.9825 22.7209 52.5593 23.1156 52.5593 23.1156L54.8891 30.9264L59.6861 30.3977L59.9971 24.7982C59.9971 24.7982 57.8076 22.7644 57.6755 22.3466C57.4927 21.7687 57.4922 18.6805 57.4922 18.6805L54.1705 18.6806Z" fill="white"/>
<path d="M54.8247 31.0402L52.4385 23.04L52.5373 23.0125C53.0747 22.8634 53.9849 22.5362 54.1392 22.2929C54.2767 22.0762 54.2102 20.2752 54.0778 18.6906C54.073 18.6322 54.1105 18.5805 54.1616 18.5749C54.2135 18.5694 54.2582 18.6121 54.2631 18.6704C54.3098 19.2295 54.5305 22.038 54.2901 22.4172C54.074 22.7577 53.0275 23.0884 52.68 23.1904L54.9535 30.8127L59.5982 30.3008L59.9012 24.846C59.5499 24.5185 57.719 22.7975 57.5879 22.3827C57.4018 21.794 57.3991 18.8074 57.3991 18.6806C57.3991 18.622 57.4407 18.5744 57.492 18.5744C57.5434 18.5744 57.5851 18.6219 57.5851 18.6805C57.5853 19.7422 57.6227 21.8674 57.7628 22.3107C57.8527 22.5948 59.2169 23.9368 60.0558 24.7161L60.0929 24.7506L59.7738 30.4947L54.8247 31.0402Z" fill="#111111"/>
<path d="M55.0364 12.1377C54.4366 12.2189 52.9773 12.3949 52.9903 13.62C53.0052 15.0174 53.2312 16.8112 53.3644 17.7555C53.417 18.1282 53.7005 18.4004 54.0309 18.3958L57.7311 18.3447C58.0701 18.34 58.352 18.0457 58.3864 17.6603C58.5025 16.3632 58.7269 13.6169 58.5879 13.2052C58.1146 11.8044 55.986 12.009 55.0364 12.1377Z" fill="#111111"/>
<path d="M57.4543 19.2615C57.6515 19.022 57.7217 18.0844 57.7331 17.0158C57.7334 16.9849 57.7476 16.9568 57.7701 16.9411C58.0113 16.7728 58.3591 16.4148 58.3433 15.885C58.3296 15.426 58.0396 15.5263 57.8126 15.6772C57.7721 15.7041 57.7221 15.6702 57.7207 15.6152C57.689 14.3272 57.6149 13.1987 57.6149 13.1987L53.218 13.2595C53.218 13.2595 53.2388 14.4081 53.2947 15.6957C53.2972 15.7535 53.5145 18.8236 53.6231 19.1002C53.6822 19.2509 53.7938 19.3751 53.9429 19.4754C53.9429 19.4754 54.2279 19.7346 55.8259 19.7125L57.4543 19.2615Z" fill="white"/>
<path d="M55.6368 19.8205C54.2903 19.8205 53.9501 19.6107 53.8919 19.5649C53.7213 19.4493 53.6022 19.3077 53.5379 19.1438C53.4192 18.8413 53.2028 15.7301 53.2015 15.701C53.1462 14.4266 53.1249 13.2733 53.1247 13.2617L53.1228 13.1543L57.7016 13.0911L57.7082 13.1909C57.7089 13.202 57.7806 14.303 57.8128 15.5553C58.0066 15.4374 58.1614 15.4133 58.2734 15.4839C58.3759 15.5484 58.4309 15.6822 58.4368 15.8815C58.4555 16.5095 58.0224 16.8882 57.8266 17.0268C57.805 18.9914 57.5924 19.2496 57.5225 19.3345C57.4872 19.3774 57.4281 19.3796 57.3905 19.3392C57.3529 19.299 57.351 19.2315 57.3864 19.1886C57.4735 19.0828 57.6223 18.6596 57.6398 17.0147C57.6405 16.9471 57.671 16.8856 57.7215 16.8504C57.8857 16.7358 58.2657 16.4128 58.2501 15.8887C58.2481 15.8217 58.2367 15.7042 58.1831 15.6704C58.127 15.635 58.0062 15.6721 57.8598 15.7694C57.8126 15.8007 57.7559 15.8014 57.7082 15.7711C57.6593 15.7401 57.6291 15.683 57.6275 15.6183C57.6016 14.5658 57.5467 13.6102 57.5282 13.3066L53.3137 13.3648C53.3203 13.6798 53.3428 14.6443 53.3882 15.6906C53.3986 15.9023 53.6147 18.818 53.7085 19.0568C53.7571 19.1806 53.852 19.2906 53.9905 19.3838L54.0013 19.3923C54.0015 19.3923 54.3187 19.6271 55.8249 19.6062C55.8764 19.6041 55.9189 19.6526 55.9194 19.7114C55.9201 19.7702 55.8788 19.8185 55.8272 19.8192C55.7615 19.8201 55.6981 19.8205 55.6368 19.8205Z" fill="#111111"/>
<path d="M56.1256 16.267C56.0424 16.267 55.9726 16.1932 55.9674 16.0972L55.9617 15.9937C55.9563 15.8939 56.0228 15.808 56.1104 15.8019C56.1979 15.7969 56.2733 15.8715 56.2787 15.9714L56.2843 16.0748C56.2898 16.1746 56.2232 16.2605 56.1357 16.2667C56.1323 16.2669 56.1289 16.267 56.1256 16.267Z" fill="#111111"/>
<path d="M54.1004 16.3013C54.0144 16.3013 53.9436 16.2228 53.9418 16.1242L53.9395 16.002C53.9376 15.902 54.0071 15.8192 54.0947 15.8171C54.0958 15.8171 54.0971 15.817 54.0982 15.817C54.1843 15.817 54.255 15.8955 54.2569 15.9941L54.2593 16.1163C54.2612 16.2163 54.1917 16.2991 54.104 16.3012C54.1028 16.3012 54.1016 16.3013 54.1004 16.3013Z" fill="#111111"/>
<path d="M55.7848 15.4599C55.7369 15.4599 55.691 15.429 55.6694 15.3763C55.6399 15.304 55.667 15.2183 55.7303 15.1843C55.7472 15.1752 56.1513 14.9632 56.5917 15.157C56.6572 15.1857 56.6897 15.2696 56.6645 15.3442C56.6392 15.4189 56.5659 15.4561 56.5003 15.4272C56.1634 15.2792 55.8412 15.4449 55.838 15.4466C55.8207 15.4556 55.8026 15.4599 55.7848 15.4599Z" fill="#111111"/>
<path d="M55.6822 17.8299C55.753 17.9459 55.4025 18.3515 54.9903 18.3366C54.3177 18.3121 54.1037 17.7895 54.2667 17.8245C54.3305 17.8382 54.5761 17.9929 54.9789 17.9986C55.4133 18.0048 55.6347 17.7521 55.6822 17.8299Z" fill="#111111"/>
<path d="M54.9522 17.4615C54.9452 17.4615 54.938 17.4607 54.9309 17.4591C54.8348 17.4369 54.5183 17.3471 54.4792 17.1206C54.4501 16.9524 54.4644 16.909 54.6392 16.3787C54.6762 16.2665 54.7209 16.131 54.7745 15.966C54.7975 15.8715 54.8476 15.6091 54.8193 15.459C54.8149 15.4511 54.7733 15.409 54.659 15.3735C54.4317 15.3027 54.0772 15.3066 53.868 15.4527C53.8177 15.488 53.7518 15.47 53.7209 15.4125C53.69 15.355 53.7058 15.2799 53.7562 15.2447C54.0782 15.0196 54.5852 15.0635 54.8273 15.1818C54.9433 15.2384 55.011 15.3144 55.0285 15.4077C55.0737 15.6471 54.989 15.998 54.9792 16.0373L54.9766 16.0463C54.9222 16.2138 54.8769 16.351 54.8395 16.4647C54.6718 16.9733 54.6728 16.979 54.6891 17.0735C54.7012 17.1162 54.8447 17.1902 54.9733 17.2199C55.0312 17.2332 55.0687 17.2976 55.057 17.3636C55.0468 17.4215 55.0021 17.4614 54.9522 17.4615Z" fill="#111111"/>
<path d="M59.9118 44.4806C59.9301 44.4952 59.951 44.502 59.9716 44.502C60.005 44.502 60.0377 44.484 60.0581 44.4503C60.0912 44.396 60.0793 44.3212 60.0316 44.2835L57.5638 42.3342C57.5159 42.2963 57.4504 42.31 57.4174 42.3644C57.3843 42.4189 57.3962 42.4936 57.444 42.5314L59.2658 43.9704L59.8665 74.7662C59.8678 74.8316 59.9146 74.8835 59.9716 74.8835C59.9724 74.8835 59.9732 74.8834 59.974 74.8834C60.032 74.882 60.0781 74.8271 60.0768 74.7609L59.4795 44.1393L59.9118 44.4806Z" fill="#A1C5E2"/>
<path d="M55.2122 52.3471L54.2733 46.0293V42.995C54.2733 42.9288 54.2262 42.8751 54.1682 42.8751C54.11 42.8751 54.063 42.9288 54.063 42.995V46.0495L54.2754 47.4787L50.0673 74.7428C50.0572 74.808 50.0955 74.8702 50.1526 74.8817C50.1588 74.883 50.1649 74.8836 50.1709 74.8836C50.221 74.8836 50.2654 74.8425 50.2745 74.7843L54.3797 48.1805L55.0048 52.3872C55.0135 52.4457 55.0581 52.4871 55.1084 52.4871C55.1142 52.4871 55.1201 52.4865 55.1261 52.4854C55.1834 52.4743 55.222 52.4124 55.2122 52.3471Z" fill="#A1C5E2"/>
<path d="M49.2403 49.9366C49.2403 49.9366 48.2093 48.046 48.052 47.3903C47.9559 46.9896 48.2025 45.0831 48.2025 45.0831L48.8331 31.969L51.2853 32.9036C51.2853 32.9036 49.5156 44.5861 49.5178 45.0863C49.52 45.5864 50.6059 46.9844 50.5512 47.3309C50.4965 47.6775 49.3947 46.4753 49.3947 46.4753C49.3947 46.4753 49.2384 47.489 49.2841 47.8266C49.3678 48.4438 49.5434 49.9369 49.4537 50.2582C49.3857 50.5019 48.9021 49.0672 48.6544 47.8917C48.5539 47.4146 48.6414 47.0897 48.6312 46.7874L49.2403 49.9366Z" fill="white"/>
<path d="M49.431 50.4472C49.4292 50.4472 49.4274 50.4471 49.4257 50.447C49.3578 50.4443 49.2826 50.4411 49.1132 50.0093C49.0152 49.8292 48.0711 48.0825 47.9153 47.4328C47.8155 47.0164 48.0316 45.2977 48.0614 45.0668L48.7018 31.7484L51.4458 32.7943L51.4251 32.931C50.7145 37.6214 49.658 44.7289 49.6595 45.0854C49.6605 45.2946 49.9583 45.8062 50.1976 46.2174C50.5359 46.7986 50.7256 47.1382 50.6907 47.3595C50.6766 47.4494 50.6272 47.5163 50.5551 47.543C50.3839 47.6067 50.0267 47.3571 49.4924 46.8008C49.4479 47.1438 49.3986 47.6133 49.4241 47.8019C49.4713 48.1497 49.7009 49.9053 49.5887 50.3072C49.56 50.411 49.487 50.4472 49.431 50.4472ZM49.3276 49.8385C49.3094 49.3585 49.2362 48.5301 49.1442 47.8514C49.0962 47.4975 49.2388 46.5537 49.2552 46.4472L49.3011 46.1494L49.4928 46.3584C49.8013 46.695 50.1834 47.0557 50.3821 47.1839C50.3068 46.9893 50.1052 46.6429 49.9616 46.3962C49.6089 45.7901 49.3775 45.3716 49.3762 45.087C49.3741 44.6025 50.9171 34.3876 51.1251 33.0129L48.9646 32.1895L48.3438 45.0995L48.3428 45.1068C48.2492 45.8309 48.1245 47.0797 48.1888 47.3477C48.2459 47.5857 49.165 49.3952 49.3276 49.8385Z" fill="#111111"/>
<path d="M49.3489 27.2066L49.9963 31.815C49.8615 32.8294 49.1135 43.4074 49.1135 43.4074H61.5193L60.5314 34.0308L60.7382 32.5436L63.5968 31.8037C63.8134 31.2178 62.6868 25.645 62.0791 25.041C61.2889 24.2557 59.0601 22.4564 58.3324 22.3381C58.1559 22.3094 58.2491 20.8457 57.8149 20.8257C56.9704 20.7866 54.6836 20.8858 54.0323 20.8261C53.7153 20.797 53.7737 22.2024 53.7737 22.2024C53.7737 22.2024 53.3151 22.5126 52.964 22.7129C51.002 23.8314 49.923 26.0396 49.3489 27.2066Z" fill="#F8E643"/>
<path d="M63.0427 49.5375V48.6845C63.0427 48.1113 62.6338 47.6449 62.131 47.6449H60.9075C60.4048 47.6449 59.9957 48.1112 59.9957 48.6845V49.5375H56.2048V58.648H66.8337V49.5375H63.0427ZM60.3837 49.5375V48.6845C60.3837 48.3552 60.6187 48.0873 60.9076 48.0873H62.1311C62.4199 48.0873 62.6548 48.3552 62.6548 48.6845V49.5375H60.3837Z" fill="#F8E643"/>
<path d="M60.4499 38.4435C60.6647 40.9475 61.2075 46.1597 61.0156 46.3898C60.7455 46.7135 59.4686 47.4916 59.2942 47.7808C59.1884 47.9563 60.1893 47.8214 60.2321 47.8258L60.1725 48.212C60.1725 48.212 60.2848 48.4665 60.457 48.4534C60.6044 48.4423 60.7393 48.2368 60.8737 48.2512C60.8859 48.2525 61.1094 48.3908 61.1993 48.4004C61.3133 48.4127 61.4674 48.2037 61.5663 48.161C61.639 48.1296 61.8124 48.3047 61.9234 48.2731C62.1013 48.2225 62.1166 47.9701 62.2423 47.9311C62.3606 47.8943 62.4578 48.1094 62.6622 48.0341C62.8622 47.9605 62.5314 46.6233 62.6186 46.3849C62.9242 45.5492 63.51 30.7215 62.8637 32.0022C62.6603 32.405 60.1814 31.7292 59.9717 32.2511C59.9718 32.2513 60.3881 37.7223 60.4499 38.4435Z" fill="white"/>
<path d="M60.4433 48.5881C60.2135 48.5881 60.0819 48.3055 60.0673 48.2724L60.0497 48.2326L60.0898 47.9726C59.3863 48.0392 59.2464 48.001 59.1877 47.886C59.1591 47.8298 59.1626 47.762 59.197 47.7049C59.296 47.5408 59.6128 47.3049 60.1231 46.9362C60.4537 46.6972 60.7954 46.4502 60.9208 46.3081C61.023 45.9541 60.7152 42.6301 60.511 40.4243C60.4436 39.6962 60.38 39.0085 60.3326 38.4564C60.2714 37.7429 59.8585 32.3175 59.8543 32.2628L59.8516 32.2275L59.8646 32.1954C60.0002 31.8578 60.5932 31.8807 61.5544 31.9584C61.9747 31.9924 62.6781 32.0494 62.7624 31.9339C62.8581 31.7439 62.9728 31.7894 63.0057 31.8081C63.1007 31.8615 63.2442 31.9423 63.2692 34.192C63.2864 35.7415 63.2403 37.645 63.1986 38.9691C63.0939 42.2923 62.8889 45.9942 62.727 46.4366C62.7031 46.511 62.7484 46.8606 62.7784 47.0919C62.8607 47.7262 62.8975 48.0885 62.6982 48.1619C62.5316 48.2235 62.4124 48.1468 62.3336 48.0961C62.3126 48.0825 62.2807 48.0621 62.2697 48.0611C62.26 48.0646 62.2295 48.1197 62.213 48.1493C62.1631 48.2393 62.0945 48.3628 61.9518 48.4033C61.8516 48.4316 61.7491 48.376 61.6668 48.3311C61.6444 48.319 61.6127 48.3017 61.5937 48.2944C61.5699 48.3103 61.5343 48.342 61.5045 48.3684C61.4109 48.4519 61.3042 48.547 61.1881 48.534C61.108 48.5254 60.9876 48.4618 60.8713 48.3975C60.8632 48.393 60.8559 48.3889 60.8498 48.3857C60.8187 48.3925 60.768 48.4301 60.7264 48.4609C60.6513 48.5165 60.5662 48.5795 60.4646 48.5872C60.4574 48.5879 60.4502 48.5881 60.4433 48.5881ZM60.2957 48.1868C60.33 48.2462 60.3912 48.3217 60.449 48.3196C60.4894 48.3165 60.5447 48.2755 60.5982 48.2359C60.6807 48.1749 60.7739 48.1054 60.8846 48.1177C60.9093 48.1204 60.9217 48.1272 60.974 48.1561C61.1012 48.2264 61.1807 48.2638 61.2102 48.267C61.2384 48.2651 61.3173 48.1948 61.3597 48.1571C61.4163 48.1067 61.4696 48.0592 61.5245 48.0356C61.6056 48.0003 61.6883 48.0456 61.7682 48.0891C61.8047 48.109 61.8727 48.1471 61.8958 48.1428C61.9437 48.1291 61.9721 48.0819 62.0142 48.0059C62.057 47.9289 62.11 47.8332 62.2112 47.8017C62.3084 47.7717 62.3865 47.8219 62.4492 47.8623C62.5096 47.9011 62.5495 47.9245 62.6023 47.9134C62.6318 47.795 62.5784 47.3829 62.5457 47.1313C62.4909 46.7091 62.4623 46.4637 62.5099 46.3336C62.6377 45.9842 62.8428 42.6851 62.9581 39.1291C63.0943 34.9237 63.0398 32.6585 62.9189 32.1348C62.7439 32.3135 62.2846 32.2866 61.5379 32.2262C61.0427 32.1861 60.2274 32.1202 60.0924 32.2845C60.1324 32.8098 60.5089 37.7529 60.567 38.4305C60.6143 38.9815 60.6779 39.6687 60.7453 40.3962C61.1764 45.0528 61.2495 46.3041 61.1008 46.4823C60.9639 46.6465 60.6167 46.8974 60.2492 47.163C59.9841 47.3546 59.6696 47.582 59.5006 47.7369C59.6111 47.7393 59.7985 47.7317 60.1127 47.7012C60.2104 47.6917 60.2256 47.6904 60.2427 47.6923L60.3703 47.7053L60.2957 48.1868Z" fill="#111111"/>
<path d="M58.7378 28.549L60.8322 45.4887H64.0436L63.624 31.4494L58.7378 28.549Z" fill="#F8E643"/>
<path d="M64.0437 45.623H60.7283L58.9433 29.2588C58.9353 29.1852 58.9811 29.1182 59.0455 29.1091C59.1096 29.1002 59.1688 29.1521 59.1768 29.2256L60.9362 45.3545H64.0437C64.1086 45.3545 64.1613 45.4146 64.1613 45.4887C64.1614 45.5629 64.1086 45.623 64.0437 45.623Z" fill="#111111"/>
<path d="M58.2009 13.6166C57.4571 14.5962 54.1767 15.5596 52.6196 12.2947C51.0624 9.02983 55.4796 11.6021 56.9277 12.0639C57.5477 12.2615 58.8378 12.7777 58.2009 13.6166Z" fill="#111111"/>
<path d="M57.0886 57.6968C57.0359 57.6968 56.9928 57.6489 56.9917 57.5885L56.8775 51.3157C56.8763 51.2547 56.9188 51.2041 56.9724 51.2028C57.0277 51.2019 57.0703 51.2501 57.0714 51.3111L57.1856 57.5839C57.1867 57.645 57.1441 57.6955 57.0906 57.6968C57.0899 57.6968 57.0892 57.6968 57.0886 57.6968Z" fill="white"/>
<path d="M51.3994 23.9859C50.776 24.6894 48.8046 26.3453 48.4316 31.9843L48.03 44.382H50.1316L51.2855 28.7258L51.3994 23.9859Z" fill="#F8E643"/>
<path d="M50.3434 43.5417C50.3365 43.5417 50.3293 43.541 50.3222 43.5395C50.2583 43.5262 50.2159 43.4565 50.2275 43.3835C50.2922 42.9774 50.3899 33.8421 50.4324 29.0683C50.4331 28.9943 50.486 28.9348 50.5513 28.9355C50.6162 28.9362 50.6684 28.9969 50.6678 29.071C50.6627 29.6355 50.5434 42.9017 50.459 43.4314C50.4487 43.4962 50.3992 43.5417 50.3434 43.5417Z" fill="#111111"/>
<path d="M61.5193 54.2312L56.4276 49.8669C56.3848 49.8302 56.3762 49.7609 56.4084 49.7121C56.4406 49.6633 56.5014 49.6534 56.5442 49.6901L61.5193 53.9545L66.4427 49.7345C66.4857 49.6977 66.5464 49.7077 66.5786 49.7564C66.6108 49.8052 66.6021 49.8746 66.5593 49.9113L61.5193 54.2312Z" fill="#111111"/>
<path d="M61.6101 55.172H61.4283C61.2268 55.172 61.0635 54.9857 61.0635 54.7559V53.7692C61.0635 53.5394 61.2268 53.3532 61.4283 53.3532H61.6101C61.8115 53.3532 61.9748 53.5394 61.9748 53.7692V54.7559C61.9748 54.9857 61.8116 55.172 61.6101 55.172Z" fill="#111111"/>
<path d="M3.58789 66.7004H14.386L13.0928 79.8612L4.81641 79.8895L3.58789 66.7004Z" fill="#F8E643"/>
<path d="M0.583252 45.5153C0.583252 45.5153 2.91098 52.8625 2.91098 55.8491C2.91098 58.8359 3.37859 61.6436 5.31836 62.5407C7.25813 63.4377 8.65826 62.0775 8.98679 61.5393C9.39188 60.8757 10.1943 56.6664 6.23005 51.7464C4.67326 49.8141 0.583252 45.5153 0.583252 45.5153Z" fill="#423E49"/>
<path d="M9.34278 58.2216C9.12902 56.6902 8.42792 54.3106 6.30154 51.6716C4.75988 49.7581 0.689913 45.477 0.648984 45.434L0.357178 45.1274L0.491992 45.5529C0.515204 45.6262 2.81396 52.9157 2.81396 55.8491C2.81396 59.6528 3.62117 61.8751 5.28193 62.643C5.75737 62.8629 6.2008 62.9518 6.60518 62.9518C7.01163 62.9518 7.37863 62.862 7.69921 62.7256C8.11691 64.2079 8.42915 65.597 8.53771 66.711C8.54256 66.7609 8.57948 66.7976 8.62241 66.7976C8.62552 66.7976 8.62875 66.7974 8.63192 66.7969C8.67873 66.791 8.71248 66.743 8.70725 66.6896C8.59726 65.5606 8.28037 64.1531 7.85698 62.6527C8.47635 62.3458 8.89948 61.8759 9.06643 61.6025C9.30185 61.2168 9.58512 59.9579 9.34278 58.2216ZM8.9073 61.4761C8.75354 61.7279 8.36585 62.1579 7.79743 62.4431C6.35708 57.4257 3.78656 51.4735 3.75255 51.3951C3.7316 51.347 3.68052 51.3272 3.6383 51.351C3.59608 51.3749 3.57881 51.4331 3.59963 51.4813C3.63358 51.5596 6.20617 57.5163 7.63979 62.5162C7.03788 62.7734 6.25906 62.8562 5.3548 62.4381C3.77557 61.7079 3.00794 59.5525 3.00794 55.8491C3.00794 53.256 1.30392 47.5209 0.806235 45.9015C1.76655 46.9175 4.86236 50.2123 6.15871 51.8211C10.169 56.7984 9.2443 60.924 8.9073 61.4761Z" fill="#111111"/>
<path d="M7.00316 36.9624C7.00316 36.9624 5.01968 46.7073 6.10641 52.6252C7.19307 58.5432 8.29686 60.768 9.68419 59.1719C11.0715 57.5758 10.6247 47.2723 9.64442 44.0222C8.66413 40.7721 7.00316 36.9624 7.00316 36.9624Z" fill="#423E49"/>
<path d="M10.6491 52.2148C10.5856 48.893 10.2188 45.5861 9.73615 43.9862C8.7651 40.7665 7.10673 36.9513 7.09011 36.9132L6.96984 36.6375L6.9088 36.9375C6.88889 37.0351 4.93295 46.774 6.01153 52.6479C6.84233 57.1723 7.66713 59.4271 8.6072 59.7438C8.68589 59.7702 8.76536 59.7835 8.84554 59.7835C8.9208 59.7835 8.99671 59.7717 9.07314 59.7484C9.36766 62.9964 9.56157 65.7223 9.49219 66.6925C9.48838 66.746 9.52329 66.793 9.57024 66.7973C9.57256 66.7975 9.57489 66.7976 9.57722 66.7976C9.62119 66.7976 9.65843 66.7592 9.66212 66.7084C9.73337 65.7115 9.53791 62.9533 9.24099 59.6791C9.40969 59.5912 9.58071 59.448 9.75303 59.2497C10.6632 58.2026 10.683 53.9812 10.6491 52.2148ZM9.21978 59.4455C8.61671 52.8513 7.62361 44.311 7.56102 43.774C7.55481 43.7208 7.51253 43.6837 7.4652 43.6904C7.41851 43.6975 7.38567 43.7465 7.39187 43.7996C7.40739 43.9324 8.43625 52.7801 9.0529 59.526C8.91925 59.5725 8.78941 59.5744 8.6621 59.5315C7.8097 59.2443 7.00482 56.9778 6.20137 52.6024C5.23937 47.3635 6.71625 38.9987 7.03806 37.2953C7.43907 38.2387 8.73891 41.3597 9.55271 44.058C10.0219 45.6138 10.3931 48.9699 10.4552 52.2195C10.5243 55.8394 10.2104 58.4093 9.6153 59.0938C9.47887 59.2511 9.34742 59.3676 9.21978 59.4455Z" fill="#111111"/>
<path d="M87.9406 0H74.6104V22.6789H87.9406V0Z" fill="#F8E643"/>
<path d="M86.7478 1.43933H75.803V21.2397H86.7478V1.43933Z" fill="white"/>
<path d="M86.8449 21.3503H75.7061V1.32874H86.8449V21.3503ZM75.9 21.1291H86.6509V1.54992H75.9V21.1291Z" fill="#111111"/>
<path d="M75.803 15.5821H82.5358L77.1044 7.76685L75.803 10.1967V15.5821Z" fill="#423E49"/>
<path d="M80.9031 13.2328L83.1178 10.665L86.7044 15.5233C86.7216 15.5465 86.7071 15.5821 86.6804 15.5821H82.5358L80.9031 13.2328Z" fill="#423E49"/>
<path d="M86.7786 15.4521L83.1234 10.5009L80.9109 13.066L77.0942 7.57397L75.7061 10.1656V15.6928H82.4889H82.7364H86.6804C86.7308 15.6928 86.7754 15.6604 86.7968 15.6082C86.8181 15.556 86.8111 15.4962 86.7786 15.4521ZM75.9 15.4715V10.2278L77.1148 7.9598L80.7738 13.2248L82.3352 15.4715H75.9ZM82.5828 15.4715L81.0323 13.2406L83.1122 10.8292L86.5394 15.4715H82.5828Z" fill="#1B2746"/>
<path d="M81.0165 8.85435C81.5432 8.85435 81.9702 8.36745 81.9702 7.76684C81.9702 7.16622 81.5432 6.67932 81.0165 6.67932C80.4897 6.67932 80.0627 7.16622 80.0627 7.76684C80.0627 8.36745 80.4897 8.85435 81.0165 8.85435Z" fill="#F8E643"/>
<path d="M86.7478 15.5822H75.803V21.2397H86.7478V15.5822Z" fill="#E5E5E5"/>
<path d="M86.8449 21.3503H75.7061V15.4716H86.8449V21.3503ZM75.9 21.1291H86.6509V15.6927H75.9V21.1291Z" fill="#1B2746"/>
<path d="M100.987 13.2996H90.5894V27.5795H100.987V13.2996Z" fill="#F8E643"/>
<path d="M100.057 14.2059H91.5198V26.6733H100.057V14.2059Z" fill="#E5E5E5"/>
<path d="M100.154 26.7839H91.4229V14.0953H100.154V26.7839ZM91.6168 26.5627H99.9602V14.3165H91.6168V26.5627Z" fill="#1B2746"/>
<path d="M95.6785 16.7811L95.4097 17.6169C95.3211 17.8922 95.4998 18.1841 95.757 18.1841C96.0142 18.1841 96.1928 17.8922 96.1043 17.6169L95.8353 16.7811C95.8086 16.6978 95.7054 16.6978 95.6785 16.7811Z" fill="#F8E643"/>
<path d="M94.0416 18.2924L94.3136 19.127C94.4031 19.4019 94.7052 19.4912 94.9007 19.3008C95.0961 19.1102 95.0657 18.756 94.8415 18.6123L94.1608 18.1763C94.093 18.1328 94.0146 18.2093 94.0416 18.2924Z" fill="#F8E643"/>
<path d="M97.5349 18.2678L96.8146 18.6115C96.5774 18.7247 96.5114 19.0725 96.6863 19.2875C96.8612 19.5025 97.1703 19.4533 97.2871 19.1921L97.6415 18.3989C97.6768 18.3198 97.6066 18.2336 97.5349 18.2678Z" fill="#F8E643"/>
<path d="M97.6994 18.2156C97.6474 18.1516 97.5682 18.132 97.4974 18.1657L96.7772 18.5094C96.6366 18.5765 96.5334 18.718 96.501 18.8879C96.4758 19.0206 96.4969 19.1577 96.5565 19.2722L95.8746 20.0291L95.8549 18.282C95.9691 18.254 96.0715 18.1783 96.1397 18.067C96.2269 17.9245 96.2477 17.742 96.1951 17.5788L95.9263 16.743C95.8999 16.661 95.8334 16.6081 95.7568 16.6081C95.6803 16.6081 95.6138 16.661 95.5874 16.743L95.3185 17.5788C95.266 17.7421 95.2868 17.9245 95.374 18.0671C95.4426 18.1791 95.5459 18.2548 95.6609 18.2824L95.6803 20.0027L95.042 19.2863C95.1055 19.1832 95.136 19.0563 95.125 18.9281C95.1102 18.7552 95.0219 18.6011 94.889 18.516L94.2084 18.0798C94.1415 18.037 94.0607 18.0462 94.0026 18.1029C93.9445 18.1597 93.9241 18.2492 93.9508 18.331L94.2226 19.1656C94.2757 19.3285 94.3955 19.4518 94.543 19.4955C94.5818 19.5069 94.6211 19.5125 94.6602 19.5125C94.7443 19.5125 94.827 19.4862 94.8996 19.4368L95.6838 20.3171L95.6913 20.9872C95.692 21.0478 95.7353 21.0964 95.7883 21.0964C95.7887 21.0964 95.7891 21.0964 95.7896 21.0964C95.8431 21.0956 95.886 21.0454 95.8853 20.9844L95.878 20.334L96.6877 19.4353C96.7663 19.4987 96.8606 19.5331 96.9574 19.5331C96.9788 19.5331 97.0003 19.5314 97.0217 19.528C97.1727 19.504 97.3042 19.3973 97.3733 19.2425L97.7278 18.4492C97.7627 18.3712 97.7515 18.2796 97.6994 18.2156ZM94.5918 19.2813C94.5043 19.2554 94.4361 19.1851 94.4046 19.0884L94.1455 18.2932L94.7941 18.7087C94.8729 18.7592 94.9232 18.847 94.932 18.9497C94.9409 19.0523 94.9065 19.1496 94.8377 19.2167C94.769 19.2837 94.6794 19.3073 94.5918 19.2813ZM95.5332 17.9404C95.4814 17.8558 95.4696 17.7518 95.5007 17.655L95.7569 16.8585L96.0132 17.655C96.0443 17.7518 96.0325 17.8558 95.9807 17.9404C95.9289 18.025 95.8473 18.0735 95.7569 18.0735C95.6665 18.0735 95.585 18.025 95.5332 17.9404ZM97.2006 19.1419C97.1595 19.2338 97.0846 19.2946 96.995 19.3088C96.9052 19.3229 96.8188 19.2878 96.7573 19.2122C96.6958 19.1367 96.6715 19.0354 96.6906 18.9347C96.7098 18.8339 96.7686 18.7533 96.8521 18.7134L97.5384 18.3859L97.2006 19.1419Z" fill="#111111"/>
<path d="M96.2374 24.372H95.5529C94.6353 24.372 93.8914 23.5238 93.8914 22.4774V20.9858H97.8989V22.4774C97.8989 23.5237 97.155 24.372 96.2374 24.372Z" fill="#F8E643"/>
<path d="M95.2271 23.8102C95.2123 23.8102 95.1973 23.8063 95.1831 23.7982C94.2551 23.2598 94.3662 21.622 94.3714 21.5526C94.3759 21.4917 94.4233 21.446 94.4762 21.4518C94.5295 21.4569 94.5692 21.5104 94.5647 21.5713C94.5635 21.5868 94.4597 23.1304 95.2711 23.6011C95.3188 23.6288 95.3378 23.6954 95.3135 23.7498C95.2965 23.7882 95.2624 23.8102 95.2271 23.8102Z" fill="white"/>
<path d="M119.903 79.9999H0.0969886C0.0434509 79.9999 0 79.9505 0 79.8893C0 79.8283 0.0434509 79.7787 0.0969886 79.7787H119.903C119.957 79.7787 120 79.8283 120 79.8893C120 79.9505 119.956 79.9999 119.903 79.9999Z" fill="#111111"/>
</svg>
