<svg width="28" height="28" viewBox="0 0 28 28" fill="none" xmlns="http://www.w3.org/2000/svg">
<ellipse cx="14" cy="14" rx="14" ry="14" fill="#FDFDFD"/>
<path d="M17.7021 6.66406H10.3421C8.3097 6.66406 6.66211 8.31166 6.66211 10.3441V17.7041C6.66211 19.7365 8.3097 21.3841 10.3421 21.3841H17.7021C19.7345 21.3841 21.3821 19.7365 21.3821 17.7041V10.3441C21.3821 8.31166 19.7345 6.66406 17.7021 6.66406Z" fill="#111111"/>
<path d="M16.8695 13.6011C16.9583 14.2003 16.856 14.8123 16.577 15.35C16.298 15.8877 15.8565 16.3237 15.3154 16.5961C14.7744 16.8684 14.1612 16.9632 13.5631 16.867C12.965 16.7707 12.4125 16.4884 11.9842 16.06C11.5558 15.6317 11.2734 15.0792 11.1772 14.4811C11.081 13.883 11.1758 13.2698 11.4481 12.7287C11.7205 12.1876 12.1565 11.7462 12.6942 11.4672C13.2319 11.1882 13.8439 11.0859 14.4431 11.1747C15.0543 11.2653 15.6202 11.5502 16.0571 11.9871C16.494 12.424 16.7788 12.9899 16.8695 13.6011Z" fill="#FDFDFD"/>
<ellipse cx="18.1844" cy="9.54423" rx="0.96" ry="0.960001" fill="#FDFDFD"/>
</svg>
