<svg width="1665" height="455" viewBox="0 0 1665 455" fill="none" xmlns="http://www.w3.org/2000/svg">
<g opacity="0.2">
<path d="M1 168.851C53.6559 144.58 178.099 109.507 270.066 138.512C401.995 180.12 580.38 404.451 741.076 439.311C1058.75 508.226 1256.38 319.096 1419.24 194.857C1576.05 75.2321 1642.98 82.0223 1664 85.6342" stroke="#111111"/>
<path d="M1 132.487C53.6559 108.215 178.099 73.1419 270.066 102.147C401.995 143.756 580.38 368.086 741.076 402.947C1058.75 471.861 1256.38 282.732 1419.24 158.492C1576.05 38.8674 1642.98 45.6576 1664 49.2694" stroke="#111111"/>
<path d="M1 85.7319C53.6559 61.4602 178.099 26.3872 270.066 55.3923C401.995 97.0009 580.38 321.331 741.076 356.192C1058.75 425.106 1256.38 235.977 1419.24 111.737C1576.05 -7.88724 1642.98 -1.09707 1664 2.51478" stroke="#111111"/>
</g>
</svg>
