<svg width="1440" height="564" viewBox="0 0 1440 564" fill="none" xmlns="http://www.w3.org/2000/svg">
<g opacity="0.2">
<path d="M-119 209.239C-67.9273 179.127 52.7742 135.615 141.976 171.599C269.938 223.22 442.961 501.528 598.824 544.777C906.944 630.273 1098.63 395.636 1256.6 241.502C1408.69 93.0936 1473.61 101.518 1494 105.999" stroke="#F8E543"/>
<path d="M-119 164.124C-67.9273 134.013 52.7742 90.5004 141.976 126.485C269.938 178.105 442.961 456.414 598.824 499.662C906.944 585.158 1098.63 350.521 1256.6 196.387C1408.69 47.9788 1473.61 56.4029 1494 60.8838" stroke="#F8E543"/>
<path d="M-119 106.12C-67.9273 76.0081 52.7742 32.4959 141.976 68.4801C269.938 120.1 442.961 398.409 598.824 441.658C906.944 527.154 1098.63 292.517 1256.6 138.383C1408.69 -10.0257 1473.61 -1.60166 1494 2.87927" stroke="#F8E543"/>
</g>
</svg>
