<svg width="512" height="282" viewBox="0 0 512 282" fill="none" xmlns="http://www.w3.org/2000/svg">
<path d="M42.8873 280.495C42.8873 280.495 -16.6898 213.759 32.8118 141.508C76.733 77.402 127.941 81.7843 165.511 107.799C181.513 118.879 227.648 109.165 266.914 43.9342C320.463 -45.0222 506.081 8.93022 472.237 145.792C455.859 212.023 522.082 214.43 488.339 280.635L42.8873 280.495Z" fill="#D9E9FE"/>
<path d="M352.194 279.864H237.719C236.622 279.864 235.725 278.928 235.725 277.784V47.4338C235.725 46.2896 236.622 45.3533 237.719 45.3533H352.194C353.291 45.3533 354.189 46.2896 354.189 47.4338V277.784C354.189 278.928 353.291 279.864 352.194 279.864Z" fill="#78ACEA"/>
<path d="M360.449 51.678V273.54C360.449 277.018 357.721 279.864 354.386 279.864H248.046C244.711 279.864 241.985 277.018 241.985 273.54V51.678C241.985 48.1986 244.711 45.3525 248.046 45.3525H354.386C357.721 45.3525 360.449 48.1986 360.449 51.678Z" fill="#AFCDFB"/>
<path opacity="0.4" d="M318.578 54.2299H287.783C287.124 54.2299 286.585 53.6673 286.585 52.9798C286.585 52.2923 287.124 51.7297 287.783 51.7297H318.578C319.237 51.7297 319.776 52.2923 319.776 52.9798C319.776 53.6671 319.237 54.2299 318.578 54.2299Z" fill="#5E92DD"/>
<path opacity="0.4" d="M282.313 54.2301C281.655 54.2301 281.115 53.6676 281.115 52.9801C281.115 52.2925 281.655 51.73 282.313 51.73C282.972 51.73 283.512 52.2925 283.512 52.9801C283.512 53.6674 282.972 54.2301 282.313 54.2301Z" fill="#5E92DD"/>
<path d="M310.413 266.906C310.413 269.118 309.557 271.124 308.172 272.581C306.772 274.057 304.829 274.969 302.685 274.969C298.416 274.969 294.956 271.358 294.956 266.906C294.956 264.043 296.386 261.531 298.542 260.101C299.738 259.306 301.16 258.845 302.685 258.845C306.952 258.845 310.413 262.453 310.413 266.906Z" fill="#95C0F4"/>
<path d="M354.128 59.7993H249.078V254.88H354.128V59.7993Z" fill="#95C0F4"/>
<path d="M308.172 272.581C306.772 274.057 304.829 274.969 302.685 274.969C298.416 274.969 294.956 271.358 294.956 266.906C294.956 264.043 296.386 261.531 298.542 260.101C299.3 263.533 301.545 269.274 308.172 272.581Z" fill="#8CBAF1"/>
<path opacity="0.9" d="M352.617 83.1228H352.372H303.736H254.854C254.023 83.1228 253.344 84.0412 253.344 85.1649V150.375C253.344 151.497 254.023 152.415 254.854 152.415H303.736H352.372H352.617C353.449 152.415 354.129 151.497 354.129 150.375V85.1649C354.129 84.0412 353.449 83.1228 352.617 83.1228Z" fill="#78ACEA"/>
<path opacity="0.9" d="M316.145 162.345H315.953H278.035H239.925C239.277 162.345 238.747 163.263 238.747 164.387V229.597C238.747 230.719 239.277 231.638 239.925 231.638H278.035H315.953H316.145C316.793 231.638 317.323 230.719 317.323 229.597V164.387C317.323 163.263 316.793 162.345 316.145 162.345Z" fill="#78ACEA"/>
<path d="M389.783 79.2909V144.502C389.783 145.623 388.903 146.54 387.825 146.54H261.245C260.171 146.54 259.291 145.623 259.291 144.502V79.2909C259.291 78.166 260.171 77.248 261.245 77.248H387.825C388.903 77.248 389.783 78.166 389.783 79.2909Z" fill="white"/>
<path d="M389.783 79.2904V144.501C389.783 145.623 388.76 146.541 387.508 146.541H324.537V77.2483H387.508C388.76 77.2483 389.783 78.1667 389.783 79.2904Z" fill="#F8E543"/>
<path d="M355.447 102.561H333.17C332.389 102.561 331.751 101.894 331.751 101.08C331.751 100.266 332.389 99.6001 333.17 99.6001H355.447C356.228 99.6001 356.866 100.266 356.866 101.08C356.866 101.894 356.228 102.561 355.447 102.561Z" fill="#FDFDFD"/>
<path d="M351.144 107.001H331.799C331.772 107.001 331.751 106.978 331.751 106.951V104.091C331.751 104.063 331.772 104.041 331.799 104.041H351.144C351.17 104.041 351.191 104.063 351.191 104.091V106.951C351.191 106.978 351.17 107.001 351.144 107.001Z" fill="#FDFDFD"/>
<path d="M296.857 146.54H261.245C260.171 146.54 259.291 145.623 259.291 144.502V100.187C268.999 112.154 288.007 135.613 296.857 146.54Z" fill="#D9E9FE"/>
<path d="M290.588 134.429H268.31C267.53 134.429 266.892 133.763 266.892 132.949C266.892 132.135 267.53 131.469 268.31 131.469H290.588C291.368 131.469 292.007 132.135 292.007 132.949C292.007 133.763 291.368 134.429 290.588 134.429Z" fill="#EDDD53"/>
<path d="M286.284 138.87H266.939C266.913 138.87 266.892 138.847 266.892 138.82V135.959C266.892 135.932 266.913 135.909 266.939 135.909H286.284C286.311 135.909 286.332 135.932 286.332 135.959V138.82C286.332 138.847 286.311 138.87 286.284 138.87Z" fill="#EDDD53"/>
<path d="M327.28 159.38V224.591C327.28 225.714 326.4 226.632 325.324 226.632H198.746C197.668 226.632 196.788 225.714 196.788 224.591V159.38C196.788 158.259 197.668 157.341 198.746 157.341H325.324C326.4 157.341 327.28 158.259 327.28 159.38Z" fill="white"/>
<path d="M327.281 159.38V224.59C327.281 225.714 326.401 226.632 325.325 226.632H269.027V157.34H325.325C326.4 157.34 327.281 158.258 327.281 159.38Z" fill="#F8E543"/>
<path d="M297.725 206.109C296.607 206.109 295.568 205.49 295.001 204.478L286.681 189.64C285.8 188.07 286.306 186.052 287.812 185.134C289.316 184.216 291.251 184.744 292.131 186.314L297.468 195.832L307.519 174.26C308.281 172.624 310.171 171.942 311.738 172.737C313.307 173.533 313.96 175.504 313.198 177.139L300.565 204.255C300.056 205.348 299.011 206.06 297.847 206.106C297.806 206.108 297.766 206.109 297.725 206.109Z" fill="#111111"/>
<path d="M297.727 213.743C286.922 213.743 278.131 204.572 278.131 193.299C278.131 182.026 286.922 172.854 297.727 172.854C308.532 172.854 317.323 182.026 317.323 193.299C317.323 204.572 308.532 213.743 297.727 213.743ZM297.727 175.25C288.188 175.25 280.427 183.347 280.427 193.299C280.427 203.251 288.188 211.347 297.727 211.347C307.266 211.347 315.027 203.251 315.027 193.299C315.027 183.347 307.266 175.25 297.727 175.25Z" fill="#111111"/>
<path d="M233.863 226.631H198.746C197.668 226.631 196.788 225.713 196.788 224.59V174.129L233.863 226.631Z" fill="#95C0F4"/>
<path d="M213.773 168.652C209.896 168.652 206.754 171.93 206.754 175.974C206.754 180.019 209.896 183.297 213.773 183.297C217.649 183.297 220.792 180.019 220.792 175.974C220.792 171.93 217.649 168.652 213.773 168.652ZM218.634 176.208H213.773C213.649 176.208 213.549 176.104 213.549 175.974V170.521C213.549 170.392 213.649 170.287 213.773 170.287C213.897 170.287 213.997 170.392 213.997 170.521V175.74H218.634C218.758 175.74 218.858 175.845 218.858 175.974C218.858 176.104 218.758 176.208 218.634 176.208Z" fill="#F8E543"/>
<path d="M249.887 173.248H227.609C226.829 173.248 226.19 172.582 226.19 171.767C226.19 170.954 226.829 170.287 227.609 170.287H249.887C250.667 170.287 251.306 170.954 251.306 171.767C251.306 172.582 250.667 173.248 249.887 173.248Z" fill="#EDDD53"/>
<path d="M245.583 177.688H226.238C226.212 177.688 226.19 177.666 226.19 177.638V174.778C226.19 174.75 226.212 174.728 226.238 174.728H245.583C245.61 174.728 245.631 174.75 245.631 174.778V177.638C245.631 177.666 245.609 177.688 245.583 177.688Z" fill="#EDDD53"/>
<path d="M213.072 196.994C209.583 196.994 206.754 199.946 206.754 203.586C206.754 207.226 213.072 215.32 213.072 215.32C213.072 215.32 219.39 207.226 219.39 203.586C219.39 199.946 216.562 196.994 213.072 196.994ZM213.072 206.6C211.441 206.6 210.119 205.221 210.119 203.519C210.119 201.817 211.441 200.438 213.072 200.438C214.703 200.438 216.025 201.817 216.025 203.519C216.025 205.221 214.703 206.6 213.072 206.6Z" fill="#F8E543"/>
<path d="M248.193 201.8H225.915C225.134 201.8 224.496 201.134 224.496 200.32C224.496 199.506 225.134 198.839 225.915 198.839H248.193C248.973 198.839 249.611 199.506 249.611 200.32C249.611 201.134 248.973 201.8 248.193 201.8Z" fill="#EDDD53"/>
<path d="M243.889 206.24H224.544C224.518 206.24 224.496 206.218 224.496 206.19V203.33C224.496 203.303 224.518 203.28 224.544 203.28H243.889C243.915 203.28 243.936 203.303 243.936 203.33V206.19C243.936 206.218 243.915 206.24 243.889 206.24Z" fill="#EDDD53"/>
<path d="M76.3607 196.592C75.8968 184.689 74.8968 174.335 73.6997 167.114C71.7915 155.603 70.0738 148.981 70.0541 148.91C69.8028 147.898 66.1718 143.802 58.0991 143.929C50.0263 144.055 50.7919 149.427 50.7919 149.427C50.7912 149.608 50.8142 149.777 50.8498 149.904C50.9276 150.181 58.3379 178.213 58.0171 214.407C58.0128 214.915 57.9581 215.793 57.9925 216.378C57.9927 216.381 76.7002 216.882 76.7047 216.378C77.3571 213.215 77.0388 204.45 76.3607 196.592Z" fill="#2E49D3"/>
<path d="M78.7126 214.229C78.7069 214.733 78.4518 215.137 78.1406 215.137H78.1331C77.8219 215.129 77.5742 214.725 77.5704 214.229H61.5379C61.5324 214.733 61.2771 215.137 60.966 215.137H60.9586C60.6419 215.129 60.3902 214.712 60.394 214.202C60.4871 203.841 59.9209 194.167 59.0639 185.628C56.9326 164.334 52.9926 150.102 52.9366 149.905C52.9012 149.777 52.8788 149.609 52.8788 149.427C52.8788 149.427 52.1133 144.056 60.1853 143.929C68.2593 143.802 71.8901 147.899 72.1416 148.911C72.1566 148.964 73.1288 152.714 74.4218 159.455C74.8503 161.689 75.3125 164.25 75.7874 167.113C76.9833 174.334 77.9837 184.689 78.4476 196.591C79.1261 204.45 79.3646 211.066 78.7126 214.229Z" fill="#78ACEA"/>
<path d="M59.2105 215.137H122.066C122.066 215.137 120.603 208.957 84.2003 209.877C58.4396 210.529 59.2105 215.137 59.2105 215.137Z" fill="#78ACEA"/>
<path d="M54.0938 279.686C61.3816 241.195 59.5077 217.575 59.4985 217.278C59.4801 216.685 60.5271 216.147 61.0902 216.128C61.6604 216.117 64.1759 215.953 64.4668 216.46C64.8481 217.124 66.3156 246.226 55.4542 279.686L54.0938 279.686Z" fill="#2E49D3"/>
<path d="M112.783 279.686C105.495 241.195 107.369 217.575 107.378 217.278C107.396 216.685 106.349 216.147 105.786 216.128C105.216 216.117 102.7 215.953 102.409 216.46C102.028 217.124 100.56 246.226 111.422 279.686L112.783 279.686Z" fill="#2E49D3"/>
<path d="M124.412 279.686C117.125 241.195 118.999 217.575 119.008 217.278C119.026 216.685 117.979 216.147 117.416 216.128C116.846 216.117 114.33 215.953 114.039 216.46C113.658 217.124 112.19 246.226 123.052 279.686L124.412 279.686Z" fill="#2E49D3"/>
<path d="M65.8027 279.686C73.0906 241.195 71.2167 217.575 71.2075 217.278C71.1891 216.685 72.2361 216.147 72.7993 216.128C73.3696 216.117 75.8851 215.953 76.1761 216.46C76.5575 217.124 78.025 246.226 67.1633 279.686L65.8027 279.686Z" fill="#2E49D3"/>
<path d="M123.333 217.11H58.0175C57.9859 217.11 57.96 217.083 57.96 217.05V213.6C57.96 213.567 57.9859 213.54 58.0175 213.54H123.333C123.365 213.54 123.391 213.567 123.391 213.6V217.05C123.391 217.083 123.365 217.11 123.333 217.11Z" fill="#2E49D3"/>
<path d="M119.896 157.888L140.79 153.166L142.021 156.295C142.021 156.295 118.967 170.607 116.806 169.907C114.647 169.206 119.896 157.888 119.896 157.888Z" fill="#FC9490"/>
<path d="M100.9 256.473C100.377 257.099 100.31 257.798 100.569 258.544C100.569 258.547 100.571 258.552 100.574 258.555C101.053 259.935 102.635 261.477 104.473 263.017C104.708 263.215 104.917 263.395 105.099 263.562C105.147 263.605 105.195 263.649 105.24 263.693C105.277 263.727 105.312 263.762 105.348 263.795C107.062 265.443 106.417 265.821 109.496 269.166C113.007 272.977 115.424 273.045 116.112 272.698C116.694 272.402 115.512 270.381 114.202 268.109C114.138 268 114.076 267.889 114.011 267.778C113.837 267.476 113.663 267.169 113.49 266.866C111.955 264.131 112.349 262.848 112.713 258.779C113.009 255.472 117.644 240.305 117.644 240.305L110.916 239.096C110.916 239.096 108.89 251.173 106.657 253.033C105.463 254.025 104.127 254.037 102.98 254.772C102.898 254.823 102.819 254.875 102.741 254.93C102.089 255.38 101.425 255.846 100.9 256.473Z" fill="#FC9490"/>
<path d="M100.9 256.473C100.377 257.099 100.31 257.798 100.569 258.544C100.569 258.547 100.571 258.552 100.574 258.555C101.161 259.934 102.703 261.468 104.48 263.003C104.712 263.204 104.917 263.389 105.099 263.561C105.147 263.605 105.194 263.649 105.24 263.693C105.277 263.727 105.312 263.762 105.348 263.795C107.062 265.443 106.417 265.821 109.496 269.166C113.007 272.977 115.424 273.045 116.112 272.698C116.693 272.402 115.511 270.381 114.202 268.109C113.518 267.848 110.343 266.502 107.943 263.298C105.829 260.483 104.419 256.867 102.979 254.772C102.898 254.823 102.819 254.875 102.741 254.929C102.089 255.38 101.425 255.846 100.9 256.473Z" fill="#1C468A"/>
<path d="M155.153 252.089C155.568 254.256 158.529 253.894 161.836 253.051C165.144 252.208 164.357 253.21 169.065 252.667C173.772 252.123 175.198 250.292 175.342 249.561C175.47 248.914 173.144 248.685 170.65 248.385C170.336 248.348 170.021 248.308 169.706 248.267C166.889 247.899 164.826 246.002 162.267 244.445C159.844 242.97 156.227 236.96 156.227 236.96L149.771 237.493C149.771 237.493 153.159 242.861 154.47 245.195C155.24 246.568 155.199 248.383 155.103 249.785C155.053 250.547 155.006 251.326 155.153 252.089Z" fill="#FC9490"/>
<path d="M161.837 253.051C165.145 252.207 164.358 253.21 169.066 252.666C173.773 252.123 175.199 250.292 175.342 249.561C175.471 248.913 173.145 248.685 170.65 248.385L170.627 248.435C170.627 248.435 167.804 250.523 163.886 250.621C160.692 250.702 157.309 249.747 155.104 249.785C155.054 250.547 155.006 251.326 155.154 252.089C155.569 254.255 158.529 253.894 161.837 253.051Z" fill="#1C468A"/>
<path d="M140.789 153.166C140.789 153.166 142.327 149.235 144.019 149.074C145.711 148.914 151.094 148.031 151.479 148.833C151.863 149.636 151.479 152.524 150.325 153.567C149.172 154.61 142.019 156.295 142.019 156.295L140.789 153.166Z" fill="#FC9490"/>
<path d="M130.414 209.022L116.501 248.086C116.501 248.086 114.363 248.302 112.314 247.686C110.428 247.119 108.268 245.63 108.268 245.63C108.268 245.63 111.719 208.122 118.046 200.32C124.374 192.519 130.414 209.022 130.414 209.022Z" fill="#163560"/>
<path d="M75.3835 193.219C75.3835 193.219 115.362 179.116 124.278 182.116C133.194 185.117 159.965 240.684 159.965 240.684C159.965 240.684 159.361 241.523 157.712 242.168C156.178 242.768 152.464 242.73 152.464 242.73C152.464 242.73 128.305 221.125 125.429 214.824C122.552 208.522 121.402 202.521 118.526 203.121C115.65 203.721 81.4233 217.824 73.6579 209.422C65.8923 201.02 67.9231 190.104 67.9231 190.104L75.3835 193.219Z" fill="#1C468A"/>
<path d="M98.1758 93.7716C96.4478 92.7467 94.3768 92.6351 92.9283 92.7243C93.3014 92.3227 94.035 92.1764 94.035 92.1764C93.1367 92.037 91.1319 92.9666 91.1319 92.9666C78.6374 87.9438 76.6735 107.137 76.9363 111.596C77.1968 116.055 77.2286 121.188 70.9913 125.187C58.719 133.056 69.0737 146.793 69.0737 146.793C69.1702 146.852 74.7835 156.785 74.7835 156.785C74.4684 153.181 90.4045 134.166 98.7188 128.471C100.743 125.362 101.462 119.87 101.516 119.438C101.167 123.792 100.453 126.235 99.8144 127.61C106.855 120.85 102.756 96.4868 98.1758 93.7716Z" fill="#2C3A64"/>
<path d="M98.2272 128.754C98.269 128.774 94.2128 130.971 91.1619 130.1C88.2921 129.284 86.4169 125.402 86.4567 125.393C87.6719 125.141 88.0224 123.399 87.9967 115.911L88.5461 116.024L97.7841 117.933C97.7841 117.933 97.5739 120.966 97.5676 123.823C97.5614 126.222 97.7009 128.498 98.2272 128.754Z" fill="#FC9490"/>
<path d="M97.7839 117.933C97.7839 117.933 97.5736 120.966 97.5674 123.823C92.3979 123.671 89.6656 118.751 88.5459 116.024L97.7839 117.933Z" fill="#FF8585"/>
<path d="M87.592 114.975C87.592 114.975 84.8829 110.509 84.2326 106.691C83.7683 103.965 85.0992 93.8592 94.8327 95.3147C94.8327 95.3147 97.6597 95.6053 100.317 97.4778C102.43 98.967 105.48 102.182 102.07 111L101.184 113.978L87.592 114.975Z" fill="#2C3A64"/>
<path d="M99.5113 120.638C99.5113 120.638 87.2804 120.849 87.2721 112.9C87.2638 104.952 85.6795 99.6259 93.488 99.1554C101.297 98.6848 102.817 101.716 103.438 104.369C104.06 107.021 102.693 120.379 99.5113 120.638Z" fill="#FC9490"/>
<path d="M99.0578 98.9608C99.0578 98.9608 95.709 108.286 90.5697 109.665C85.4305 111.043 83.2012 109.607 83.2012 109.607C83.2012 109.607 87.1433 106.34 87.9613 100.636C87.9613 100.636 96.5318 94.5224 99.0578 98.9608Z" fill="#2C3A64"/>
<path d="M98.2275 99.7178C98.2275 99.7178 100.728 101.8 101.338 103.824C101.948 105.848 102.222 110.014 103.386 109.873C103.386 109.873 105.909 103.534 103.074 99.949C100.067 96.1473 98.2275 99.7178 98.2275 99.7178Z" fill="#2C3A64"/>
<path d="M70.9907 163.083C69.7845 157.805 73.8881 147.564 78.1718 139.086C82.0587 131.402 86.0931 125.168 86.4556 125.393C96.7067 131.74 97.6329 126.463 97.6329 126.463L97.6335 126.464C97.6375 126.464 106.946 127.753 109.582 132.488C112.852 138.363 116.386 154.78 119.895 157.887C119.356 159.608 119.587 160.525 120.159 162.656C120.281 163.114 120.416 163.548 120.565 163.96C121.094 165.46 121.755 166.677 122.327 167.734C120.543 168.865 117.097 171.016 114.559 169.469C110.69 167.107 107.671 159.914 105.972 157.05C105.965 157.039 105.959 157.029 105.953 157.018C102.259 178.828 107.281 183.795 104.739 186.095C102.055 188.523 98.2195 184.939 89.7824 188.754C84.2484 191.258 76.5688 194.879 71.3989 195.51C68.6876 195.841 66.6646 195.349 66.005 193.439C64.0876 187.887 73.2919 173.143 70.9907 163.083Z" fill="#1C468A"/>
<path d="M96.791 115.82C96.791 115.82 97.0189 116.83 99.4267 116.674C99.4267 116.674 101.448 116.544 101.386 115.434C101.386 115.434 99.4263 114.645 96.791 115.82Z" fill="white"/>
<path d="M66.006 193.439C66.6656 195.35 68.6888 195.842 71.3999 195.51C74.9781 193.883 90.4354 187.636 90.2628 183.403C90.006 177.135 87.2907 176.935 89.2083 169.198C90.7481 162.987 76.4657 151.437 74.1876 148.927C69.9038 157.405 69.7855 157.806 70.9917 163.083C73.2927 173.144 64.0884 187.887 66.006 193.439Z" fill="#163560"/>
<path d="M64.258 170.834C66.9993 166.818 69.8553 164.694 71.7337 163.626C71.3012 162.464 83.2636 147.163 83.2636 144.792C83.2636 142.392 86.4555 125.392 86.4555 125.392C86.4555 125.392 76.4879 126.034 73.0369 131.055C68.7208 137.335 59.757 161.503 64.258 170.834Z" fill="#1C468A"/>
<path d="M71.7351 163.626L91.6537 169.048L89.7841 172.549C89.7841 172.549 65.5438 172.373 64.2595 170.834C62.975 169.294 71.7351 163.626 71.7351 163.626Z" fill="#FC9490"/>
<path d="M105.973 157.05C107.672 159.914 110.691 167.107 114.56 169.47C117.099 171.016 120.544 168.866 122.328 167.735C121.756 166.677 121.095 165.46 120.566 163.96C119.142 164.3 117.404 164.734 116.284 165.087C114.104 165.775 105.973 157.05 105.973 157.05Z" fill="#163560"/>
<path d="M91.6529 169.049C91.6529 169.049 97.908 167.202 99.3979 167.634C100.888 168.065 105.993 171.592 105.275 172.55C104.557 173.507 100.06 171.976 97.9907 172.266C95.9213 172.556 94.3209 173.621 92.8311 173.391C91.341 173.161 89.7832 172.549 89.7832 172.549L91.6529 169.049Z" fill="#FC9490"/>
<path d="M91.6523 169.048C91.6523 169.048 94.7125 167.408 95.5831 166.474C95.6931 166.357 95.8789 166.381 95.9631 166.52C96.1965 166.904 96.4149 167.645 95.3414 168.382C93.7963 169.443 91.6523 169.048 91.6523 169.048Z" fill="#FC9490"/>
<path d="M120.56 178.23H91.377C91.377 176.89 92.4185 175.803 93.7032 175.803H120.56V178.23Z" fill="#EDDD53"/>
<path d="M120.475 145.072H165.594L154.772 178.23H109.36L120.475 145.072Z" fill="#EDDD53"/>
<path d="M166.26 145.072L155.437 178.229H110.026L121.141 145.072H166.26Z" fill="#F8E543"/>
<path d="M141.934 161.344C141.654 162.611 140.442 163.638 139.228 163.638C138.014 163.638 137.257 162.611 137.537 161.344C137.817 160.077 139.029 159.05 140.243 159.05C141.458 159.05 142.215 160.077 141.934 161.344Z" fill="#F8E543"/>
<path d="M166.259 145.072L155.435 178.229H125.362C145.283 171.135 150.586 149.506 151.476 145.072H166.259Z" fill="#EDDD53"/>
<path d="M35.2735 279.686C35.8441 279.686 36.332 279.268 36.4297 278.697L42.0965 245.186L50.2476 196.991L52.5269 183.514L46.7213 183.341L45.7141 191.165L38.6414 246.143L34.4485 278.732C34.3836 279.238 34.7707 279.686 35.2735 279.686Z" fill="#95C0F4"/>
<path d="M45.7139 191.165C49.4752 192.897 50.2476 196.991 50.2476 196.991L52.5269 183.515L46.7213 183.342L45.7139 191.165Z" fill="#78ACEA"/>
<path d="M179.678 279.686C179.107 279.686 178.619 279.268 178.522 278.697L172.855 245.186L164.704 196.991L162.425 183.514L168.231 183.341L169.238 191.165L176.31 246.143L180.503 278.732C180.568 279.238 180.181 279.686 179.678 279.686Z" fill="#95C0F4"/>
<path d="M169.237 191.165C165.476 192.897 164.703 196.992 164.703 196.992L162.424 183.515L168.23 183.342L169.237 191.165Z" fill="#78ACEA"/>
<path d="M28.0281 188.805H183.442C183.536 188.805 183.612 188.725 183.612 188.627V178.401C183.612 178.303 183.536 178.223 183.442 178.223H28.0281C27.9343 178.223 27.8574 178.303 27.8574 178.401V188.627C27.8574 188.725 27.9343 188.805 28.0281 188.805Z" fill="#78ACEA"/>
<path d="M511.977 281.076H0.0229183C0.0104271 281.076 0 281.065 0 281.052V279.683C0 279.67 0.0102378 279.659 0.0229183 279.659H511.977C511.99 279.659 512 279.67 512 279.683V281.052C512 281.065 511.99 281.076 511.977 281.076Z" fill="#2E3552"/>
<path d="M377.321 107.001C377.321 107.001 375.245 100.015 374.067 99.2635C372.888 98.5122 367.974 95.985 367.681 96.6682C367.389 97.3512 370.335 100.669 370.99 101.777C371.644 102.884 371.972 103.977 371.514 103.498C371.055 103.02 368.568 101.421 368.306 101.777C368.044 102.132 369.55 103.498 370.27 104.591C370.99 105.684 371.775 107.528 374.329 107.938C376.882 108.348 377.321 107.001 377.321 107.001Z" fill="#FC9490"/>
<path d="M452.977 165.821C452.977 165.821 452.355 172.131 451.672 173.325C450.99 174.519 448.083 178.333 446.845 179.081C445.607 179.83 447.601 174.056 447.349 172.932C447.096 171.808 446.33 174.982 445.784 175.057C445.238 175.132 445.379 172.275 445.359 171.235C445.34 170.195 448.014 167.629 448.957 165.415C449.9 163.201 452.977 165.821 452.977 165.821Z" fill="#FC9490"/>
<path d="M434.011 101.075C434.011 101.075 428.981 126.828 401.304 135.243C392.665 137.869 373.037 108.195 373.037 108.195C373.037 108.195 373.727 105.459 378.05 106.087C378.05 106.087 397.161 119.287 399.567 120.721C401.702 121.993 415.742 104.365 422.142 101.521C428.542 98.6779 434.011 101.075 434.011 101.075Z" fill="#1C468A"/>
<path d="M467.052 262.97C467.052 262.97 470.486 266.239 469.815 268.561C469.146 270.884 466.047 272.433 465.628 275.272C465.21 278.11 463.535 279.659 462.028 279.659C460.52 279.659 454.841 279.659 454.841 279.659C454.841 279.659 453.731 277.661 456.411 277.059C459.091 276.457 460.101 273.121 459.934 270.024C459.766 266.927 460.185 262.798 460.185 262.798L465.88 261.421L467.052 262.97Z" fill="#293EB7"/>
<path d="M424.93 271.425C424.93 271.425 425.546 278.865 424.039 279.639L404.748 279.598C404.748 279.598 404.748 277.275 407.846 276.759C410.945 276.243 416.388 274.35 417.309 270.134C418.23 265.919 424.93 271.425 424.93 271.425Z" fill="#293EB7"/>
<path d="M408.645 166.333C408.645 166.333 409.662 179.374 410.858 195.05C412.483 216.344 414.438 242.501 414.631 247.456C414.965 256.06 416.307 269.824 416.307 269.824C416.307 269.824 419.488 273.094 425.854 271.716C425.854 271.716 431.527 252.068 433.147 231.279C433.172 230.938 433.197 230.595 433.222 230.252C434.73 209.089 437.074 164.526 437.074 164.526L408.645 166.333Z" fill="#F8E543"/>
<path d="M408.645 166.333C408.645 166.333 409.662 179.374 410.858 195.05L433.147 231.279C433.172 230.938 433.197 230.595 433.223 230.252C434.73 209.089 437.074 164.526 437.074 164.526L408.645 166.333Z" fill="#EDDD53"/>
<path d="M413.29 167.882C413.29 167.882 431.63 215.11 443.689 237.306C455.748 259.501 459.516 265.695 459.516 265.695C459.516 265.695 466.425 262.856 467.053 260.92C467.053 260.92 462.442 218.071 454.366 207.626C449.803 201.724 444.442 184.012 444.191 177.818C443.94 171.624 442.558 159.365 442.558 159.365L413.29 167.882Z" fill="#F8E543"/>
<path d="M437.418 95.0977C437.418 95.0977 425.009 101.344 417.855 99.0267C417.855 99.0267 419.617 96.7091 422.698 94.9846C422.451 93.4865 422.258 92.1865 422.148 91.0841C421.845 88.5403 421.845 87.0987 421.845 87.0987L426.632 83.1701L431.172 79.4106C430.815 89.9817 437.418 95.0977 437.418 95.0977Z" fill="#FC9490"/>
<path d="M443.958 161.784C443.986 162.577 442.364 163.48 441.647 163.818C436.338 166.25 431.385 167.945 425.771 168.511C419.141 169.217 411.299 167.662 408.602 167.72C408.327 167.72 408.079 167.607 407.859 167.408C407.667 167.267 407.53 158.929 407.667 148.442C407.667 148.02 407.667 147.596 407.695 147.172V147.03C407.749 142.932 407.887 138.635 408.079 134.338C408.464 124.899 409.181 115.797 410.391 110.766C411.848 104.83 415.152 100.902 418.151 98.0459L420.626 95.7859C423.102 96.2939 425.716 96.1525 428.33 94.8249C431.192 93.3844 434.274 91.8291 434.769 92.2246C438.51 95.0788 441.042 101.494 442.391 109.693C442.397 109.734 442.405 109.773 442.411 109.814C443.167 114.502 443.546 119.745 443.518 125.237C443.518 127.274 443.463 129.363 443.354 131.427C442.802 140.775 443.171 149.096 443.532 154.862C443.603 156.001 443.676 157.04 443.738 157.968C443.848 159.607 443.931 160.88 443.958 161.784Z" fill="#2A4E96"/>
<path d="M443.533 154.862C422.964 130.085 435.724 112.078 435.724 112.078L442.411 109.813C443.167 114.502 443.547 119.745 443.519 125.237C443.519 127.274 443.464 129.363 443.354 131.427C442.802 140.775 443.171 149.096 443.533 154.862Z" fill="#1C468A"/>
<path d="M431.257 83.4527C431.257 83.4527 428.12 89.4164 422.149 91.0839C421.847 88.5401 421.847 87.0985 421.847 87.0985L426.634 83.1699L431.257 83.4527Z" fill="#F48484"/>
<path d="M419.663 86.9265C419.663 86.9265 431.501 88.9466 432.612 81.3544C433.723 73.7621 435.999 68.9095 428.488 67.2986C420.977 65.6878 419.082 68.3576 418.111 70.7991C417.14 73.2406 416.613 86.2054 419.663 86.9265Z" fill="#FC9490"/>
<path d="M436.915 66.3895C437.023 66.2609 437.27 66.1573 437.822 66.1259C437.822 66.1259 437.381 65.8382 436.792 65.823C436.676 65.0227 436.268 63.6062 434.948 63.262C434.948 63.262 435.658 63.6565 435.75 64.5074C434.221 62.8691 430.945 61.6767 421.873 62.4236C409.917 63.4083 413.857 71.3949 415.405 72.3469C416.953 73.299 420.849 70.6889 423.733 70.9276C426.617 71.1663 427.165 75.514 428.144 76.1107C429.122 76.7072 428.737 75.6524 430.061 75.0281C431.385 74.4037 431.511 76.6922 431.128 78.18C430.746 79.668 432.565 81.6305 432.565 81.6305C432.565 81.6305 432.565 81.6305 434.403 79.5654C436.241 77.5002 437.973 68.753 437.137 66.8885C437.063 66.724 436.99 66.5571 436.915 66.3895Z" fill="#2C3A64"/>
<path d="M434.764 92.1616C434.764 92.1616 442.254 95.8619 445.845 101.55C451.415 110.374 457.872 142.532 457.992 145.51C458.111 148.488 453.279 169.512 453.279 169.512C453.279 169.512 448.378 169.175 447.114 166.595C447.114 166.595 448.093 144.993 447.473 143.605C446.853 142.216 427.042 114.628 429.269 108.742C431.497 102.855 434.764 92.1616 434.764 92.1616Z" fill="#2A4E96"/>
<path d="M377.142 140.513H338.614C338.515 140.513 338.435 140.429 338.435 140.326V129.572C338.435 129.469 338.515 129.385 338.614 129.385H377.142C377.24 129.385 377.321 129.469 377.321 129.572V140.326C377.321 140.429 377.24 140.513 377.142 140.513Z" fill="#111111"/>
<path d="M357.813 137.381C357.605 137.381 357.411 137.265 357.305 137.077L355.753 134.308C355.588 134.015 355.683 133.638 355.963 133.467C356.244 133.296 356.605 133.394 356.769 133.687L357.765 135.463L359.641 131.438C359.783 131.133 360.135 131.005 360.428 131.154C360.72 131.302 360.842 131.67 360.7 131.975L358.343 137.035C358.248 137.239 358.053 137.371 357.836 137.38C357.828 137.38 357.821 137.381 357.813 137.381Z" fill="#F8E543"/>
<path d="M357.814 138.805C355.798 138.805 354.157 137.094 354.157 134.991C354.157 132.887 355.798 131.176 357.814 131.176C359.83 131.176 361.47 132.887 361.47 134.991C361.47 137.094 359.83 138.805 357.814 138.805ZM357.814 131.623C356.034 131.623 354.586 133.134 354.586 134.991C354.586 136.848 356.034 138.359 357.814 138.359C359.594 138.359 361.042 136.848 361.042 134.991C361.041 133.134 359.594 131.623 357.814 131.623Z" fill="#F8E543"/>
<path d="M191.131 100.547H159.564C155.417 100.547 152.023 104.087 152.023 108.414V120.873C152.023 122.85 152.734 124.662 153.899 126.048L152.023 134.992L162.839 128.74H191.131C195.278 128.74 198.672 125.2 198.672 120.873V108.414C198.672 104.087 195.278 100.547 191.131 100.547Z" fill="#78ACEA"/>
<path d="M191.725 110.04H158.999C158.326 110.04 157.774 109.464 157.774 108.762C157.774 108.059 158.326 107.484 158.999 107.484H191.725C192.399 107.484 192.95 108.059 192.95 108.762C192.95 109.464 192.399 110.04 191.725 110.04Z" fill="#2E49D3"/>
<path d="M191.725 115.632H158.999C158.326 115.632 157.774 115.057 157.774 114.354C157.774 113.651 158.326 113.076 158.999 113.076H191.725C192.399 113.076 192.95 113.651 192.95 114.354C192.95 115.057 192.399 115.632 191.725 115.632Z" fill="#2E49D3"/>
<path d="M191.725 121.014H158.999C158.326 121.014 157.774 120.439 157.774 119.736C157.774 119.033 158.326 118.458 158.999 118.458H191.725C192.399 118.458 192.95 119.033 192.95 119.736C192.95 120.439 192.399 121.014 191.725 121.014Z" fill="#2E49D3"/>
</svg>
