<svg width="120" height="80" viewBox="0 0 120 80" fill="none" xmlns="http://www.w3.org/2000/svg">
<path d="M56.1653 65.3771H1.61045C0.720466 65.3759 0 64.7852 0 64.057V1.30847C0.00762847 0.58488 0.726117 0.00115589 1.61045 0H56.1653C57.0561 0 57.7786 0.590891 57.7786 1.32003V64.057C57.7786 64.7862 57.0561 65.3771 56.1653 65.3771ZM1.61045 0.0462357C0.759456 0.0476228 0.0706339 0.612158 0.0706339 1.30847V64.057C0.0706339 64.7533 0.759456 65.3179 1.61045 65.3193H56.1653C57.0166 65.3181 57.7062 64.7536 57.7079 64.057V1.30847C57.7062 0.611927 57.0166 0.0473916 56.1653 0.0462357H1.61045Z" fill="#E6E6E6"/>
<path d="M117.281 65.3771H62.7229C61.8326 65.3759 61.111 64.7855 61.1096 64.057V1.30847C61.1189 0.584417 61.838 0.00115589 62.7229 0H117.281C118.164 0.00254295 118.881 0.585804 118.888 1.30847V64.057C118.888 64.7843 118.169 65.3745 117.281 65.3771ZM62.7229 0.0462357C61.8716 0.0476228 61.1817 0.611927 61.1802 1.30847V64.057C61.1817 64.7536 61.8716 65.3179 62.7229 65.3193H117.281C118.132 65.3181 118.822 64.7536 118.823 64.057V1.30847C118.822 0.611927 118.132 0.0473916 117.281 0.0462357H62.7229Z" fill="#E6E6E6"/>
<path d="M15.6511 77.0931H4.00781V77.1509H15.6511V77.0931Z" fill="white"/>
<path d="M39.3842 76.6308H27.707V76.6886H39.3842V76.6308Z" fill="white"/>
<path d="M54.5788 76.6308H51.7534V76.6886H54.5788V76.6308Z" fill="white"/>
<path d="M26.3395 78.605H13.2722V78.6628H26.3395V78.605Z" fill="white"/>
<path d="M71.5366 77.0631H65.4338V77.1209H71.5366V77.0631Z" fill="white"/>
<path d="M81.9425 77.0631H74.0513V77.1209H81.9425V77.0631Z" fill="white"/>
<path d="M120 78.041H102.358V78.0987H120V78.041Z" fill="white"/>
<path d="M105.339 12.8292H91.8877V20.5205H105.339V12.8292Z" fill="#E6E6E6"/>
<path d="M97.9537 12.8292H91.8877V20.5205H97.9537V12.8292Z" fill="#F0F0F0"/>
<path opacity="0.4" d="M94.916 13.8718C96.0224 13.8718 96.9192 14.6056 96.9192 15.5109C96.9192 16.4162 96.0224 17.1499 94.916 17.1499C93.8096 17.1499 92.9128 16.4162 92.9128 15.5109C92.9128 14.6056 93.8096 13.8718 94.916 13.8718Z" fill="white"/>
<path d="M95.8934 18.7081C95.8934 19.1499 95.4557 19.508 94.9158 19.508C94.3759 19.508 93.9382 19.1499 93.9382 18.7081C93.9382 18.2663 94.3759 17.9082 94.9158 17.9082C95.4557 17.9082 95.8934 18.2665 95.8934 18.7081Z" fill="white"/>
<path d="M94.9014 16.0886C95.2162 16.0886 95.4713 15.8798 95.4713 15.6223C95.4713 15.3648 95.2162 15.156 94.9014 15.156C94.5867 15.156 94.3315 15.3648 94.3315 15.6223C94.3315 15.8798 94.5867 16.0886 94.9014 16.0886Z" fill="#FAFAFA"/>
<path d="M76.6213 10.0752H70.8044V20.5235H76.6213V10.0752Z" fill="#F0F0F0"/>
<path d="M84.1809 10.0752H76.4629V20.5235H84.1809V10.0752Z" fill="#E6E6E6"/>
<path d="M73.6918 13.3928C74.1368 13.3928 74.4976 13.688 74.4976 14.0521C74.4976 14.4162 74.1368 14.7112 73.6918 14.7112C73.2468 14.7112 72.886 14.416 72.886 14.0521C72.8863 13.688 73.2471 13.3928 73.6918 13.3928Z" fill="white"/>
<path d="M73.6917 12.3638C73.9141 12.3638 74.0946 12.5113 74.0946 12.6935C74.0946 12.8757 73.9144 13.0232 73.6917 13.0232C73.4694 13.0232 73.2888 12.8757 73.2888 12.6935C73.2888 12.5113 73.4694 12.3638 73.6917 12.3638Z" fill="white"/>
<path d="M73.6917 11.3647C73.9141 11.3647 74.0946 11.5122 74.0946 11.6943C74.0946 11.8765 73.9144 12.024 73.6917 12.024C73.4694 12.024 73.2888 11.8765 73.2888 11.6943C73.2888 11.5122 73.4694 11.3647 73.6917 11.3647Z" fill="white"/>
<path d="M84.0456 15.9355H70.9348V16.1004H84.0456V15.9355Z" fill="white"/>
<path d="M84.0456 16.8625H70.9348V17.0274H84.0456V16.8625Z" fill="white"/>
<path d="M84.0456 17.7896H70.9348V17.9544H84.0456V17.7896Z" fill="white"/>
<path d="M84.0456 18.7166H70.9348V18.8814H84.0456V18.7166Z" fill="white"/>
<path d="M84.0456 19.6436H70.9348V19.8084H84.0456V19.6436Z" fill="white"/>
<path d="M73.8301 16.2171H73.2764V16.6702H73.8301V16.2171Z" fill="white"/>
<path d="M73.8301 17.1923H73.2764V17.6454H73.8301V17.1923Z" fill="white"/>
<path d="M73.8301 18.0712H73.2764V18.5243H73.8301V18.0712Z" fill="white"/>
<path d="M73.8301 19.0187H73.2764V19.4718H73.8301V19.0187Z" fill="white"/>
<path d="M73.8301 19.9393H73.2764V20.3924H73.8301V19.9393Z" fill="white"/>
<path d="M59.6898 30.8127H59.4072V21.9577C59.4072 20.9639 60.3953 20.1555 61.6099 20.1555H70.9347V20.3866H61.6099C60.5512 20.3866 59.6898 21.0915 59.6898 21.9577V30.8127Z" fill="white"/>
<path d="M59.1246 30.8259H58.842V21.8928C58.842 20.6869 60.0408 19.7058 61.5145 19.7058H70.9346V19.937H61.5145C60.1968 19.937 59.1246 20.8143 59.1246 21.8928V30.8259Z" fill="white"/>
<path d="M28.1873 8.61646H19.3411V16.3216H28.1873V8.61646Z" fill="#E6E6E6"/>
<path d="M30.4532 8.61646H28.1873V16.3216H30.4532V8.61646Z" fill="#F5F5F5"/>
<path d="M23.6667 7.42822H17.0215V16.3216H23.6667V7.42822Z" fill="#E6E6E6"/>
<path d="M25.5853 7.42822H23.6641V16.3216H25.5853V7.42822Z" fill="#F5F5F5"/>
<path d="M21.7089 8.61646H16.1062V16.3216H21.7089V8.61646Z" fill="#EBEBEB"/>
<path d="M22.9886 8.61646H21.7087V16.3216H22.9886V8.61646Z" fill="#F5F5F5"/>
<path d="M17.1232 9.92029H9.77441V16.3216H17.1232V9.92029Z" fill="#E6E6E6"/>
<path d="M19.005 9.92029H17.1233V16.3216H19.005V9.92029Z" fill="#F5F5F5"/>
<path d="M13.3684 8.93317H7.84766V16.3216H13.3684V8.93317Z" fill="#E6E6E6"/>
<path d="M14.9618 8.93317H13.3655V16.3216H14.9618V8.93317Z" fill="#F5F5F5"/>
<path d="M11.7409 9.92029H6.37842V16.3216H11.7409V9.92029Z" fill="#E6E6E6"/>
<path d="M12.806 9.92029H11.7437V16.3216H12.806V9.92029Z" fill="#F0F0F0"/>
<path d="M0.110989 18.5475L57.7483 18.5475V16.3175L0.110989 16.3175V18.5475Z" fill="#E6E6E6"/>
<path d="M10.4541 18.6001H13.6425L11.3201 21.4695H10.4541V18.6001Z" fill="white"/>
<path d="M10.4537 18.6001H9.99463V21.4695H10.4537V18.6001Z" fill="white"/>
<path d="M46.2537 18.6001H49.4424L47.1196 21.4695H46.2537V18.6001Z" fill="white"/>
<path d="M46.2536 18.6001H45.7942V21.4695H46.2536V18.6001Z" fill="white"/>
<path d="M118.843 20.5235H61.2056V22.7534H118.843V20.5235Z" fill="#E6E6E6"/>
<path d="M108.5 25.6755H107.634L105.311 22.8062H108.5V25.6755Z" fill="white"/>
<path d="M108.959 22.8062H108.5V25.6755H108.959V22.8062Z" fill="white"/>
<path d="M72.7001 25.6755H71.8342L69.5117 22.8062H72.7001V25.6755Z" fill="white"/>
<path d="M73.1596 22.8062H72.7002V25.6755H73.1596V22.8062Z" fill="white"/>
<path d="M44.5969 11.8271C44.5969 11.4872 44.5359 11.1585 44.4203 10.8496L45.4685 10.0953L44.8085 9.15996L43.4857 9.52592C42.9384 9.04784 42.223 8.70084 41.4167 8.54757L41.142 7.42798H39.8223L39.5485 8.54757C38.7422 8.70084 38.026 9.04784 37.4787 9.52592L36.1559 9.15996L35.4958 10.0953L36.5438 10.8496C36.4293 11.1585 36.3672 11.4872 36.3672 11.8271C36.3672 12.1678 36.4293 12.4956 36.5438 12.8054L35.4958 13.559L36.1559 14.4944L37.4787 14.1284C38.026 14.6065 38.7422 14.9535 39.5485 15.1075L39.8223 16.2271H41.142L41.4167 15.1075C42.223 14.9535 42.9384 14.6065 43.4857 14.1284L44.8085 14.4944L45.4685 13.559L44.4203 12.8054C44.5359 12.4956 44.5969 12.1678 44.5969 11.8271ZM40.4823 13.6446C39.3013 13.6446 38.3444 12.8609 38.3444 11.8946C38.3444 10.9282 39.3013 10.1445 40.4823 10.1445C41.6633 10.1445 42.6211 10.9282 42.6211 11.8946C42.6211 12.8609 41.6633 13.6446 40.4823 13.6446Z" fill="#F0F0F0"/>
<path d="M51.7347 12.3927C51.592 12.2018 51.4194 12.0344 51.2247 11.8936L51.4962 11.1751L50.7328 10.8355L50.1437 11.413C49.6354 11.2986 49.0882 11.3048 48.5708 11.4456L47.9461 10.8942L47.205 11.2655L47.5218 11.9711C47.1333 12.2841 46.877 12.6803 46.7705 13.1027L45.874 13.2691L45.8963 13.98L46.8019 14.1088C46.8674 14.3145 46.9705 14.5166 47.1135 14.7073C47.2568 14.8985 47.4294 15.0654 47.6238 15.2069L47.352 15.9249L48.1154 16.2645L48.7045 15.6868C49.2128 15.8012 49.7606 15.7947 50.2782 15.6544L50.9023 16.206L51.6434 15.8347L51.3272 15.1287C51.7154 14.8155 51.9711 14.4195 52.0777 13.9969L52.9741 13.8304L52.9515 13.1195L52.0463 12.9912C51.9813 12.7853 51.8779 12.5839 51.7347 12.3927ZM50.1878 14.5706C49.5247 14.9029 48.6581 14.732 48.2521 14.1892C47.8461 13.6466 48.0541 12.9374 48.7172 12.6052C49.3803 12.273 50.2474 12.4436 50.6534 12.9862C51.0597 13.529 50.8509 14.2384 50.1878 14.5706Z" fill="#F0F0F0"/>
<path d="M117.132 49.5621H1.9646V50.7478H117.132V49.5621Z" fill="#F8E643"/>
<path d="M8.82446 50.4128V78.6951H9.72293L10.8531 50.4128H8.82446Z" fill="#F8E643"/>
<path d="M19.4309 51.3376V77.5393H20.3294L21.4595 51.3376H19.4309Z" fill="#F8E643"/>
<path opacity="0.5" d="M19.4309 51.3376V77.5393H20.3294L21.4595 51.3376H19.4309Z" fill="black"/>
<path d="M110.68 50.4128V78.6951H109.785L108.652 50.4128H110.68Z" fill="#F8E643"/>
<path d="M100.077 51.3376V77.5393H99.1785L98.0483 51.3376H100.077Z" fill="#F8E643"/>
<path opacity="0.5" d="M100.077 51.3376V77.5393H99.1785L98.0483 51.3376H100.077Z" fill="black"/>
<path d="M112.729 52.017H6.70564L4.3606 50.7481H115.074L112.729 52.017Z" fill="#F8E643"/>
<path opacity="0.5" d="M112.729 52.017H6.70564L4.3606 50.7481H115.074L112.729 52.017Z" fill="black"/>
<path d="M9.53442 45.9266V46.8414C9.53442 46.9956 9.60788 47.1403 9.74068 47.2497L10.6374 47.9832C10.7194 48.0505 10.8194 48.0965 10.9276 48.1237C11.2935 48.7671 12.0883 49.2142 13.0127 49.2142H13.3484C14.6192 49.2142 15.6493 48.3713 15.6493 47.3317V45.1744H10.7118V45.3494H10.2399C9.85086 45.3491 9.53442 45.6083 9.53442 45.9266ZM10.0995 45.9266C10.0995 45.8633 10.1625 45.8115 10.2399 45.8115H10.7118V47.3315C10.7118 47.3523 10.7146 47.3724 10.7154 47.393L10.1405 46.9225C10.1145 46.901 10.0995 46.8715 10.0995 46.8412V45.9266Z" fill="#F8E643"/>
<path opacity="0.5" d="M9.53442 45.9266V46.8414C9.53442 46.9956 9.60788 47.1403 9.74068 47.2497L10.6374 47.9832C10.7194 48.0505 10.8194 48.0965 10.9276 48.1237C11.2935 48.7671 12.0883 49.2142 13.0127 49.2142H13.3484C14.6192 49.2142 15.6493 48.3713 15.6493 47.3317V45.1744H10.7118V45.3494H10.2399C9.85086 45.3491 9.53442 45.6083 9.53442 45.9266ZM10.0995 45.9266C10.0995 45.8633 10.1625 45.8115 10.2399 45.8115H10.7118V47.3315C10.7118 47.3523 10.7146 47.3724 10.7154 47.393L10.1405 46.9225C10.1145 46.901 10.0995 46.8715 10.0995 46.8412V45.9266Z" fill="white"/>
<path d="M16.8213 49.523H9.71863C9.25668 49.523 8.88232 49.1809 8.88232 49.1809H17.6576C17.6576 49.1809 17.2832 49.523 16.8213 49.523Z" fill="#F8E643"/>
<path opacity="0.5" d="M16.8213 49.523H9.71863C9.25668 49.523 8.88232 49.1809 8.88232 49.1809H17.6576C17.6576 49.1809 17.2832 49.523 16.8213 49.523Z" fill="white"/>
<path d="M112.382 46.7048C112.345 45.7872 111.491 45.5623 110.376 45.4587V45.1235C110.374 45.0431 110.293 44.979 110.195 44.9806C110.194 44.9806 110.192 44.9806 110.191 44.9806H106.344C106.244 44.9774 106.159 45.0412 106.155 45.1233V49.4953H110.376V49.0172C111.493 48.9148 112.348 47.6239 112.382 46.7048ZM110.376 48.452V46.0242C111.195 46.1229 111.762 46.2147 111.641 46.8851C111.544 47.4207 111.03 48.3729 110.376 48.452Z" fill="#F8E643"/>
<g opacity="0.5">
<path d="M112.382 46.7048C112.345 45.7872 111.491 45.5623 110.376 45.4587V45.1235C110.374 45.0431 110.293 44.979 110.195 44.9806C110.194 44.9806 110.192 44.9806 110.191 44.9806H106.344C106.244 44.9774 106.159 45.0412 106.155 45.1233V49.4953H110.376V49.0172C111.493 48.9148 112.348 47.6239 112.382 46.7048ZM110.376 48.452V46.0242C111.195 46.1229 111.762 46.2147 111.641 46.8851C111.544 47.4207 111.03 48.3729 110.376 48.452Z" fill="white"/>
</g>
<path d="M61.1099 43.9239H57.7788V49.4611H61.1099V43.9239Z" fill="#F8E643"/>
<path opacity="0.5" d="M61.1099 43.9239H57.7788V49.4611H61.1099V43.9239Z" fill="white"/>
<path d="M62.6137 49.5602H56.3027L57.842 48.4515H61.0745L62.6137 49.5602Z" fill="#F8E643"/>
<path opacity="0.5" d="M62.6137 49.5602H56.3027L57.842 48.4515H61.0745L62.6137 49.5602Z" fill="white"/>
<path d="M76.4892 47.7674H60.7124L63.5632 49.5669H79.3372L76.4892 47.7674Z" fill="#F8E643"/>
<path opacity="0.4" d="M76.4892 47.7674H60.7124L63.5632 49.5669H79.3372L76.4892 47.7674Z" fill="white"/>
<path d="M61.0769 49.5669L60.7124 47.7674L63.5632 49.5669H61.0769Z" fill="#F8E643"/>
<path opacity="0.5" d="M61.0769 49.5669L60.7124 47.7674L63.5632 49.5669H61.0769Z" fill="black"/>
<path d="M45.0054 30.8191H73.7209C74.0218 30.8191 74.2657 31.0186 74.2657 31.2648V45.673C74.2657 45.9192 74.0218 46.1187 73.7209 46.1187H45.0054C44.7045 46.1187 44.4607 45.9192 44.4607 45.673V31.2648C44.4607 31.0186 44.7045 30.8191 45.0054 30.8191Z" fill="#F8E643"/>
<path opacity="0.5" d="M73.1531 31.775H45.5435V45.108H73.1531V31.775Z" fill="black"/>
<path opacity="0.4" d="M72.2759 34.5175H58.3438V42.3655H72.2759V34.5175Z" fill="black"/>
<path d="M72.2759 34.5175H58.3438V35.2364H72.2759V34.5175Z" fill="#F8E643"/>
<path d="M60.8965 38.8578L63.1743 39.8907C63.2884 39.9432 63.3647 39.9901 63.4023 40.031C63.4399 40.0722 63.4588 40.1246 63.4588 40.1882C63.4588 40.2687 63.4232 40.3385 63.3526 40.3974C63.2816 40.4564 63.1991 40.4857 63.1056 40.4857C63.0437 40.4857 62.9514 40.4578 62.8279 40.4016L59.8895 39.0645C59.6915 38.9743 59.6915 38.7413 59.8895 38.6511L62.8279 37.314C62.9514 37.2597 63.0426 37.2326 63.1022 37.2326C63.1983 37.2326 63.2816 37.2617 63.3528 37.3198C63.4238 37.3778 63.4591 37.4469 63.4591 37.5274C63.4591 37.5909 63.4401 37.6434 63.4026 37.6846C63.3647 37.7257 63.2887 37.7724 63.1746 37.8249L60.8965 38.8578Z" fill="white"/>
<path d="M66.7572 36.9323L64.5034 40.9067C64.446 41.0059 64.3946 41.0704 64.3489 41.1005C64.2892 41.1398 64.2175 41.1594 64.1327 41.1594C64.0366 41.1594 63.9539 41.1314 63.8841 41.075C63.8143 41.0189 63.7795 40.9553 63.7795 40.8843C63.7795 40.8339 63.807 40.7599 63.8618 40.6626L66.1223 36.6912C66.1794 36.592 66.2297 36.5275 66.2732 36.4975C66.3351 36.4582 66.4071 36.4385 66.4893 36.4385C66.5854 36.4385 66.6676 36.4663 66.7363 36.5213C66.8049 36.5766 66.8394 36.6397 66.8394 36.7109C66.8397 36.7613 66.8123 36.8352 66.7572 36.9323Z" fill="white"/>
<path d="M69.5911 38.8578L67.3133 37.8249C67.1989 37.7726 67.1229 37.7257 67.0853 37.6846C67.0475 37.6434 67.0288 37.5909 67.0288 37.5274C67.0288 37.4469 67.0641 37.3776 67.135 37.3198C67.206 37.2617 67.2893 37.2326 67.3854 37.2326C67.445 37.2326 67.5365 37.2597 67.6597 37.314L70.5981 38.6511C70.7961 38.7413 70.7961 38.9743 70.5981 39.0645L67.6597 40.4016C67.5362 40.4578 67.4447 40.4857 67.3854 40.4857C67.2882 40.4857 67.2037 40.4559 67.1325 40.3967C67.0653 40.3408 67.0288 40.2668 67.0288 40.1882C67.0288 40.1246 67.0477 40.0724 67.0853 40.0312C67.1232 39.9901 67.1989 39.9432 67.3133 39.8909L69.5911 38.8578Z" fill="white"/>
<path d="M47.6184 33.0058H46.6753V33.7775H47.6184V33.0058Z" fill="white"/>
<path d="M47.6184 35.0037H46.6753V35.7753H47.6184V35.0037Z" fill="white"/>
<path d="M47.6184 37.0015H46.6753V37.7731H47.6184V37.0015Z" fill="white"/>
<path d="M47.6184 38.9993H46.6753V39.771H47.6184V38.9993Z" fill="white"/>
<path d="M47.6184 40.9971H46.6753V41.7688H47.6184V40.9971Z" fill="white"/>
<path d="M47.6184 42.995H46.6753V43.7667H47.6184V42.995Z" fill="white"/>
<path d="M52.2746 33.1796H48.5146V33.4108H52.2746V33.1796Z" fill="white"/>
<path d="M50.7303 35.1828H49.3911V35.414H50.7303V35.1828Z" fill="white"/>
<path d="M56.5592 37.4299H55.22V37.661H56.5592V37.4299Z" fill="white"/>
<path d="M50.7303 39.2131H49.3911V39.4443H50.7303V39.2131Z" fill="white"/>
<path d="M52.6617 39.2131H51.3225V39.4443H52.6617V39.2131Z" fill="white"/>
<path d="M54.7446 37.4299H51.3225V37.661H54.7446V37.4299Z" fill="white"/>
<path d="M55.5691 39.2131H53.3159V39.4443H55.5691V39.2131Z" fill="white"/>
<path d="M54.6473 43.4964H53.3081V43.7276H54.6473V43.4964Z" fill="white"/>
<path d="M56.5785 43.4964H55.2393V43.7276H56.5785V43.4964Z" fill="white"/>
<path d="M57.9813 43.4964H57.2332V43.7276H57.9813V43.4964Z" fill="white"/>
<path d="M55.569 35.1828H51.4016V35.414H55.569V35.1828Z" fill="white"/>
<path d="M52.6617 41.2997H51.3225V41.5309H52.6617V41.2997Z" fill="white"/>
<path d="M53.8833 41.2997H53.1091V41.5309H53.8833V41.2997Z" fill="white"/>
<path d="M56.6624 41.2997H54.4756V41.5309H56.6624V41.2997Z" fill="white"/>
<path d="M57.0246 24.4523C56.9556 27.2495 53.4025 29.5946 49.0887 29.688C47.7653 29.7243 46.4566 29.5259 45.2233 29.1022C44.7899 29.9809 43.8737 30.7345 41.248 31.0721C43.9878 29.3408 42.4892 27.8765 41.8645 26.5877C41.5467 26.049 41.3842 25.4279 41.3936 24.7893C41.4625 21.9905 45.0157 19.647 49.3294 19.5536C53.646 19.4526 57.0935 21.655 57.0246 24.4523Z" fill="#F8E643"/>
<path d="M49.301 21.5235H45.541V21.7547H49.301V21.5235Z" fill="white"/>
<path d="M47.7565 23.5267H46.4172V23.7579H47.7565V23.5267Z" fill="white"/>
<path d="M53.5853 25.7735H52.2461V26.0047H53.5853V25.7735Z" fill="white"/>
<path d="M47.7565 27.557H46.4172V27.7882H47.7565V27.557Z" fill="white"/>
<path d="M49.6879 27.557H48.3486V27.7882H49.6879V27.557Z" fill="white"/>
<path d="M51.7707 25.7735H48.3486V26.0047H51.7707V25.7735Z" fill="white"/>
<path d="M52.5953 27.557H50.342V27.7882H52.5953V27.557Z" fill="white"/>
<path d="M52.5951 23.5267H48.4277V23.7579H52.5951V23.5267Z" fill="white"/>
<path d="M73.3353 77.4487L71.2756 76.9447L71.7559 72.8136L73.8156 73.3176L73.3353 77.4487Z" fill="#7F3E3B"/>
<path opacity="0.2" d="M73.9853 72.3843L71.9256 71.8826L71.6572 74.1967L73.7395 74.5134L73.9853 72.3843Z" fill="black"/>
<path d="M85.5267 51.9336C85.5267 51.9336 71.3632 52.9115 71.7107 57.9442C71.9958 62.0645 72.742 60.9444 71.2756 73.1941L74.8387 73.355C74.8387 73.355 78.4633 63.3353 77.9746 59.3544C81.9668 59.3544 91.1068 59.6411 92.4347 56.6935C93.0942 55.1969 93.4149 53.6145 93.3812 52.0238L85.5267 51.9336Z" fill="#F8E643"/>
<path d="M75.4055 73.9191L70.7493 73.2671L70.8255 71.5818L75.6456 72.458L75.4055 73.9191Z" fill="#111111"/>
<path d="M71.0639 76.2514L73.4428 76.6364C73.5264 76.6463 73.5866 76.7191 73.5784 76.8003L73.3806 78.6407C73.3445 78.839 73.1515 78.9733 72.9455 78.9437C72.1205 78.7963 71.7306 78.6871 70.6852 78.5179C70.0411 78.4141 68.5691 78.1603 67.6734 78.0784C66.7778 77.9966 66.8851 77.1392 67.2722 77.0955C69.0126 76.9071 70.0015 76.6777 70.6768 76.3201C70.7943 76.2561 70.9305 76.2323 71.0639 76.2514Z" fill="#111111"/>
<path d="M69.9964 76.5851C70.1837 76.6059 70.373 76.6105 70.5614 76.5989C70.5806 76.5987 70.5979 76.5885 70.6038 76.5735C70.6134 76.5599 70.6134 76.5432 70.6038 76.5296C70.5445 76.481 70.0105 76.0672 69.7364 76.1135C69.672 76.1225 69.6189 76.1599 69.598 76.2106C69.5528 76.2845 69.5593 76.3726 69.6149 76.4417C69.7164 76.5261 69.8523 76.5772 69.9964 76.5851ZM70.4512 76.5226C70.0585 76.5226 69.7816 76.4857 69.6997 76.3909C69.6669 76.3453 69.6669 76.2885 69.6997 76.2429C69.7087 76.2177 69.7336 76.1983 69.7647 76.1921C69.9088 76.1666 70.2309 76.3608 70.4512 76.5226Z" fill="#F8E643"/>
<path d="M70.5643 76.5989C70.5643 76.5989 70.5784 76.5989 70.5869 76.5989C70.6033 76.5938 70.6157 76.5827 70.6208 76.5689C70.6208 76.548 70.7762 76.0556 70.5954 75.8591C70.5508 75.8057 70.4767 75.7736 70.3976 75.7736C70.3106 75.7634 70.2261 75.8037 70.1942 75.8707C70.1066 76.0533 70.3496 76.4579 70.5389 76.5897C70.5457 76.5954 70.5547 76.5987 70.5643 76.5989ZM70.4174 75.8568C70.4575 75.8621 70.4931 75.8804 70.5163 75.9077C70.5991 76.0901 70.6081 76.2896 70.5417 76.4764C70.3705 76.318 70.2795 76.112 70.2874 75.9008C70.2874 75.8776 70.3185 75.8522 70.392 75.8545L70.4174 75.8568Z" fill="#F8E643"/>
<path d="M64.1529 78.0913L62.1921 77.3701L63.5483 73.4123L65.5091 74.1336L64.1529 78.0913Z" fill="#7F3E3B"/>
<path opacity="0.2" d="M65.8403 73.115L63.8795 72.3937L63.1816 74.435L65.1424 75.1563L65.8403 73.115Z" fill="black"/>
<path d="M81.3112 51.9336C81.218 51.9336 65.4327 53.2629 65.4129 57.6437C65.379 64.8888 62.8503 73.1941 62.8503 73.1941L65.9701 74.4586C65.9701 74.4586 71.4027 65.4552 71.3208 59.8075C75.6633 58.788 86.897 60.501 88.2249 57.5558C89.3126 55.147 88.725 51.9336 88.725 51.9336H81.3112Z" fill="#F8E643"/>
<path d="M66.4689 74.8253L62.2874 73.2856L62.6236 71.8847L67.034 73.1308L66.4689 74.8253Z" fill="#111111"/>
<path d="M62.3871 76.0399L64.7717 76.4452C64.8542 76.4577 64.9129 76.5372 64.9045 76.6253L64.718 78.6485C64.6861 78.8681 64.4928 79.0186 64.286 78.9849H64.2857C63.4607 78.8288 63.0708 78.7086 62.0254 78.5316C61.3812 78.4236 59.6267 78.0752 58.7424 77.8861C57.858 77.697 58.0558 76.7753 58.4598 76.7693C60.2087 76.7482 61.3417 76.5141 62.0141 76.1148C62.1271 76.0471 62.2582 76.0207 62.3871 76.0399Z" fill="#111111"/>
<path d="M61.4077 76.4768C61.5739 76.4031 61.7295 76.315 61.8731 76.2142C61.8889 76.2036 61.8957 76.1862 61.8897 76.1701C61.8838 76.1553 61.8674 76.1446 61.8485 76.1432C61.7657 76.1326 61.0362 76.0549 60.8472 76.2274C60.8048 76.2674 60.7904 76.3224 60.809 76.373C60.8254 76.4546 60.8941 76.5228 60.989 76.5517C61.1348 76.5707 61.2845 76.5439 61.4077 76.4768ZM61.7267 76.207C61.4196 76.404 61.1625 76.5 61.0274 76.466C60.967 76.4445 60.9257 76.398 60.9195 76.3444C60.9088 76.3201 60.9155 76.2928 60.937 76.2739C61.0382 76.1909 61.4337 76.1839 61.7267 76.207Z" fill="#F8E643"/>
<path d="M61.8731 76.2142L61.8938 76.202C61.9042 76.1914 61.9065 76.1768 61.8988 76.1645C61.8839 76.1477 61.6516 75.6742 61.364 75.6023C61.2894 75.5824 61.2078 75.5928 61.1442 75.6303C61.0668 75.6652 61.0284 75.7387 61.0512 75.8085C61.1117 75.9983 61.5996 76.2055 61.8497 76.2193C61.8579 76.2191 61.8658 76.2175 61.8731 76.2142ZM61.2162 75.6876C61.2518 75.6712 61.2942 75.6677 61.3335 75.6779C61.5327 75.7854 61.6853 75.9419 61.7692 76.1248C61.5154 76.0811 61.292 75.9593 61.145 75.7845C61.1284 75.7658 61.1352 75.7302 61.1965 75.6969L61.2162 75.6876Z" fill="#F8E643"/>
<path d="M86.6738 37.9559C87.0892 38.6865 87.431 39.3892 87.7729 40.1198C88.1148 40.8503 88.4171 41.5808 88.6968 42.3298C88.9765 43.0788 89.2195 43.8463 89.4144 44.6416C89.6272 45.4678 89.7331 46.31 89.7309 47.1545C89.7275 47.6504 89.6371 48.143 89.4625 48.6179C89.3525 48.9087 89.1938 49.1856 88.9906 49.4408C88.8725 49.5856 88.7372 49.7203 88.5866 49.8431L88.4651 49.9402C88.3973 49.9864 88.3238 50.0373 88.2532 50.0766C88.134 50.1434 88.0074 50.2007 87.8746 50.2477C87.6788 50.3186 87.4743 50.372 87.2643 50.4072C87.0993 50.4358 86.9323 50.4559 86.7642 50.4673C86.4772 50.4821 86.1896 50.4821 85.9025 50.4673C85.3928 50.4474 84.8851 50.4012 84.3825 50.3286C82.507 50.0498 80.6699 49.6191 78.8984 49.0432L79.3081 47.7694C81.1022 47.9451 82.9331 48.1324 84.6593 48.1971C85.0888 48.1971 85.507 48.2133 85.8969 48.1971C86.0706 48.1895 86.2432 48.1717 86.4139 48.1439C86.5552 48.1231 86.6766 48.0815 86.6343 48.0838C86.6063 48.0917 86.5795 48.1026 86.5552 48.1162C86.5269 48.1301 86.5003 48.1462 86.476 48.1647C86.476 48.1647 86.4902 48.1462 86.5015 48.1254C86.5382 48.0593 86.5665 47.9904 86.5862 47.9197C86.6492 47.6656 86.675 47.4065 86.6625 47.1476C86.621 46.4855 86.5009 45.828 86.3037 45.1849C86.1116 44.4913 85.8629 43.8163 85.5917 43.1297C85.3205 42.4431 85.0266 41.7565 84.7046 41.0722C84.3825 40.3879 84.0434 39.7013 83.71 39.0563L86.6738 37.9559Z" fill="#7F3E3B"/>
<path d="M80.0877 48.1162L78.2145 47.2539L77.2737 48.9138C77.2737 48.9138 79.4633 49.6605 79.9239 49.1935L80.0877 48.1162Z" fill="#7F3E3B"/>
<path d="M76.6974 47.5683L75.8413 48.6779L77.2738 48.9022L78.2146 47.2423L76.6974 47.5683Z" fill="#7F3E3B"/>
<path d="M82.3058 39.2743C81.947 40.0118 81.5712 40.7169 81.1757 41.4312C80.7801 42.1456 80.3846 42.8483 79.9664 43.5511C79.1247 44.9821 78.1813 46.3715 77.1411 47.7123C76.8585 48.0545 76.576 48.3943 76.2595 48.7341C76.1013 48.9052 75.9262 49.0739 75.7397 49.2473C75.638 49.3352 75.556 49.4161 75.4374 49.5062L75.2678 49.6403L75.1718 49.7143C74.9028 49.9027 74.5864 50.04 74.2451 50.1166C74.0651 50.1584 73.882 50.1901 73.6969 50.2113C73.3952 50.2412 73.0909 50.2513 72.7872 50.2414C72.2625 50.2278 71.7395 50.1852 71.2219 50.1142C69.3063 49.8375 67.43 49.4022 65.6221 48.815L66.0346 47.5389C67.8626 47.7192 69.7301 47.9111 71.4875 47.9712C71.902 47.9844 72.3168 47.9795 72.7307 47.9574C72.8974 47.9467 73.0627 47.925 73.2251 47.8926C73.2782 47.8825 73.3294 47.867 73.3777 47.8464C73.3946 47.8464 73.3777 47.8302 73.3014 47.8695C73.2737 47.8822 73.248 47.8977 73.2251 47.9157C73.2251 47.9157 73.2449 47.8949 73.2534 47.888L73.3325 47.8163C73.3833 47.7747 73.4455 47.7054 73.5048 47.6499C73.6207 47.5297 73.7393 47.4002 73.858 47.2592C74.0925 46.9841 74.3213 46.6789 74.5474 46.3692C74.9994 45.7496 75.4204 45.0908 75.8329 44.425C76.2454 43.7592 76.641 43.0795 77.0309 42.3952C77.8078 41.0313 78.5679 39.6326 79.2912 38.2571L82.3058 39.2743Z" fill="#7F3E3B"/>
<path d="M66.8369 47.8718L64.9609 46.998L64.02 48.6578C64.02 48.6578 66.2097 49.4069 66.673 48.9399L66.8369 47.8718Z" fill="#7F3E3B"/>
<path d="M63.4465 47.3263L62.5876 48.4336L64.0201 48.6578L64.9609 46.998L63.4465 47.3263Z" fill="#7F3E3B"/>
<path d="M87.1572 31.0721L85.9592 32.2072L84.1309 33.7547C84.1685 33.8308 84.2191 33.93 84.2708 34.0349C84.4115 34.3202 84.4948 34.623 84.5146 34.93C84.5544 35.5503 84.4818 36.0748 83.2864 36.4953C83.2864 36.4953 82.032 37.8362 85.0155 37.464C87.9991 37.0918 88.4483 35.8249 88.4483 35.8249C87.1261 35.0553 87.0526 32.4962 87.1572 31.0721Z" fill="#7F3E3B"/>
<path d="M81.074 29.7914C81.074 29.944 80.9808 30.0735 80.8565 30.0781C80.7321 30.0827 80.6333 29.9625 80.6304 29.8099C80.6276 29.6573 80.7265 29.5279 80.848 29.5233C80.9695 29.5186 81.0712 29.6389 81.074 29.7914Z" fill="#111111"/>
<path d="M81.6984 29.2227C81.6614 29.2225 81.6275 29.2068 81.608 29.1811C81.4599 28.9821 81.2074 28.8505 80.9243 28.8251C80.8641 28.8226 80.8169 28.7819 80.8169 28.7326C80.8183 28.6829 80.8689 28.6436 80.9299 28.6448C81.287 28.6707 81.6077 28.8337 81.7945 29.084C81.8258 29.1263 81.8109 29.1814 81.7606 29.2089C81.7416 29.2179 81.7202 29.2227 81.6984 29.2227Z" fill="#111111"/>
<path d="M81.0063 29.877C80.8548 30.2933 80.6362 30.6914 80.3564 31.0606C80.5912 31.169 80.8732 31.1859 81.1249 31.1068L81.0063 29.877Z" fill="#630F0F"/>
<path d="M87.3266 29.0216C87.2164 30.908 87.2673 32.0269 86.123 33.0256C85.0084 34.0308 83.1089 34.1061 81.8807 33.1941C81.4304 32.8596 81.1145 32.4213 80.9752 31.9368C80.4553 30.2653 80.7266 27.4612 82.953 26.6197C84.4546 26.011 86.275 26.5136 87.0189 27.7425C87.2591 28.1387 87.365 28.5803 87.3266 29.0216Z" fill="#7F3E3B"/>
<path d="M88.3729 29.6506C88.0395 30.4505 87.5338 31.1949 86.8754 31.8468L83.8749 32.3092C83.8749 32.3092 81.5044 31.4977 82.1373 30.1615C81.7361 29.8841 81.8859 29.0264 82.1684 28.5548C82.6205 28.8507 83.3635 28.8762 83.7704 28.5202C84.0981 29.0126 85.0813 29.0819 85.508 28.6381C85.9968 29.0819 87.0393 28.9455 87.3332 28.3976C87.6948 28.5918 88.2147 28.5641 88.5424 28.3329C88.5565 28.3213 88.5707 28.3121 88.5848 28.3005C88.6328 28.6381 88.5848 29.0796 88.3729 29.6506Z" fill="#111111"/>
<path opacity="0.1" d="M88.3729 29.6506C88.0395 30.4505 87.5338 31.1949 86.8754 31.8468L83.8749 32.3092C83.8749 32.3092 81.5044 31.4977 82.1373 30.1615C81.7361 29.8841 81.8859 29.0264 82.1684 28.5548C82.6205 28.8507 83.3635 28.8762 83.7704 28.5202C84.0981 29.0126 85.0813 29.0819 85.508 28.6381C85.9968 29.0819 87.0393 28.9455 87.3332 28.3976C87.6948 28.5918 88.2147 28.5641 88.5424 28.3329C88.5565 28.3213 88.5707 28.3121 88.5848 28.3005C88.6328 28.6381 88.5848 29.0796 88.3729 29.6506Z" fill="white"/>
<path d="M88.8051 27.3643C88.9746 27.6741 88.8814 28.0647 88.5847 28.3005C88.5706 28.3121 88.5565 28.3214 88.5423 28.3329C88.2146 28.5641 87.6947 28.5918 87.3331 28.3976C87.0392 28.9455 85.9967 29.0819 85.5079 28.6381C85.0813 29.0819 84.098 29.0126 83.7703 28.5202C83.3635 28.8762 82.6204 28.8508 82.1683 28.5548C82.0497 28.4786 81.9508 28.3815 81.8858 28.2682C81.8688 28.2428 81.8575 28.2173 81.8462 28.1919C81.8208 28.215 81.7954 28.2358 81.7671 28.2543C81.4931 28.4393 81.0608 28.467 80.7613 28.3029C80.5155 28.1688 80.3799 27.9191 80.3997 27.681C80.4025 27.6301 80.4138 27.5816 80.4307 27.533C80.4081 27.5677 80.3799 27.6001 80.346 27.6278C80.1002 27.8428 79.5803 27.8521 79.3401 27.607C79.0407 27.3042 79.2102 26.8002 79.6199 26.5991C79.7837 26.5205 79.9646 26.4835 80.151 26.4835C80.4392 26.4835 80.733 26.569 80.9619 26.7124C80.7161 26.4234 80.8037 25.9818 81.1484 25.7715C81.4931 25.5634 82.0355 25.6212 82.3011 25.8963C82.2644 25.568 82.3972 25.3715 82.6034 25.2698C82.9933 25.0849 83.6432 25.2444 83.9596 25.5542C83.9596 25.5542 84.3947 24.6942 85.1463 24.7913C85.3101 24.8098 86.0814 25.0895 86.0617 25.316C86.0617 25.3322 86.056 25.3461 86.0475 25.36C86.0588 25.3415 86.0701 25.3253 86.0843 25.3091C86.2312 25.1195 86.5279 25.0248 86.8076 25.0294C87.1099 25.0317 87.3981 25.1265 87.6778 25.219C88.2626 25.4155 88.8842 25.6351 89.2232 26.072C89.5595 26.5112 89.4125 27.2256 88.8051 27.3643Z" fill="#111111"/>
<path d="M83.4615 30.337C83.3795 30.8028 83.1182 31.2354 82.7156 31.5715C82.2042 31.9714 81.7691 31.5715 81.7634 30.9635C81.7634 30.4133 82.0149 29.5418 82.611 29.3799C83.2072 29.2179 83.5717 29.7383 83.4615 30.337Z" fill="#7F3E3B"/>
<path d="M92.4968 36.4817C92.2849 36.0194 91.296 35.557 90.6886 35.557H90.2874C89.5867 35.557 88.7137 35.6032 87.866 35.6842C86.2511 35.8303 84.6474 36.051 83.0629 36.3453C82.334 36.5025 81.6305 36.7013 81.0711 36.8724C80.3591 37.1036 79.9409 37.2585 79.9409 37.2585C79.9409 37.2585 80.7213 41.5087 81.1247 45.7302C81.3494 48.0794 81.2564 50.4125 81.3282 52.0169H93.3811C93.7965 50.0888 93.7309 48.4075 93.7648 44.9259C93.7846 42.8359 93.3698 38.3843 92.4968 36.4817Z" fill="#111111"/>
<path opacity="0.2" d="M80.8643 43.3706C80.9547 44.256 81.0479 45.1854 81.1468 46.1147C82.5595 44.4271 83.3421 39.8102 83.3421 39.8102L80.8643 43.3706Z" fill="black"/>
<path d="M79.2597 37.5692C77.5334 38.3644 75.8413 42.4341 75.8413 42.4341L79.7937 44.8744C81.3024 43.7069 83.5091 40.8103 83.7492 39.6521C84.1363 37.8743 82.0257 36.3023 79.2597 37.5692Z" fill="#111111"/>
<path d="M75.8489 78.9944C75.8489 79.5497 75.2986 80 74.6199 80C73.9413 80 73.3909 79.5497 73.3909 78.9944C73.3909 78.4391 73.9413 77.9888 74.6199 77.9888C75.2986 77.989 75.8489 78.4391 75.8489 78.9944Z" fill="#111111"/>
<path d="M94.1826 78.9944C94.1826 79.5497 94.733 80 95.4116 80C96.0903 80 96.6407 79.5497 96.6407 78.9944C96.6407 78.4391 96.0903 77.9888 95.4116 77.9888C94.733 77.989 94.1826 78.4391 94.1826 78.9944Z" fill="#111111"/>
<path d="M83.8196 78.673C83.8196 79.2283 84.3697 79.6787 85.0486 79.6787C85.7273 79.6787 86.2776 79.2283 86.2776 78.673C86.2776 78.1178 85.7273 77.6674 85.0486 77.6674C84.37 77.6674 83.8196 78.1175 83.8196 78.673Z" fill="#111111"/>
<path d="M84.6668 77.4318V75.4876H81.1464C80.4553 75.4881 79.766 75.5406 79.0867 75.6448L72.5316 76.6872C72.2084 76.7387 71.9976 76.9949 72.0604 77.2594C72.1163 77.4942 72.372 77.6611 72.6644 77.6535L84.6668 77.4318Z" fill="#111111"/>
<path d="M84.6667 77.4318V75.4876H88.19C88.8811 75.4878 89.5704 75.5403 90.2496 75.6448L97.6168 76.6086C97.94 76.6601 98.1508 76.9163 98.0878 77.1808C98.0318 77.4156 97.7761 77.5825 97.484 77.5749L84.6667 77.4318Z" fill="#111111"/>
<path d="M86.8451 66.587H82.4856V75.4897H86.8451V66.587Z" fill="#111111"/>
<path d="M86.2207 62.4443H83.1128V66.5847H86.2207V62.4443Z" fill="#111111"/>
<path opacity="0.5" d="M83.1128 63.6603L86.2207 64.3007V62.4443H83.1128V63.6603Z" fill="black"/>
<path d="M74.6197 53.0773H73.0403V58.5909H74.6197V53.0773Z" fill="#111111"/>
<path d="M82.5381 62.4444V38.4754C82.5381 37.5678 83.0167 36.7046 83.8513 36.1067L85.9393 34.6113C86.6408 34.1089 87.5412 33.8317 88.4736 33.8317H96.0162L99.7019 37.0405V62.4446H82.5381V62.4444Z" fill="#F8E643"/>
<path d="M71.3084 57.8069H88.5149V62.4444H68.5057C67.382 62.4451 66.4706 61.7004 66.4697 60.7813C66.4694 60.4824 66.5675 60.1888 66.754 59.9315C67.7061 58.6142 69.4381 57.8065 71.3084 57.8069Z" fill="#F8E643"/>
<path opacity="0.7" d="M99.7023 37.0414V62.4455H68.5047C67.3831 62.4455 66.4705 61.7011 66.4705 60.781C66.4705 60.4828 66.5665 60.1892 66.753 59.9326C67.7051 58.6172 69.4314 57.8081 71.299 57.8081H79.9652C81.3861 57.8081 82.5383 56.8656 82.5383 55.7027V38.4747C82.5383 37.5685 83.0158 36.7039 83.8521 36.1074L85.94 34.6117C86.6407 34.1077 87.542 33.8326 88.4743 33.8326H96.0152L99.7023 37.0414Z" fill="white"/>
<path d="M85.0483 62.4444V38.4754C85.0483 37.5678 85.527 36.7046 86.3616 36.1067L88.4495 34.6113C89.151 34.1089 90.0515 33.8317 90.9839 33.8317H96.8626C97.9243 33.8317 98.9389 34.1907 99.6662 34.8239L101.168 36.1317C101.839 36.7154 102.212 37.4864 102.212 38.2877V60.0447C102.212 61.3701 100.899 62.4446 99.2794 62.4446H85.0483V62.4444Z" fill="#F8E643"/>
<path opacity="0.5" d="M85.0483 62.4444V38.4754C85.0483 37.5678 85.527 36.7046 86.3616 36.1067L88.4495 34.6113C89.151 34.1089 90.0515 33.8317 90.9839 33.8317H96.8626C97.9243 33.8317 98.9389 34.1907 99.6662 34.8239L101.168 36.1317C101.839 36.7154 102.212 37.4864 102.212 38.2877V60.0447C102.212 61.3701 100.899 62.4446 99.2794 62.4446H85.0483V62.4444Z" fill="white"/>
<path d="M79.1941 54.76C75.7181 53.7671 71.9338 53.7671 68.4577 54.76C67.7361 54.9826 66.925 54.7297 66.5676 54.1705C66.2455 53.6134 66.6778 52.8921 67.5536 52.6401C71.6128 51.4796 76.0334 51.4796 80.0926 52.6401C80.9684 52.8898 81.4007 53.6134 81.0786 54.1705C80.7206 54.7267 79.914 54.9789 79.1941 54.76Z" fill="#F8E643"/>
<path opacity="0.7" d="M79.1941 54.76C75.7181 53.7671 71.9338 53.7671 68.4577 54.76C67.7361 54.9826 66.925 54.7297 66.5676 54.1705C66.2455 53.6134 66.6778 52.8921 67.5536 52.6401C71.6128 51.4796 76.0334 51.4796 80.0926 52.6401C80.9684 52.8898 81.4007 53.6134 81.0786 54.1705C80.7206 54.7267 79.914 54.9789 79.1941 54.76Z" fill="white"/>
<path d="M35.2847 31.8249C35.2253 31.9613 35.2677 32.0977 35.3779 32.1277C35.4881 32.1578 35.6237 32.0746 35.6802 31.9382C35.7367 31.8018 35.6972 31.6631 35.5898 31.633C35.4825 31.603 35.344 31.6862 35.2847 31.8249Z" fill="#111111"/>
<path d="M35.2535 31.9659C35.2756 32.4422 35.3773 32.9135 35.5559 33.3669C35.268 33.4344 34.9583 33.3955 34.7083 33.2605L35.2535 31.9659Z" fill="#A02724"/>
<path d="M35.0135 30.8956C35.0346 30.9014 35.0572 30.9014 35.0784 30.8956C35.3299 30.8269 35.6062 30.8614 35.8215 30.9881C35.8681 31.0158 35.9337 31.0073 35.9676 30.9691C35.9975 30.9351 35.9933 30.8884 35.9571 30.8586C35.6882 30.6945 35.3387 30.6471 35.0191 30.7315C34.9646 30.7467 34.9355 30.7955 34.9541 30.8401C34.9646 30.8651 34.9886 30.8847 35.0191 30.8933L35.0135 30.8956Z" fill="#111111"/>
<path d="M29.0887 32.3289C29.4051 33.6443 29.7187 36.0554 28.5942 36.9339C28.5942 36.9339 29.035 38.2678 32.0242 38.2678C35.3101 38.2678 33.5951 36.9339 33.5951 36.9339C31.801 36.5825 32.0898 35.4937 32.4034 34.4719L29.0887 32.3289Z" fill="#B55B52"/>
<path d="M29.8205 29.9431C29.2328 31.6631 28.7807 32.6456 29.4532 33.8038C30.4618 35.5492 33.9865 35.7755 34.9485 33.7777C35.6803 31.9382 36.4035 29.994 34.6744 28.7526C33.4448 27.8588 31.5626 27.9499 30.4703 28.956C30.1629 29.2392 29.9403 29.5772 29.8205 29.9431Z" fill="#B55B52"/>
<path d="M27.542 30.5148C27.3891 29.8812 27.3499 29.1881 27.7364 28.6247C28.1229 28.0616 29.0598 27.7164 29.7396 28.0449C30.3264 27.0324 31.7453 26.3883 33.106 26.5168C34.4667 26.6454 35.6686 27.5372 35.9576 28.6328C36.2466 29.7283 35.6016 30.9464 34.4271 31.523C34.5839 31.0502 34.7407 30.5777 34.8975 30.1049C34.7628 30.758 34.3257 31.3665 33.6936 31.7805C33.7843 31.308 33.8753 30.8355 33.966 30.3629C33.8832 31.0303 33.3913 31.6554 32.683 31.9932C32.7929 31.6621 32.9028 31.3311 33.0124 31.0003C32.9641 31.1457 32.5245 32.1865 32.375 32.3289C32.0976 32.5933 31.912 34.3316 30.9381 34.3863C27.6095 34.9317 27.8994 31.9948 27.542 30.5148Z" fill="#111111"/>
<path d="M32.0375 31.3389C31.981 31.78 32.1019 32.2239 32.3822 32.6035C32.758 33.0982 33.3089 32.9086 33.5123 32.4024C33.6932 31.94 33.7129 31.1424 33.1902 30.8211C32.6676 30.4998 32.1166 30.8072 32.0375 31.3389Z" fill="#B55B52"/>
<path d="M24.074 48.0018C23.714 47.9042 22.0335 47.197 21.7659 47.3233C22.5418 45.7032 23.0258 45.4547 23.3787 44.4234C23.5759 43.8473 23.4403 43.3986 23.0029 42.9191C22.5065 42.3747 22.3324 42.0989 21.5063 42.1662C20.3705 43.7201 18.9403 45.6375 18.3806 47.3892C18.1922 47.9791 18.0557 48.4264 18.4846 48.9251C18.8626 49.3646 19.5616 49.5416 20.2157 49.5895C21.7905 49.7051 24.1265 49.4681 24.0969 48.7032C24.0779 48.2209 24.074 48.0018 24.074 48.0018Z" fill="#B55B52"/>
<path d="M23.8066 47.944L25.1416 47.5891L25.0229 49.5615C25.0229 49.5615 23.9541 49.5927 23.3848 49.0078L23.8066 47.944Z" fill="#B55B52"/>
<path d="M26.8086 47.5586L26.6176 49.1852L25.0229 49.5617L25.1416 47.5893L26.8086 47.5586Z" fill="#B55B52"/>
<path d="M42.0998 49.344C42.0998 49.344 40.2396 48.1511 37.7973 44.2084C37.4351 43.657 37.0887 43.1013 36.7576 42.5411C36.4251 41.9755 36.1058 41.4222 35.8015 40.8281L38.6879 39.8102C39.2829 40.87 40.2085 41.963 40.8637 43.0148C41.5189 44.0667 43.0664 46.5579 43.2599 46.7902C43.3562 46.9099 43.4605 47.0091 43.5605 47.1196L43.7097 47.2819L41.8475 49.0433L42.0998 49.344Z" fill="#B55B52"/>
<path d="M44.5427 41.6798L43.9643 41.1157L43.697 40.2712L45.4405 38.9459C45.4405 38.9459 45.8627 39.3708 46.1573 39.8285C46.2023 39.8985 46.2218 39.9776 46.2178 40.0567L46.1469 41.5418L44.5427 41.6798Z" fill="#B55B52"/>
<path d="M43.7224 39.3567L45.0272 38.3862L45.4397 38.9528L43.697 40.2712L43.7224 39.3567Z" fill="#B55B52"/>
<path d="M44.5684 41.2669C44.6139 41.108 44.6543 41.4194 44.7823 41.2941C45.1679 40.9166 45.7276 40.8755 46.0607 41.2851C46.3939 41.695 46.1091 45.8204 45.5765 47.1126C45.2227 47.971 45.0343 48.6562 44.1299 49.1784C43.7558 49.3944 43.3168 49.5574 42.859 49.5516C42.4013 49.5458 41.9295 49.341 41.7563 48.994C41.4876 48.4549 42.485 46.5134 42.8418 45.8869C43.959 43.9238 44.033 43.1301 44.5684 41.2669Z" fill="#B55B52"/>
<path d="M40.8291 41.0893C41.599 41.0833 42.3689 41.0771 43.1388 41.0711C43.4677 41.0685 43.8092 41.0634 44.1051 40.9458C44.4927 40.7916 44.7377 40.4677 44.8942 40.1392C45.2208 39.454 45.2482 38.7022 45.3779 37.9745C45.5076 37.2465 45.7751 36.4871 46.4481 35.9993C45.2216 36.1324 43.0532 35.8178 42.1115 36.6401C41.612 37.0761 40.7347 41.09 40.8291 41.0893Z" fill="#F8E643"/>
<path opacity="0.5" d="M40.8291 41.0893C41.599 41.0833 42.3689 41.0771 43.1388 41.0711C43.4677 41.0685 43.8092 41.0634 44.1051 40.9458C44.4927 40.7916 44.7377 40.4677 44.8942 40.1392C45.2208 39.454 45.2482 38.7022 45.3779 37.9745C45.5076 37.2465 45.7751 36.4871 46.4481 35.9993C45.2216 36.1324 43.0532 35.8178 42.1115 36.6401C41.612 37.0761 40.7347 41.09 40.8291 41.0893Z" fill="white"/>
<path d="M44.7793 38.2835C44.6465 38.3122 44.5592 38.7001 44.588 38.8097L44.7174 38.999L44.9813 39.936L45.8625 39.537L45.0681 38.3834C45.0107 38.3002 44.892 38.2593 44.7793 38.2835Z" fill="#B55B52"/>
<path d="M24.8688 37.2641C22.8063 37.6501 19.7563 42.908 19.7563 42.908L23.8955 45.2198C24.9251 44.0119 26.3267 42.1858 27.1158 40.8623C28.3395 38.7679 26.9766 36.869 24.8688 37.2641Z" fill="#F8E643"/>
<path d="M27.8824 37.3917C27.6451 36.9686 27.3879 36.4855 27.9219 36.3352C28.5124 36.1687 31.7446 35.9977 32.8578 36.3098C33.4692 36.4459 33.8298 36.9617 33.6636 37.462C33.6617 37.468 33.6597 37.4737 33.6574 37.4798L27.8824 37.3917Z" fill="#111111"/>
<path opacity="0.2" d="M26.1442 40.3006L23.2019 44.8324L23.8955 45.2198C23.8955 45.2198 25.2285 43.7012 26.144 42.3881L26.1442 40.3006Z" fill="black"/>
<path d="M37.4095 39.5777C37.8553 41.4232 36.8139 45.8116 36.8247 52.98H25.0627C24.985 51.5312 26.2731 48.1008 24.6731 41.2671C24.6211 41.0457 24.5976 37.3034 24.8689 37.2643C26.0078 37.1006 27.1571 36.9894 28.3116 36.9316C29.9771 36.8519 31.6469 36.8519 33.3125 36.9316C33.9919 36.9876 35.0647 37.3332 35.7406 37.5322C36.7961 37.8429 37.1919 38.6773 37.4095 39.5777Z" fill="#F8E643"/>
<path opacity="0.2" d="M34.2969 41.4153C34.6037 42.9346 35.8212 44.9415 37.0344 46.1187C37.0824 45.2564 37.1878 44.3559 37.185 43.6647L34.2969 41.4153Z" fill="black"/>
<path d="M33.46 39.1324C33.1775 40.8362 37.2742 45.187 37.2742 45.187L41.3964 42.8752C41.3964 42.8752 40.2522 40.4779 38.3281 38.9059C36.1356 37.1027 33.7821 37.2784 33.46 39.1324Z" fill="#F8E643"/>
<path d="M46.9336 76.8421H49.1317L49.6318 72.674H47.4337L46.9336 76.8421Z" fill="#B55B52"/>
<path opacity="0.2" d="M49.5983 72.9281L49.344 75.0757H47.1431L47.4002 72.9281H49.5983Z" fill="black"/>
<path d="M38.2627 76.8421H40.4608L41.5655 72.674H39.3674L38.2627 76.8421Z" fill="#B55B52"/>
<g opacity="0.2">
<path d="M39.3197 72.8962H41.5179L40.9474 75.0438H38.749L39.3197 72.8962Z" fill="black"/>
</g>
<path d="M49.2562 76.0339H46.8574C46.7665 76.0344 46.6879 76.1014 46.6681 76.1955L46.233 78.2542C46.1924 78.4359 46.2986 78.618 46.4704 78.661C46.4964 78.6675 46.5229 78.6705 46.5495 78.6701C47.414 78.655 48.6657 78.6012 49.7534 78.6012C51.0277 78.6012 52.1267 78.6731 53.6185 78.6731C54.5226 78.6731 54.7741 77.7065 54.3955 77.6198C52.6749 77.222 51.2707 77.1799 49.7845 76.2076C49.6269 76.0991 49.4441 76.0393 49.2562 76.0339Z" fill="#111111"/>
<path d="M51.0021 76.7034C51.2846 76.7034 51.5671 76.6711 51.6491 76.567C51.6968 76.5109 51.6968 76.4362 51.6491 76.3798C51.6115 76.331 51.553 76.2956 51.4852 76.2804C51.1179 76.1995 50.3551 76.5578 50.3183 76.574C50.2986 76.5821 50.2881 76.6001 50.2929 76.6179C50.2966 76.6348 50.3121 76.6484 50.3325 76.6526C50.5534 76.6854 50.7775 76.7025 51.0021 76.7034ZM51.3524 76.3544C51.3852 76.3507 51.4185 76.3507 51.4513 76.3544C51.4945 76.3611 51.5318 76.383 51.553 76.4145C51.5897 76.4676 51.5784 76.4931 51.553 76.5069C51.4513 76.6248 50.8947 76.6271 50.485 76.5786C50.7534 76.4584 51.0481 76.3823 51.3524 76.3544Z" fill="#F8E643"/>
<path d="M50.338 76.6525H50.3606C50.6262 76.5554 51.1517 76.1671 51.1093 75.959C51.1093 75.9105 51.0585 75.8527 50.9172 75.8388C50.8146 75.8316 50.7129 75.8582 50.6347 75.9128C50.3521 76.1 50.2956 76.5855 50.2928 76.6063C50.2908 76.6213 50.2982 76.6361 50.3126 76.6456C50.3202 76.6493 50.329 76.6516 50.338 76.6525ZM50.8748 75.9243H50.9059C50.9991 75.9243 51.0048 75.9636 51.0076 75.9729C51.033 76.0954 50.6742 76.4006 50.403 76.5323C50.4256 76.3289 50.5242 76.1359 50.6855 75.9798C50.7381 75.9428 50.8056 75.9232 50.8748 75.9243Z" fill="#F8E643"/>
<path d="M40.6163 76.0339H38.1469C38.0565 76.0346 37.9791 76.1019 37.9604 76.1955L37.5253 78.2542C37.4878 78.44 37.5996 78.6229 37.7754 78.6624C37.7991 78.6678 37.8234 78.6703 37.8474 78.6701C38.7092 78.655 39.1301 78.6012 40.2151 78.6012C40.8847 78.6012 41.7408 78.6731 42.6647 78.6731C43.5886 78.6731 43.7072 77.7065 43.3286 77.6198C41.6334 77.228 41.5176 76.6863 40.9751 76.1687C40.8751 76.0788 40.7474 76.0309 40.6163 76.0339Z" fill="#111111"/>
<path d="M41.9074 76.9323C42.0959 76.9524 42.286 76.9101 42.4358 76.8144C42.4892 76.7545 42.4892 76.6732 42.4358 76.6133C42.4018 76.562 42.342 76.5254 42.2719 76.5139C41.9498 76.4515 41.3423 76.7913 41.3169 76.8052C41.3005 76.8156 41.292 76.8322 41.2943 76.8491C41.2983 76.8653 41.3141 76.8782 41.3339 76.8815C41.5223 76.915 41.7144 76.9321 41.9074 76.9323ZM42.1899 76.5902C42.2106 76.5879 42.2315 76.5879 42.2521 76.5902C42.2931 76.595 42.3287 76.6156 42.3482 76.6456C42.3962 76.7173 42.3679 76.7451 42.3482 76.7566C42.2549 76.856 41.8057 76.8583 41.4751 76.8144C41.6879 76.6967 41.9303 76.62 42.1843 76.5902H42.1899Z" fill="#F8E643"/>
<path d="M41.3479 76.8837H41.3705C41.5993 76.782 42.0401 76.389 41.9921 76.1902C41.9771 76.1245 41.907 76.0769 41.8254 76.0769C41.7457 76.0691 41.6654 76.0892 41.605 76.1324C41.3507 76.3035 41.297 76.8259 41.2942 76.8444C41.2939 76.8602 41.3035 76.8749 41.3196 76.8837C41.3287 76.886 41.3386 76.886 41.3479 76.8837ZM41.7915 76.1555H41.8141C41.8819 76.1555 41.8875 76.1879 41.8903 76.1995C41.9186 76.3174 41.6361 76.6156 41.41 76.7566C41.4253 76.5513 41.5157 76.3548 41.67 76.1925C41.7036 76.1687 41.7468 76.1555 41.7915 76.1555Z" fill="#F8E643"/>
<path d="M33.2985 52.9823C33.2985 52.9823 43.7097 56.4992 45.8626 59.2033C44.5825 66.0783 42.2857 73.9108 42.2857 73.9108H38.3703C38.3703 73.9108 38.263 69.5554 39.3841 63.7942C39.9492 55.3909 21.4662 64.0858 25.0573 52.9823H33.2985Z" fill="#111111"/>
<path opacity="0.3" d="M40.4964 58.7779C39.7669 58.8011 39.0436 58.8919 38.3223 58.9828C37.5617 59.0785 36.8012 59.1742 36.0403 59.2699C37.2168 60.0781 38.4596 60.8215 39.7579 61.4936C40.5456 61.9014 41.4028 62.2946 42.3346 62.2981C43.3786 62.302 46.2155 61.2009 45.7451 60.0628C45.2682 58.909 41.6834 58.7403 40.4964 58.7779Z" fill="black"/>
<path d="M36.8247 52.9823C36.8247 52.9823 46.4481 53.9976 51.7533 56.4696C53.3866 57.2307 53.1581 59.6747 53.1157 61.2839C52.999 65.6018 51.9841 69.8717 50.1152 73.9108H46.8491C46.8491 73.9108 47.0157 69.5485 46.9056 62.5091C46.8717 60.3985 41.6645 59.7026 36.5761 59.4576C32.1806 59.2315 28.3221 56.9854 26.6195 53.662L26.272 52.9823H36.8247Z" fill="#111111"/>
<path d="M50.9147 73.1942C50.9316 73.1942 50.7028 74.4587 50.7028 74.4587H46.1822L46.0579 73.3305L50.9147 73.1942Z" fill="#F8E643"/>
<path d="M42.6647 73.1942C42.6816 73.1942 42.2493 74.4587 42.2493 74.4587H37.7288L37.8107 73.3305L42.6647 73.1942Z" fill="#F8E643"/>
<path d="M30.5163 59.3614L27.2773 78.8975L26.6921 78.8321L29.1923 59.2134L30.5163 59.3614Z" fill="#F8E643"/>
<path opacity="0.4" d="M30.4004 60.061L27.2773 78.8976L26.6921 78.8321L29.0847 60.0587L30.4004 60.061Z" fill="black"/>
<path d="M41.9102 60.0609H23.5454C23.5454 59.1136 24.484 58.3456 25.6418 58.3456H39.8138C40.9717 58.3456 41.9102 59.1136 41.9102 60.0609Z" fill="#F8E643"/>
<path opacity="0.7" d="M41.9102 60.0609H23.5454C23.5454 59.1136 24.484 58.3456 25.6418 58.3456H39.8138C40.9717 58.3456 41.9102 59.1136 41.9102 60.0609Z" fill="white"/>
<path d="M24.3958 60.0586L21.627 79.0522H22.2203L25.7322 60.0586H24.3958Z" fill="#F8E643"/>
<path d="M41.0596 60.0586L43.8285 79.0522H43.2352L39.7261 60.0586H41.0596Z" fill="#F8E643"/>
<path opacity="0.4" d="M41.0596 60.0586L43.8285 79.0522H43.2352L39.7261 60.0586H41.0596Z" fill="black"/>
<path d="M37.3557 60.0586L37.4094 79.0522H36.8189L36.0193 60.0586H37.3557Z" fill="#F8E643"/>
</svg>
